<svg width="28" height="30" viewBox="0 0 28 30" fill="none" xmlns="http://www.w3.org/2000/svg">
<path d="M6.77546 25.2095C7.02746 25.2095 7.26546 25.2555 7.49146 25.3495C7.71746 25.4415 7.91146 25.5715 8.07746 25.7375C8.24346 25.9035 8.37546 26.0975 8.47546 26.3235C8.57546 26.5495 8.62346 26.7875 8.62346 27.0395C8.62346 27.2915 8.57346 27.5295 8.47546 27.7555C8.37746 27.9815 8.24346 28.1755 8.07746 28.3415C7.91146 28.5075 7.71546 28.6395 7.49146 28.7395C7.26546 28.8395 7.02746 28.8895 6.77546 28.8875C6.51146 28.8875 6.26546 28.8375 6.04146 28.7395C5.81546 28.6395 5.62146 28.5075 5.45546 28.3415C5.28946 28.1755 5.15746 27.9795 5.05746 27.7555C4.95746 27.5295 4.90946 27.2915 4.90946 27.0395C4.90946 26.7875 4.95946 26.5495 5.05746 26.3235C5.15746 26.0975 5.28946 25.9035 5.45546 25.7375C5.62146 25.5715 5.81746 25.4435 6.04146 25.3495C6.26546 25.2555 6.51146 25.2095 6.77546 25.2095ZM15.0395 25.2495C15.2915 25.2495 15.5335 25.2955 15.7655 25.3895C15.9975 25.4815 16.1955 25.6115 16.3615 25.7775C16.5275 25.9435 16.6595 26.1375 16.7595 26.3635C16.8595 26.5895 16.9075 26.8275 16.9075 27.0795C16.9075 27.3315 16.8575 27.5695 16.7595 27.7955C16.6595 28.0215 16.5275 28.2155 16.3615 28.3815C16.1955 28.5475 15.9975 28.6795 15.7655 28.7795C15.5335 28.8795 15.2915 28.9295 15.0395 28.9275C14.7875 28.9275 14.5495 28.8775 14.3235 28.7795C14.0975 28.6815 13.9035 28.5475 13.7375 28.3815C13.5715 28.2155 13.4395 28.0195 13.3395 27.7955C13.2395 27.5715 13.1915 27.3315 13.1915 27.0795C13.1915 26.8275 13.2415 26.5895 13.3395 26.3635C13.4375 26.1375 13.5715 25.9435 13.7375 25.7775C13.9035 25.6115 14.0995 25.4815 14.3235 25.3895C14.5495 25.2955 14.7895 25.2495 15.0395 25.2495ZM18.3775 13.9655C18.7475 13.9655 19.0355 14.0155 19.2415 14.1135C19.4475 14.2135 19.5915 14.3355 19.6795 14.4815C19.7675 14.6275 19.8055 14.7835 19.7995 14.9475C19.7935 15.1135 19.7695 15.2555 19.7295 15.3755C19.6895 15.4955 19.6035 15.7395 19.4715 16.1095C19.3395 16.4795 19.1955 16.8875 19.0435 17.3315C18.8915 17.7755 18.7395 18.2155 18.5855 18.6535C18.4335 19.0895 18.3095 19.4335 18.2175 19.6875C18.0455 20.2175 17.8295 20.5855 17.5715 20.7895C17.3135 20.9955 16.9915 21.0975 16.6075 21.0975H6.17946L6.45746 22.8855H16.4895C17.1255 22.8855 17.4435 23.1575 17.4435 23.6995C17.4435 23.9635 17.3815 24.1955 17.2555 24.3955C17.1295 24.5935 16.8815 24.6875 16.5095 24.6735H6.09946C5.83546 24.6735 5.61346 24.6135 5.43346 24.4955C5.25546 24.3755 5.10546 24.2215 4.98746 24.0295C4.86746 23.8375 4.77146 23.6295 4.69946 23.4035C4.62746 23.1775 4.56946 22.9675 4.52946 22.7675C4.51546 22.6875 4.47946 22.4955 4.41946 22.1915C4.35946 21.8875 4.28746 21.5055 4.20146 21.0495C4.11546 20.5915 4.01946 20.0815 3.91346 19.5195C3.80746 18.9575 3.70146 18.3915 3.59546 17.8215C3.34346 16.4835 3.05946 14.9935 2.74146 13.3515H1.25146C1.05346 13.3515 0.887463 13.3015 0.755463 13.2035C0.623463 13.1035 0.513463 12.9855 0.427463 12.8455C0.341463 12.7055 0.281463 12.5575 0.249463 12.3995C0.217463 12.2415 0.199463 12.0955 0.199463 11.9615C0.199463 11.6975 0.289463 11.4775 0.467463 11.3055C0.645463 11.1335 0.887463 11.0535 1.19346 11.0675H3.19946C3.46346 11.0675 3.67546 11.1075 3.83546 11.1875C3.99346 11.2675 4.11946 11.3675 4.21346 11.4855C4.30546 11.6055 4.37346 11.7275 4.41146 11.8535C4.45146 11.9795 4.48346 12.0895 4.51146 12.1815C4.53746 12.2875 4.56546 12.4355 4.59146 12.6275C4.61746 12.8195 4.64346 13.0155 4.67146 13.2135C4.71146 13.4515 4.75146 13.7035 4.79146 13.9695L18.3775 13.9655ZM17.6435 15.7335L5.20746 15.6935L5.90346 19.2895L16.2935 19.3095L17.6435 15.7335Z" fill="#767676"/>
<circle cx="19.5" cy="8.5" r="8.5" fill="#FFF852"/>
</svg>
