<svg width="22" height="20" viewBox="0 0 22 20" fill="none" xmlns="http://www.w3.org/2000/svg">
<path d="M7.45296 15.7305C7.73016 15.7305 7.99196 15.7811 8.24056 15.8845C8.48916 15.9857 8.70256 16.1287 8.88516 16.3113C9.06776 16.4939 9.21296 16.7073 9.32296 16.9559C9.43296 17.2045 9.48576 17.4663 9.48576 17.7435C9.48576 18.0207 9.43076 18.2825 9.32296 18.5311C9.21516 18.7797 9.06776 18.9931 8.88516 19.1757C8.70256 19.3583 8.48696 19.5035 8.24056 19.6135C7.99196 19.7235 7.73016 19.7785 7.45296 19.7763C7.16256 19.7763 6.89196 19.7213 6.64556 19.6135C6.39696 19.5035 6.18356 19.3583 6.00096 19.1757C5.81836 18.9931 5.67316 18.7775 5.56316 18.5311C5.45316 18.2825 5.40036 18.0207 5.40036 17.7435C5.40036 17.4663 5.45536 17.2045 5.56316 16.9559C5.67316 16.7073 5.81836 16.4939 6.00096 16.3113C6.18356 16.1287 6.39916 15.9879 6.64556 15.8845C6.89196 15.7811 7.16256 15.7305 7.45296 15.7305ZM16.5434 15.7745C16.8206 15.7745 17.0868 15.8251 17.342 15.9285C17.5972 16.0297 17.815 16.1727 17.9976 16.3553C18.1802 16.5379 18.3254 16.7513 18.4354 16.9999C18.5454 17.2485 18.5982 17.5103 18.5982 17.7875C18.5982 18.0647 18.5432 18.3265 18.4354 18.5751C18.3254 18.8237 18.1802 19.0371 17.9976 19.2197C17.815 19.4023 17.5972 19.5475 17.342 19.6575C17.0868 19.7675 16.8206 19.8225 16.5434 19.8203C16.2662 19.8203 16.0044 19.7653 15.7558 19.6575C15.5072 19.5497 15.2938 19.4023 15.1112 19.2197C14.9286 19.0371 14.7834 18.8215 14.6734 18.5751C14.5634 18.3287 14.5106 18.0647 14.5106 17.7875C14.5106 17.5103 14.5656 17.2485 14.6734 16.9999C14.7812 16.7513 14.9286 16.5379 15.1112 16.3553C15.2938 16.1727 15.5094 16.0297 15.7558 15.9285C16.0044 15.8251 16.2684 15.7745 16.5434 15.7745ZM20.2152 3.36207C20.6222 3.36207 20.939 3.41707 21.1656 3.52487C21.3922 3.63487 21.5506 3.76907 21.6474 3.92967C21.7442 4.09027 21.786 4.26187 21.7794 4.44227C21.7728 4.62487 21.7464 4.78107 21.7024 4.91307C21.6584 5.04507 21.5638 5.31347 21.4186 5.72047C21.2734 6.12747 21.115 6.57627 20.9478 7.06467C20.7806 7.55307 20.6134 8.03707 20.444 8.51887C20.2768 8.99847 20.1404 9.37687 20.0392 9.65627C19.85 10.2393 19.6124 10.6441 19.3286 10.8685C19.0448 11.0951 18.6906 11.2073 18.2682 11.2073H6.79736L7.10316 13.1741H18.1384C18.838 13.1741 19.1878 13.4733 19.1878 14.0695C19.1878 14.3599 19.1196 14.6151 18.981 14.8351C18.8424 15.0529 18.5696 15.1563 18.1604 15.1409H6.70936C6.41896 15.1409 6.17476 15.0749 5.97676 14.9451C5.78096 14.8131 5.61596 14.6437 5.48616 14.4325C5.35416 14.2213 5.24856 13.9925 5.16936 13.7439C5.09016 13.4953 5.02636 13.2643 4.98236 13.0443C4.96696 12.9563 4.92736 12.7451 4.86136 12.4107C4.79536 12.0763 4.71616 11.6561 4.62156 11.1545C4.52696 10.6507 4.42136 10.0897 4.30476 9.47147C4.18816 8.85326 4.07156 8.23067 3.95496 7.60367C3.67776 6.13187 3.36536 4.49287 3.01556 2.68667H1.37656C1.15876 2.68667 0.97616 2.63167 0.83096 2.52387C0.68576 2.41387 0.56476 2.28407 0.47016 2.13007C0.37556 1.97607 0.30956 1.81327 0.27436 1.63947C0.23916 1.46567 0.21936 1.30507 0.21936 1.15767C0.21936 0.867267 0.31836 0.625267 0.51416 0.436067C0.70996 0.246867 0.97616 0.158868 1.31276 0.174268H3.51936C3.80976 0.174268 4.04296 0.218267 4.21896 0.306267C4.39276 0.394267 4.53136 0.504267 4.63476 0.634067C4.73596 0.766067 4.81076 0.900267 4.85256 1.03887C4.89656 1.17747 4.93176 1.29847 4.96256 1.39967C4.99116 1.51627 5.02196 1.67907 5.05056 1.89027C5.07916 2.10147 5.10776 2.31707 5.13856 2.53487C5.18256 2.79667 5.22656 3.07387 5.27056 3.36647L20.2152 3.36207ZM19.4078 5.30687L5.72816 5.26287L6.49376 9.21846L17.9228 9.24047L19.4078 5.30687Z" fill="#878787"/>
</svg>
