<?xml version="1.0" encoding="utf-8"?>
<!-- Generator: Adobe Illustrator 22.1.0, SVG Export Plug-In . SVG Version: 6.00 Build 0)  -->
<svg version="1.1" id="Слой_1" xmlns="http://www.w3.org/2000/svg" xmlns:xlink="http://www.w3.org/1999/xlink" x="0px" y="0px"
	 viewBox="0 0 181 44" style="enable-background:new 0 0 181 44;" xml:space="preserve">
<g>
	<path d="M0.2,38.2c0.6-8.3,1.5-20.9,2.6-37.6c9,0.9,16,1.4,20.9,1.4c1.6,0,3.2,0,4.6,0l-0.3,3.3h2.4c-0.2,2.3-0.4,5.8-0.6,10.4
		l-5.2-0.4v0.9l2.1,0.2c0,1.4-0.2,6.1-0.8,14.2h1.1L26.8,34l2.4,0.2c-0.1,2-0.3,5-0.5,9.1c-8-0.3-16.7-0.9-26.3-1.6l0.2-3.2
		L0.2,38.2z M2.7,36.1c6.4,0.5,13.6,0.9,21.5,1.3l0.4-4.4c-2.4-0.2-6.1-0.4-11-0.8l0.6-7c1.9,0.1,4.3,0.2,7.4,0.4
		c0.2-2.3,0.4-5.8,0.8-10.4c-1.7-0.1-4.1-0.2-7.4-0.4c0.2-2.8,0.2-4.7,0.1-5.7c0.5,0,3.9,0.3,10.3,0.8l0.4-5.6
		C20.9,4.2,14,3.8,5,3.2L2.7,36.1z"/>
	<path d="M62.2,12.6L62.1,13l1.6,1.4L61,24.7c-0.4-0.6-1-1.4-1.8-2.5l-1,0.1c-1.1,1.6-1.8,4.4-2.2,8.4c-0.4,4.1-1.1,6.9-2,8.3
		c-1.6,2.6-4.5,4-8.9,4.1c-4.3,0.1-7.4,0-9.1-0.4l-0.2-1.6l-1.2-0.3l-1.3-11.7c2.8,1.2,5,1.8,6.7,1.8c2.5,0,4.1-1.6,4.8-4.8
		c0.5-3.2,0.9-6.4,1.4-9.6c1-3.8,3-6.1,6.3-7.1c1-0.3,2-0.5,2.9-0.5C57.3,9.1,59.6,10.2,62.2,12.6z M36.1,32.9
		c0.1,0.8,0.3,2.7,0.6,5.8c1.7,0.1,4,0.1,6.8,0.1c1.9,0,3.7-0.6,5.3-1.7c1.2-0.8,2-1.7,2.4-2.6s0.9-3.7,1.5-8.4
		c0.5-3.9,1.3-6.4,2.4-7.5c0.9-0.8,1.9-1.1,3.1-0.7c0.5-1.9,0.9-3.5,1.2-4.6c-1.4-1.2-2.9-1.7-4.6-1.7c-1.4,0-2.8,0.5-3.9,1.4
		c-1.2,0.9-2,2.2-2.5,3.8c-0.6,2.1-1,4.5-1,7c0,2.2-0.5,4.2-1.4,6c-1.1,2.1-2.6,3.3-4.7,3.6C39.8,33.5,38,33.4,36.1,32.9z"/>
	<path d="M69.8,22.1l-2.1,0.4c-0.4-2.1-0.8-5.3-1.4-9.6c7.9-1.3,16.1-2.5,24.6-3.8l0.2,1.4l2-0.4c0.4,2.1,0.8,5.2,1.4,9.3
		c-2.4,0.4-5,0.9-7.8,1.3c1.2,8.2,2.3,15.2,3.3,21c-2.9,0.7-5.9,1.2-9.1,1.5L80.7,42l-2,0.3l-3.1-19.7c-1.2,0.2-3.1,0.5-5.6,0.9
		L69.8,22.1z M85.1,39c-0.8-4.7-1.8-11.8-3.2-21.3c2.8-0.4,5.5-0.8,7.9-1.2c-0.2-1.1-0.5-2.7-0.8-4.8C81.5,13,74.8,14,68.8,14.9
		l0.8,4.9c1.7-0.2,4.3-0.7,7.7-1.2c0.4,2.4,1.5,9.4,3.3,21.1C82.2,39.4,83.7,39.2,85.1,39z"/>
	<path d="M97.7,39.2c0.5-6.7,1.2-16.7,2.1-30.1c7.2,0.8,12.7,1.2,16.7,1.2c1.3,0,2.5,0,3.7,0l-0.2,2.6h1.9c-0.1,1.9-0.3,4.7-0.5,8.4
		l-4.1-0.3l-0.1,0.7l1.7,0.2c0,1.1-0.2,4.9-0.7,11.3l0.8,0.1L119,36h1.9c-0.1,1.6-0.3,4-0.4,7.3C114,43,107,42.6,99.4,42l0.2-2.7
		L97.7,39.2z M116.4,38l0.2-2.5c-1.9-0.1-4.9-0.4-8.7-0.6l0.6-6.6c1.8,0.1,3.7,0.2,5.9,0.3c0.1-1.6,0.3-4,0.6-7.3
		c-1.3-0.1-3.3-0.2-6-0.3c0.2-2.5,0.2-4.4,0.1-5.6c1.2,0,4.1,0.2,8.5,0.6l0.2-3.4c-3.8-0.1-9-0.4-15.6-0.8L100.2,37
		C105.1,37.3,110.5,37.7,116.4,38z"/>
	<path d="M128.8,41.8c-0.7-7-1.9-17.4-3.7-31.3c1.4-0.3,5-0.7,10.7-1.4l0.2,1.8l3.1-0.3c0.5,4,1.2,10.1,2.1,18.2l4.8-0.7l0.4,1.8
		l2.9-0.3c1.3,4.7,2.1,8.4,2.4,11.2c-4.4,0.4-10.9,1.3-19.6,2.6l-0.3-2L128.8,41.8z M145.7,37.2c-0.4-1.9-0.8-4-1.5-6.5
		c-1.8,0.2-4.6,0.6-8.3,1.1c-0.1-1.6-0.8-8.2-2.2-20c-1.4,0.1-3.4,0.4-6.1,0.8c0.7,5.9,1.7,14.8,3.1,26.6
		C134.1,38.7,139.1,38,145.7,37.2z"/>
	<path d="M157.6,41.8c-0.7-7-1.9-17.4-3.7-31.3c1.4-0.3,5-0.7,10.7-1.4l0.2,1.8l3.1-0.3c0.5,4,1.2,10.1,2.1,18.2l4.8-0.7l0.4,1.8
		l2.9-0.3c1.3,4.7,2.1,8.4,2.4,11.2c-4.4,0.4-10.9,1.3-19.6,2.6l-0.3-2L157.6,41.8z M174.5,37.2c-0.4-1.9-0.8-4-1.5-6.5
		c-1.8,0.2-4.6,0.6-8.3,1.1c-0.1-1.6-0.8-8.2-2.2-20c-1.4,0.1-3.4,0.4-6.1,0.8c0.7,5.9,1.7,14.8,3.1,26.6
		C162.9,38.7,167.9,38,174.5,37.2z"/>
</g>
</svg>
