<svg width="20" height="20" viewBox="0 0 20 20" fill="none" xmlns="http://www.w3.org/2000/svg">
<path fill-rule="evenodd" clip-rule="evenodd" d="M7.77179 12.5829C10.4289 12.5829 12.5829 10.4289 12.5829 7.77178C12.5829 5.11468 10.4289 2.96068 7.77179 2.96068C5.11469 2.96068 2.96068 5.11468 2.96068 7.77178C2.96068 10.4289 5.11469 12.5829 7.77179 12.5829ZM7.77179 15.5436C12.064 15.5436 15.5436 12.064 15.5436 7.77178C15.5436 3.47955 12.064 0 7.77179 0C3.47955 0 0 3.47955 0 7.77178C0 12.064 3.47955 15.5436 7.77179 15.5436Z" fill="#767676"/>
<path d="M11.1026 12.6727L12.6727 11.1026L17.5252 15.955L15.955 17.5252L11.1026 12.6727Z" fill="#767676"/>
</svg>
