<?xml version="1.0" encoding="utf-8"?>
<!-- Generator: Adobe Illustrator 22.1.0, SVG Export Plug-In . SVG Version: 6.00 Build 0)  -->
<svg version="1.1" id="Слой_1" xmlns="http://www.w3.org/2000/svg" xmlns:xlink="http://www.w3.org/1999/xlink" x="0px" y="0px"
	 viewBox="0 0 30 30" style="enable-background:new 0 0 30 30;" xml:space="preserve">
<style type="text/css">
	.st0{fill:#F6C346;}
	.st1{fill:#EA6063;}
	.st2{fill:#FFFFFF;}
	.st3{fill:#2C2F38;}
</style>
<g>
	<g id="a">
		<path class="st0" d="M22.9,16.3c-0.6-1.1-1.5-2.1-2.9-2.8c-0.1-0.1-0.2-0.2-0.1-0.4c0.7-0.7,2.9-3.2,2.9-5.3c0-3.3-3-6.1-6.8-6.1
			c-3.7,0-6.8,2.7-6.8,6.1c0,3.3,3.1,5,3.6,5.4c0.1,0,0.1,0.1,0.1,0.2c0,0.6-0.2,3.2-3.4,2.2c-0.9-0.3-1.6-0.7-2.3-1.3l-3.7-3.3
			c-0.3-0.3-0.8-0.2-1,0.1c-0.8,1-2.4,3.3-2,6.6c0,0,0.2,8.9,7.1,10.8c0.7,0.2,1.5,0.3,2.3,0.3h4.2c1.8,0,3.5-0.5,4.9-1.3l0.2-0.1
			C23.5,24.9,25.1,20.2,22.9,16.3z"/>
		<path class="st1" d="M29.1,7.3h-6.6c0,0.2,0,0.4,0,0.6c0,1.3-0.9,2.8-1.7,3.9h3.7c0.6,0,1.2-0.1,1.6-0.4c1.6-0.9,2.8-2.8,3.2-3.6
			C29.5,7.5,29.3,7.3,29.1,7.3L29.1,7.3z"/>
		<ellipse class="st2" cx="17.1" cy="6.8" rx="2.4" ry="2.2"/>
		<ellipse class="st3" cx="18.4" cy="7.3" rx="1.2" ry="1.1"/>
		<path class="st1" d="M12.5,18.3c4.2-1.9,4.7,2.3,4.7,2.3c0,4.8-4.3,4.4-4.3,4.4c-3.7,0-5.5-3.4-6-4.6c-0.1-0.2,0-0.4,0.3-0.4
			l0.2,0C9.1,19.5,10.8,19,12.5,18.3L12.5,18.3z"/>
	</g>
</g>
</svg>
