<?xml version="1.0" encoding="utf-8"?>
<!-- Generator: Adobe Illustrator 22.1.0, SVG Export Plug-In . SVG Version: 6.00 Build 0)  -->
<svg version="1.1" id="Слой_1" xmlns="http://www.w3.org/2000/svg" xmlns:xlink="http://www.w3.org/1999/xlink" x="0px" y="0px"
	 viewBox="0 0 28 28" style="enable-background:new 0 0 28 28;" xml:space="preserve">
<style type="text/css">
	.st0{fill:#A5694B;}
	.st1{fill:#925F4A;}
	.st2{fill:#B97850;}
	.st3{fill:#FFE678;}
	.st4{fill:#FFC855;}
	.st5{fill:#6E4141;}
	.st6{fill:#784B46;}
	.st7{fill:#A0786E;}
</style>
<g>
	<g id="a">
		<ellipse class="st0" cx="5" cy="6.9" rx="5" ry="5"/>
		<circle class="st1" cx="4.5" cy="6.4" r="3.5"/>
		<circle class="st0" cx="23" cy="6.9" r="5"/>
		<ellipse class="st1" cx="23.5" cy="6.4" rx="3.5" ry="3.5"/>
		<ellipse class="st2" cx="13.5" cy="15.4" rx="12.5" ry="12.5"/>
		<path class="st0" d="M5.5,15.4C5.5,9.2,10,4.1,16,3.1c-0.7-0.1-1.5-0.2-2.3-0.2C6.7,2.9,1,8.5,1,15.4s5.7,12.5,12.8,12.5
			c0.8,0,1.5-0.1,2.3-0.2C10,26.6,5.5,21.5,5.5,15.4z"/>
		<ellipse class="st3" cx="13.5" cy="21.9" rx="5.5" ry="5"/>
		<path class="st4" d="M9.8,21.9c0-2.5,1.8-4.5,4.2-4.9c-0.3-0.1-0.6-0.1-0.9-0.1c-2.8,0-5.1,2.2-5.1,5s2.3,5,5.1,5
			c0.3,0,0.6,0,0.9-0.1C11.6,26.4,9.8,24.3,9.8,21.9z"/>
		<g>
			<path class="st5" d="M9,16.9c-0.6,0-1-0.5-1-1.1V15c0-0.6,0.4-1.1,1-1.1s1,0.5,1,1.1v0.8C10,16.4,9.6,16.9,9,16.9z M20,16.9
				c-0.6,0-1-0.5-1-1.1V15c0-0.6,0.4-1.1,1-1.1s1,0.5,1,1.1v0.8C21,16.4,20.6,16.9,20,16.9z"/>
		</g>
		<path class="st1" d="M16.8,22c-0.3-0.3-0.7-0.3-1,0c-0.6,0.7-1.3,0.5-1.6,0.2v-2.6c0-0.4-0.3-0.7-0.7-0.7s-0.7,0.3-0.7,0.7v2.6
			c-0.3,0.2-0.9,0.4-1.6-0.2c-0.3-0.3-0.7-0.3-1,0c-0.3,0.3-0.3,0.8,0,1c0.6,0.6,1.3,0.9,1.9,0.9c0.5,0,1-0.2,1.4-0.4
			c0.4,0.2,0.9,0.4,1.4,0.4c0.6,0,1.3-0.2,1.9-0.9C17.1,22.7,17.1,22.2,16.8,22L16.8,22z"/>
		<ellipse class="st6" cx="14" cy="18.4" rx="3" ry="1.5"/>
		<path class="st5" d="M12.2,18.4c0-0.7,0.8-1.3,1.8-1.4c-0.2,0-0.4-0.1-0.6-0.1c-1.3,0-2.4,0.7-2.4,1.5s1.1,1.5,2.4,1.5
			c0.2,0,0.4,0,0.6-0.1C13,19.7,12.2,19.1,12.2,18.4z"/>
		<ellipse class="st7" cx="15.5" cy="17.4" rx="0.5" ry="0.5"/>
	</g>
</g>
</svg>
