<?xml version="1.0" encoding="utf-8"?>
<!-- Generator: Adobe Illustrator 22.1.0, SVG Export Plug-In . SVG Version: 6.00 Build 0)  -->
<svg version="1.1" id="Слой_1" xmlns="http://www.w3.org/2000/svg" xmlns:xlink="http://www.w3.org/1999/xlink" x="0px" y="0px"
	 viewBox="0 0 26 26" style="enable-background:new 0 0 26 26;" xml:space="preserve">
<style type="text/css">
	.st0{fill:#EA6063;}
	.st1{fill:#FFD80F;}
	.st2{fill:#F18D46;}
	.st3{fill:#FCC7A2;}
</style>
<g>
	<g id="a">
		<circle class="st0" cx="13" cy="13" r="13"/>
		<path class="st1" d="M21.2,2.9c-0.8-0.7-1.7-1.2-2.7-1.7c-4.2,1-8.2,3.3-11.5,6.6c-2.9,2.9-4.9,6.2-6.1,9.8
			c0.5,1.2,1.1,2.3,1.8,3.3c1.9-3.3,4.5-6.7,7.6-9.8C13.8,7.7,17.6,4.8,21.2,2.9L21.2,2.9z"/>
		<path class="st2" d="M24.8,7.5C24.9,7.7,25,8,25.1,8.2C25,8,24.9,7.7,24.8,7.5L24.8,7.5z M22.3,4c0.3,0.3,0.5,0.5,0.7,0.8
			C22.8,4.5,22.6,4.2,22.3,4z M21.2,2.9c0.3,0.2,0.6,0.5,0.8,0.7C21.8,3.4,21.5,3.2,21.2,2.9z"/>
		<path class="st1" d="M23.1,4.8c-1.9,3.6-4.7,7.4-8.2,10.9c-3.1,3.1-6.5,5.7-9.8,7.6c1,0.8,2.1,1.4,3.3,1.8c3.6-1.2,7-3.3,9.8-6.1
			c3.3-3.3,5.6-7.3,6.6-11.5C24.3,6.5,23.7,5.6,23.1,4.8L23.1,4.8z"/>
		<path class="st2" d="M17.8,0.9C18,1,18.3,1.1,18.5,1.2C18.3,1.1,18,1,17.8,0.9z"/>
		<path class="st3" d="M17.7,0.9l0.1,0L17.7,0.9z M25.1,8.2l0,0.1L25.1,8.2z"/>
	</g>
</g>
</svg>
