<?xml version="1.0" standalone="no"?>
<!DOCTYPE svg PUBLIC "-//W3C//DTD SVG 1.1//EN" "http://www.w3.org/Graphics/SVG/1.1/DTD/svg11.dtd" >
<svg xmlns="http://www.w3.org/2000/svg" xmlns:xlink="http://www.w3.org/1999/xlink" version="1.1">
<metadata>
Created by FontForge 20161116 at Fri Mar 13 14:23:25 2015
 By Jimmy Wärting
Copyright \302\251 2014 by Fontfabric. All rights reserved.
</metadata>
<defs>
<font id="MullerBlack" horiz-adv-x="595" >
  <font-face 
    font-family="Muller Black"
    font-weight="900"
    font-stretch="normal"
    units-per-em="1000"
    panose-1="0 0 0 0 0 0 0 0 0 0"
    ascent="780"
    descent="-220"
    x-height="480"
    cap-height="700"
    bbox="-165 -318 1378 986"
    underline-thickness="50"
    underline-position="-125"
    stemh="155"
    stemv="217"
    unicode-range="U+0020-25CA"
  />
<missing-glyph horiz-adv-x="182" 
 />
    <glyph glyph-name="f_f" unicode="ff" horiz-adv-x="769" 
d="M771 551c-17 10 -39 15 -60 15c-31 0 -59 -14 -59 -50v-36h105v-168h-105v-312h-211v312h-138v-312h-211v312h-68v168h68v23c0 142 106 205 228 205c52 0 109 -9 164 -35c42 48 108 63 171 63c44 0 86 -7 116 -17v-168zM303 480h139v30v22c-20 11 -45 17 -70 17
c-41 0 -69 -20 -69 -55v-14z" />
    <glyph glyph-name="f_f_i" unicode="ffi" horiz-adv-x="1031" 
d="M303 0h-211v312h-68v168h68v23c0 142 106 205 228 205c56 0 117 -11 179 -40c47 46 120 68 204 68c60 0 127 -12 193 -33v-164c-54 18 -106 27 -148 27c-57 0 -96 -20 -96 -65v-21h338v-480h-210v312h-128v-312h-211v312h-138v-312zM303 494v-14h139v28v25
c-22 11 -47 16 -73 16c-39 0 -66 -20 -66 -55z" />
    <glyph glyph-name="f_f_l" unicode="ffl" horiz-adv-x="1045" 
d="M669 731c55 0 105 -10 154 -27l181 20v-724h-211v548c-22 8 -46 13 -68 12c-41 0 -73 -17 -73 -61v-19h89v-168h-89v-312h-211v312h-138v-312h-211v312h-68v168h68v23c0 142 106 205 228 205c55 0 116 -11 178 -40c41 42 103 63 171 63zM442 480v29v24
c-22 11 -47 16 -73 16c-39 0 -66 -20 -66 -55v-14h139z" />
    <glyph glyph-name=".notdef" horiz-adv-x="182" 
 />
    <glyph glyph-name="Aacute" unicode="&#xc1;" horiz-adv-x="765" 
d="M231 0h-234l262 700h248l261 -700h-234l-30 93h-242zM364 409l-49 -149h137l-49 149c-8 26 -15 54 -20 90c-5 -36 -12 -64 -19 -90zM453 752h-183l98 164h207z" />
    <glyph glyph-name="Abreve" unicode="&#x102;" horiz-adv-x="765" 
d="M231 0h-234l262 700h248l261 -700h-234l-30 93h-242zM364 409l-49 -149h137l-49 149c-8 26 -15 54 -20 90c-5 -36 -12 -64 -19 -90zM565 792c-50 -33 -110 -51 -181 -51s-131 18 -181 51v143c54 -33 116 -46 181 -46c64 0 127 13 181 46v-143z" />
    <glyph glyph-name="Acircumflex" unicode="&#xc2;" horiz-adv-x="765" 
d="M231 0h-234l262 700h248l261 -700h-234l-30 93h-242zM364 409l-49 -149h137l-49 149c-8 26 -15 54 -20 90c-5 -36 -12 -64 -19 -90zM290 918h185l128 -171h-175l-45 57l-45 -57h-176z" />
    <glyph glyph-name="Adieresis" unicode="&#xc4;" horiz-adv-x="765" 
d="M231 0h-234l262 700h248l261 -700h-234l-30 93h-242zM364 409l-49 -149h137l-49 149c-8 26 -15 54 -20 90c-5 -36 -12 -64 -19 -90zM596 834c0 -58 -42 -96 -97 -96c-54 0 -96 38 -96 96s42 96 96 96c55 0 97 -38 97 -96zM365 834c0 -58 -42 -96 -97 -96
c-54 0 -96 38 -96 96s42 96 96 96c55 0 97 -38 97 -96z" />
    <glyph glyph-name="Agrave" unicode="&#xc0;" horiz-adv-x="765" 
d="M231 0h-234l262 700h248l261 -700h-234l-30 93h-242zM364 409l-49 -149h137l-49 149c-8 26 -15 54 -20 90c-5 -36 -12 -64 -19 -90zM496 752h-183l-122 164h206z" />
    <glyph glyph-name="Amacron" unicode="&#x100;" horiz-adv-x="765" 
d="M231 0h-234l262 700h248l261 -700h-234l-30 93h-242zM364 409l-49 -149h137l-49 149c-8 26 -15 54 -20 90c-5 -36 -12 -64 -19 -90zM203 898h363v-145h-363v145z" />
    <glyph glyph-name="Aogonek" unicode="&#x104;" horiz-adv-x="765" 
d="M768 0c-37 -26 -55 -56 -55 -75c0 -16 10 -24 26 -24c8 1 16 3 24 7v-120c-29 -16 -66 -25 -101 -24c-77 1 -136 39 -136 107c1 45 28 94 81 129h-73l-30 93h-242l-31 -93h-234l262 700h248zM364 409l-49 -149h137l-49 149c-8 26 -15 54 -20 90c-5 -36 -12 -64 -19 -90z
" />
    <glyph glyph-name="Aring" unicode="&#xc5;" horiz-adv-x="765" 
d="M231 0h-234l262 700h248l261 -700h-234l-30 93h-242zM364 409l-49 -149h137l-49 149c-8 26 -15 54 -20 90c-5 -36 -12 -64 -19 -90zM527 857c0 -87 -64 -132 -142 -132c-75 0 -141 45 -141 132c0 82 66 129 141 129c78 0 142 -47 142 -129zM352 856c0 -19 11 -35 34 -35
s34 16 34 35s-11 34 -34 34s-34 -15 -34 -34z" />
    <glyph glyph-name="Atilde" unicode="&#xc3;" horiz-adv-x="765" 
d="M231 0h-234l262 700h248l261 -700h-234l-30 93h-242zM364 409l-49 -149h137l-49 149c-8 26 -15 54 -20 90c-5 -36 -12 -64 -19 -90zM583 914c26 -98 -26 -180 -114 -180c-67 0 -107 42 -136 42c-21 0 -23 -23 -19 -36h-133c-26 98 25 180 114 180c66 0 107 -42 135 -42
c22 0 23 23 20 36h133z" />
    <glyph glyph-name="AE" unicode="&#xc6;" horiz-adv-x="1028" 
d="M715 267v-83h280v-184h-505v95h-215l-57 -95h-233l429 700h575v-182h-274v-81h238v-170h-238zM370 260h121v206z" />
    <glyph glyph-name="B" unicode="B" horiz-adv-x="700" 
d="M53 700h350c158 0 248 -55 248 -177c0 -72 -28 -123 -100 -151c82 -25 128 -82 128 -172c0 -159 -138 -200 -285 -200h-341v700zM449 227c0 37 -23 57 -67 57h-98v-114h98c44 0 67 20 67 57zM429 478c0 29 -19 52 -58 52h-87v-103l87 -1c39 0 58 24 58 52z" />
    <glyph glyph-name="C" unicode="C" horiz-adv-x="650" 
d="M25 343c-1 266 191 373 383 373c72 0 144 -14 206 -42v-206c-39 27 -103 48 -165 48c-96 0 -187 -48 -187 -173c0 -110 90 -156 182 -156c72 0 139 18 175 50v-211c-62 -28 -131 -42 -205 -42c-198 0 -389 104 -389 359z" />
    <glyph glyph-name="Cacute" unicode="&#x106;" horiz-adv-x="650" 
d="M25 343c-1 266 191 373 383 373c72 0 144 -14 206 -42v-206c-39 27 -103 48 -165 48c-96 0 -187 -48 -187 -173c0 -110 90 -156 182 -156c72 0 139 18 175 50v-211c-62 -28 -131 -42 -205 -42c-198 0 -389 104 -389 359zM474 752h-183l98 164h207z" />
    <glyph glyph-name="Ccaron" unicode="&#x10c;" horiz-adv-x="650" 
d="M25 343c-1 266 191 373 383 373c72 0 144 -14 206 -42v-206c-39 27 -103 48 -165 48c-96 0 -187 -48 -187 -173c0 -110 90 -156 182 -156c72 0 139 18 175 50v-211c-62 -28 -131 -42 -205 -42c-198 0 -389 104 -389 359zM627 923l-132 -171h-185l-132 171h175l49 -61
l50 61h175z" />
    <glyph glyph-name="Ccedilla" unicode="&#xc7;" horiz-adv-x="651" 
d="M619 237v-211c-42 -19 -87 -32 -134 -38l-10 -31c58 -8 92 -36 92 -90c0 -75 -78 -104 -158 -104c-44 0 -82 5 -117 19v105c24 -10 53 -15 78 -15c32 0 57 7 57 25c0 25 -49 28 -88 24l19 65c-177 19 -333 127 -333 357c-1 266 191 373 383 373c72 0 144 -14 206 -42
v-206c-39 27 -103 48 -165 48c-96 0 -187 -48 -187 -173c0 -110 90 -156 182 -156c72 0 139 18 175 50z" />
    <glyph glyph-name="Cdotaccent" unicode="&#x10a;" horiz-adv-x="650" 
d="M25 343c-1 266 191 373 383 373c72 0 144 -14 206 -42v-206c-39 27 -103 48 -165 48c-96 0 -187 -48 -187 -173c0 -110 90 -156 182 -156c72 0 139 18 175 50v-211c-62 -28 -131 -42 -205 -42c-198 0 -389 104 -389 359zM304 839c0 68 48 98 102 98c55 0 102 -30 102 -98
c0 -69 -47 -99 -102 -99c-54 0 -102 30 -102 99z" />
    <glyph glyph-name="D" unicode="D" horiz-adv-x="744" 
d="M53 700h302c251 0 363 -145 363 -350s-112 -350 -363 -350h-302v700zM481 350c0 114 -50 156 -132 156h-65v-312h65c82 0 132 42 132 156z" />
    <glyph glyph-name="Eth" unicode="&#xd0;" horiz-adv-x="759" 
d="M67 700h302c251 0 364 -145 364 -350s-113 -350 -364 -350h-302v281h-59v136h59v283zM298 194h65c82 0 132 42 132 156s-50 156 -132 156h-65v-89h101v-136h-101v-87z" />
    <glyph glyph-name="Dcaron" unicode="&#x10e;" horiz-adv-x="744" 
d="M53 700h302c251 0 363 -145 363 -350s-112 -350 -363 -350h-302v700zM481 350c0 114 -50 156 -132 156h-65v-312h65c82 0 132 42 132 156zM578 923l-132 -171h-185l-132 171h175l49 -61l50 61h175z" />
    <glyph glyph-name="Dcroat" unicode="&#x110;" horiz-adv-x="759" 
d="M67 700h302c251 0 364 -145 364 -350s-113 -350 -364 -350h-302v281h-59v136h59v283zM298 194h65c82 0 132 42 132 156s-50 156 -132 156h-65v-89h101v-136h-101v-87z" />
    <glyph glyph-name="E" unicode="E" horiz-adv-x="622" 
d="M53 700h530v-182h-299v-81h263v-170h-263v-83h305v-184h-536v700z" />
    <glyph glyph-name="Eacute" unicode="&#xc9;" horiz-adv-x="622" 
d="M53 700h530v-182h-299v-81h263v-170h-263v-83h305v-184h-536v700zM390 752h-183l98 164h207z" />
    <glyph glyph-name="Ecaron" unicode="&#x11a;" horiz-adv-x="622" 
d="M53 700h530v-182h-299v-81h263v-170h-263v-83h305v-184h-536v700zM543 923l-132 -171h-185l-132 171h175l49 -61l50 61h175z" />
    <glyph glyph-name="Ecircumflex" unicode="&#xca;" horiz-adv-x="622" 
d="M53 700h530v-182h-299v-81h263v-170h-263v-83h305v-184h-536v700zM227 918h185l128 -171h-175l-45 57l-45 -57h-176z" />
    <glyph glyph-name="Edieresis" unicode="&#xcb;" horiz-adv-x="622" 
d="M53 700h530v-182h-299v-81h263v-170h-263v-83h305v-184h-536v700zM533 834c0 -58 -42 -96 -97 -96c-54 0 -96 38 -96 96s42 96 96 96c55 0 97 -38 97 -96zM302 834c0 -58 -42 -96 -97 -96c-54 0 -96 38 -96 96s42 96 96 96c55 0 97 -38 97 -96z" />
    <glyph glyph-name="Edotaccent" unicode="&#x116;" horiz-adv-x="622" 
d="M53 700h530v-182h-299v-81h263v-170h-263v-83h305v-184h-536v700zM220 839c0 68 48 98 102 98c55 0 102 -30 102 -98c0 -69 -47 -99 -102 -99c-54 0 -102 30 -102 99z" />
    <glyph glyph-name="Egrave" unicode="&#xc8;" horiz-adv-x="622" 
d="M53 700h530v-182h-299v-81h263v-170h-263v-83h305v-184h-536v700zM433 752h-183l-122 164h206z" />
    <glyph glyph-name="Emacron" unicode="&#x112;" horiz-adv-x="622" 
d="M53 700h530v-182h-299v-81h263v-170h-263v-83h305v-184h-536v700zM140 898h363v-145h-363v145z" />
    <glyph glyph-name="Eogonek" unicode="&#x118;" horiz-adv-x="622" 
d="M589 184v-184c-37 -27 -55 -57 -55 -76c0 -16 10 -23 26 -23c8 0 17 2 24 5v-124c-28 -12 -64 -18 -97 -18c-87 0 -128 48 -127 105c0 46 33 97 80 131h-387v700h530v-182h-299v-81h263v-170h-263v-83h305z" />
    <glyph glyph-name="F" unicode="F" horiz-adv-x="602" 
d="M53 700h519v-202h-288v-86h259v-196h-259v-216h-231v700z" />
    <glyph glyph-name="G" unicode="G" horiz-adv-x="694" 
d="M24 350c0 257 191 366 387 366c82 0 162 -16 226 -42v-206c-48 30 -121 47 -184 47c-102 0 -192 -46 -192 -165c0 -132 98 -160 149 -160c11 0 20 1 28 2v199h216v-360c-76 -30 -158 -47 -238 -47c-202 0 -392 117 -392 366z" />
    <glyph glyph-name="Gbreve" unicode="&#x11e;" horiz-adv-x="694" 
d="M24 350c0 257 191 366 387 366c82 0 162 -16 226 -42v-206c-48 30 -121 47 -184 47c-102 0 -192 -46 -192 -165c0 -132 98 -160 149 -160c11 0 20 1 28 2v199h216v-360c-76 -30 -158 -47 -238 -47c-202 0 -392 117 -392 366zM570 792c-50 -33 -110 -51 -181 -51
s-131 18 -181 51v143c54 -33 116 -46 181 -46c64 0 127 13 181 46v-143z" />
    <glyph glyph-name="Gcommaaccent" unicode="&#x122;" horiz-adv-x="694" 
d="M24 350c0 257 191 366 387 366c82 0 162 -16 226 -42v-206c-48 30 -121 47 -184 47c-102 0 -192 -46 -192 -165c0 -132 98 -160 149 -160c11 0 20 1 28 2v199h216v-360c-76 -30 -158 -47 -238 -47c-202 0 -392 117 -392 366zM437 -318h-162l40 254h191z" />
    <glyph glyph-name="Gdotaccent" unicode="&#x120;" horiz-adv-x="694" 
d="M24 350c0 257 191 366 387 366c82 0 162 -16 226 -42v-206c-48 30 -121 47 -184 47c-102 0 -192 -46 -192 -165c0 -132 98 -160 149 -160c11 0 20 1 28 2v199h216v-360c-76 -30 -158 -47 -238 -47c-202 0 -392 117 -392 366zM288 839c0 68 48 98 102 98
c55 0 102 -30 102 -98c0 -69 -47 -99 -102 -99c-54 0 -102 30 -102 99z" />
    <glyph glyph-name="H" unicode="H" horiz-adv-x="757" 
d="M474 700h230v-700h-230v249h-190v-249h-231v700h231v-249h190v249z" />
    <glyph glyph-name="Hbar" unicode="&#x126;" horiz-adv-x="791" 
d="M300 0h-230v517h-66v105h66v78h230v-78h190v78h231v-78h66v-105h-66v-517h-231v253h-190v-253zM300 517v-71h190v71h-190z" />
    <glyph glyph-name="I" unicode="I" horiz-adv-x="337" 
d="M53 700h231v-700h-231v700z" />
    <glyph glyph-name="IJ" unicode="&#x132;" horiz-adv-x="856" 
d="M53 700h231v-700h-231v700zM417 700h392v-457c0 -197 -139 -255 -275 -255c-69 0 -138 12 -182 30v204c34 -15 81 -25 121 -25c54 0 105 16 105 75v226h-161v202z" />
    <glyph glyph-name="Iacute" unicode="&#xcd;" horiz-adv-x="337" 
d="M53 700h231v-700h-231v700zM238 752h-183l98 164h207z" />
    <glyph glyph-name="Icircumflex" unicode="&#xce;" horiz-adv-x="337" 
d="M53 700h231v-700h-231v700zM75 918h185l128 -171h-175l-45 57l-45 -57h-176z" />
    <glyph glyph-name="Idieresis" unicode="&#xcf;" horiz-adv-x="337" 
d="M53 700h231v-700h-231v700zM381 834c0 -58 -42 -96 -97 -96c-54 0 -96 38 -96 96s42 96 96 96c55 0 97 -38 97 -96zM150 834c0 -58 -42 -96 -97 -96c-54 0 -96 38 -96 96s42 96 96 96c55 0 97 -38 97 -96z" />
    <glyph glyph-name="Idotaccent" unicode="&#x130;" horiz-adv-x="337" 
d="M53 700h231v-700h-231v700zM68 839c0 68 48 98 102 98c55 0 102 -30 102 -98c0 -69 -47 -99 -102 -99c-54 0 -102 30 -102 99z" />
    <glyph glyph-name="Igrave" unicode="&#xcc;" horiz-adv-x="337" 
d="M53 700h231v-700h-231v700zM281 752h-183l-122 164h206z" />
    <glyph glyph-name="Imacron" unicode="&#x12a;" horiz-adv-x="337" 
d="M53 700h231v-700h-231v700zM-12 898h363v-145h-363v145z" />
    <glyph glyph-name="Iogonek" unicode="&#x12e;" horiz-adv-x="337" 
d="M284 700v-700c-37 -27 -55 -57 -55 -76c0 -16 10 -23 26 -23c8 0 17 2 24 5v-124c-28 -12 -64 -18 -97 -18c-87 0 -128 48 -127 105c0 46 33 97 80 131h-82v700h231z" />
    <glyph glyph-name="J" unicode="J" horiz-adv-x="519" 
d="M80 700h392v-457c0 -197 -139 -255 -275 -255c-69 0 -138 12 -182 30v204c34 -15 81 -25 121 -25c54 0 105 16 105 75v226h-161v202z" />
    <glyph glyph-name="K" unicode="K" horiz-adv-x="728" 
d="M284 0h-231v700h231v-248h58l140 248h254l-213 -347l217 -353h-254l-149 250h-53v-250z" />
    <glyph glyph-name="Kcommaaccent" unicode="&#x136;" horiz-adv-x="728" 
d="M284 0h-231v700h231v-248h58l140 248h254l-213 -347l217 -353h-254l-149 250h-53v-250zM407 -308h-162l40 254h191z" />
    <glyph glyph-name="L" unicode="L" 
d="M53 700h231v-498h299v-202h-530v700z" />
    <glyph glyph-name="Lacute" unicode="&#x139;" 
d="M53 700h231v-498h299v-202h-530v700zM239 752h-183l98 164h207z" />
    <glyph glyph-name="Lcaron" unicode="&#x13d;" horiz-adv-x="598" 
d="M389 700h167l-39 -232h-144zM53 700h231v-498h299v-202h-530v700z" />
    <glyph glyph-name="Lcommaaccent" unicode="&#x13b;" 
d="M53 700h231v-498h299v-202h-530v700zM353 -308h-162l40 254h191z" />
    <glyph glyph-name="Ldot" unicode="&#x13f;" horiz-adv-x="608" 
d="M550 416c0 -69 -49 -101 -105 -101c-55 0 -104 32 -104 101c0 70 49 102 104 102c56 0 105 -32 105 -102zM53 700h231v-498h299v-202h-530v700z" />
    <glyph glyph-name="Lslash" unicode="&#x141;" horiz-adv-x="649" 
d="M637 0h-530v219l-80 -28v186l80 28v295h231v-214l130 47v-186l-130 -47v-98h299v-202z" />
    <glyph glyph-name="M" unicode="M" horiz-adv-x="907" 
d="M649 700h205v-700h-225v320l-115 -178h-121l-115 179v-321h-225v700h205l195 -306z" />
    <glyph glyph-name="N" unicode="N" horiz-adv-x="763" 
d="M284 0h-231v700h195l237 -329c-5 42 -6 82 -6 120v209h231v-700h-195l-237 328c5 -42 6 -81 6 -118v-210z" />
    <glyph glyph-name="Nacute" unicode="&#x143;" horiz-adv-x="763" 
d="M284 0h-231v700h195l237 -329c-5 42 -6 82 -6 120v209h231v-700h-195l-237 328c5 -42 6 -81 6 -118v-210zM446 752h-183l98 164h207z" />
    <glyph glyph-name="Ncaron" unicode="&#x147;" horiz-adv-x="763" 
d="M284 0h-231v700h195l237 -329c-5 42 -6 82 -6 120v209h231v-700h-195l-237 328c5 -42 6 -81 6 -118v-210zM599 923l-132 -171h-185l-132 171h175l49 -61l50 61h175z" />
    <glyph glyph-name="Ncommaaccent" unicode="&#x145;" horiz-adv-x="763" 
d="M284 0h-231v700h195l237 -329c-5 42 -6 82 -6 120v209h231v-700h-195l-237 328c5 -42 6 -81 6 -118v-210zM437 -308h-162l40 254h191z" />
    <glyph glyph-name="Eng" unicode="&#x14a;" horiz-adv-x="763" 
d="M710 -11c0 -140 -77 -221 -207 -221c-24 0 -51 4 -86 11v173c7 -2 17 -4 25 -4c31 0 49 19 49 49v36l-213 295c5 -42 6 -81 6 -118v-210h-231v700h195l237 -329c-5 42 -6 82 -6 120v209h231v-711z" />
    <glyph glyph-name="Ntilde" unicode="&#xd1;" horiz-adv-x="763" 
d="M284 0h-231v700h195l237 -329c-5 42 -6 82 -6 120v209h231v-700h-195l-237 328c5 -42 6 -81 6 -118v-210zM576 914c26 -98 -26 -180 -114 -180c-67 0 -107 42 -136 42c-21 0 -23 -23 -19 -36h-133c-26 98 25 180 114 180c66 0 107 -42 135 -42c22 0 23 23 20 36h133z" />
    <glyph glyph-name="O" unicode="O" horiz-adv-x="806" 
d="M24 350c0 201 127 366 379 366s379 -165 379 -366s-127 -366 -379 -366s-379 165 -379 366zM545 350c0 96 -52 157 -142 157s-142 -61 -142 -157s52 -157 142 -157s142 61 142 157z" />
    <glyph glyph-name="Oacute" unicode="&#xd3;" horiz-adv-x="806" 
d="M24 350c0 201 127 366 379 366s379 -165 379 -366s-127 -366 -379 -366s-379 165 -379 366zM545 350c0 96 -52 157 -142 157s-142 -61 -142 -157s52 -157 142 -157s142 61 142 157zM472 752h-183l98 164h207z" />
    <glyph glyph-name="Ocircumflex" unicode="&#xd4;" horiz-adv-x="806" 
d="M24 350c0 201 127 366 379 366s379 -165 379 -366s-127 -366 -379 -366s-379 165 -379 366zM545 350c0 96 -52 157 -142 157s-142 -61 -142 -157s52 -157 142 -157s142 61 142 157zM309 918h185l128 -171h-175l-45 57l-45 -57h-176z" />
    <glyph glyph-name="Odieresis" unicode="&#xd6;" horiz-adv-x="806" 
d="M24 350c0 201 127 366 379 366s379 -165 379 -366s-127 -366 -379 -366s-379 165 -379 366zM545 350c0 96 -52 157 -142 157s-142 -61 -142 -157s52 -157 142 -157s142 61 142 157zM615 834c0 -58 -42 -96 -97 -96c-54 0 -96 38 -96 96s42 96 96 96c55 0 97 -38 97 -96z
M384 834c0 -58 -42 -96 -97 -96c-54 0 -96 38 -96 96s42 96 96 96c55 0 97 -38 97 -96z" />
    <glyph glyph-name="Ograve" unicode="&#xd2;" horiz-adv-x="806" 
d="M24 350c0 201 127 366 379 366s379 -165 379 -366s-127 -366 -379 -366s-379 165 -379 366zM545 350c0 96 -52 157 -142 157s-142 -61 -142 -157s52 -157 142 -157s142 61 142 157zM515 752h-183l-122 164h206z" />
    <glyph glyph-name="Ohungarumlaut" unicode="&#x150;" horiz-adv-x="806" 
d="M24 350c0 201 127 366 379 366s379 -165 379 -366s-127 -366 -379 -366s-379 165 -379 366zM545 350c0 96 -52 157 -142 157s-142 -61 -142 -157s52 -157 142 -157s142 61 142 157zM581 753h-170l85 168h183zM363 753h-170l77 168h182z" />
    <glyph glyph-name="Omacron" unicode="&#x14c;" horiz-adv-x="806" 
d="M24 350c0 201 127 366 379 366s379 -165 379 -366s-127 -366 -379 -366s-379 165 -379 366zM545 350c0 96 -52 157 -142 157s-142 -61 -142 -157s52 -157 142 -157s142 61 142 157zM222 898h363v-145h-363v145z" />
    <glyph glyph-name="Oslash" unicode="&#xd8;" horiz-adv-x="806" 
d="M743 748l-82 -115c81 -67 121 -169 121 -283c0 -201 -127 -366 -379 -366c-70 0 -130 13 -181 36l-48 -68h-110l82 114c-81 68 -122 170 -122 284c0 201 127 366 379 366c70 0 131 -12 182 -36l48 68h110zM403 507c-90 0 -142 -61 -142 -157c0 -36 8 -67 22 -92l172 241
c-16 5 -33 8 -52 8zM352 202c15 -6 31 -9 50 -9c90 0 142 61 142 157c0 35 -7 66 -22 90z" />
    <glyph glyph-name="Otilde" unicode="&#xd5;" horiz-adv-x="806" 
d="M24 350c0 201 127 366 379 366s379 -165 379 -366s-127 -366 -379 -366s-379 165 -379 366zM545 350c0 96 -52 157 -142 157s-142 -61 -142 -157s52 -157 142 -157s142 61 142 157zM602 914c26 -98 -26 -180 -114 -180c-67 0 -107 42 -136 42c-21 0 -23 -23 -19 -36h-133
c-26 98 25 180 114 180c66 0 107 -42 135 -42c22 0 23 23 20 36h133z" />
    <glyph glyph-name="OE" unicode="&#x152;" horiz-adv-x="1026" 
d="M507 0c-37 -11 -73 -16 -121 -16c-230 0 -362 165 -362 366s132 366 362 366c48 0 83 -5 121 -16h480v-182h-263v-81h227v-170h-227v-83h269v-184h-486zM260 350c0 -113 80 -159 152 -159c32 0 61 6 89 17v284c-28 11 -57 17 -89 17c-72 0 -152 -45 -152 -159z" />
    <glyph glyph-name="P" unicode="P" horiz-adv-x="689" 
d="M53 700h306c178 0 314 -62 314 -259c0 -196 -136 -258 -314 -258h-75v-183h-231v700zM444 441c0 49 -34 69 -87 69h-73v-137h73c53 0 87 20 87 68z" />
    <glyph glyph-name="Thorn" unicode="&#xde;" horiz-adv-x="690" 
d="M284 609h75c178 0 314 -63 314 -259s-136 -258 -314 -259h-75v-91h-231v700h231v-91zM284 282h73c53 0 87 19 87 68s-34 68 -87 68h-73v-136z" />
    <glyph glyph-name="Q" unicode="Q" horiz-adv-x="806" 
d="M782 68l-133 -118l-68 68c-50 -22 -109 -34 -178 -34c-252 0 -379 165 -379 366s127 366 379 366s379 -165 379 -366c0 -82 -21 -158 -63 -219zM255 350c0 -102 58 -162 147 -162c7 0 14 0 20 1l-59 59l115 114l65 -65c5 16 7 34 7 53c0 102 -58 163 -148 163
c-89 0 -147 -61 -147 -163z" />
    <glyph glyph-name="R" unicode="R" horiz-adv-x="729" 
d="M284 0h-231v700h325c149 0 298 -56 298 -247c0 -109 -50 -174 -120 -209l180 -244h-254l-144 207h-54v-207zM284 512v-132h89c45 0 71 27 71 66s-26 66 -71 66h-89z" />
    <glyph glyph-name="Racute" unicode="&#x154;" horiz-adv-x="729" 
d="M284 0h-231v700h325c149 0 298 -56 298 -247c0 -109 -50 -174 -120 -209l180 -244h-254l-144 207h-54v-207zM284 512v-132h89c45 0 71 27 71 66s-26 66 -71 66h-89zM420 752h-183l98 164h207z" />
    <glyph glyph-name="Rcaron" unicode="&#x158;" horiz-adv-x="729" 
d="M284 0h-231v700h325c149 0 298 -56 298 -247c0 -109 -50 -174 -120 -209l180 -244h-254l-144 207h-54v-207zM284 512v-132h89c45 0 71 27 71 66s-26 66 -71 66h-89zM573 923l-132 -171h-185l-132 171h175l49 -61l50 61h175z" />
    <glyph glyph-name="Rcommaaccent" unicode="&#x156;" horiz-adv-x="729" 
d="M284 0h-231v700h325c149 0 298 -56 298 -247c0 -109 -50 -174 -120 -209l180 -244h-254l-144 207h-54v-207zM284 512v-132h89c45 0 71 27 71 66s-26 66 -71 66h-89zM405 -308h-162l40 254h191z" />
    <glyph glyph-name="S" unicode="S" horiz-adv-x="635" 
d="M34 499c0 147 123 217 275 217c91 0 188 -21 257 -58v-200c-68 43 -154 68 -232 67c-47 0 -62 -12 -62 -31c0 -73 340 -40 340 -283c0 -179 -133 -227 -294 -227c-106 0 -201 23 -278 66v209c87 -57 180 -82 255 -82c61 0 79 11 79 34c0 72 -340 44 -340 288z" />
    <glyph glyph-name="Sacute" unicode="&#x15a;" horiz-adv-x="635" 
d="M34 499c0 147 123 217 275 217c91 0 188 -21 257 -58v-200c-68 43 -154 68 -232 67c-47 0 -62 -12 -62 -31c0 -73 340 -40 340 -283c0 -179 -133 -227 -294 -227c-106 0 -201 23 -278 66v209c87 -57 180 -82 255 -82c61 0 79 11 79 34c0 72 -340 44 -340 288zM374 752
h-183l98 164h207z" />
    <glyph glyph-name="Scaron" unicode="&#x160;" horiz-adv-x="635" 
d="M34 499c0 147 123 217 275 217c91 0 188 -21 257 -58v-200c-68 43 -154 68 -232 67c-47 0 -62 -12 -62 -31c0 -73 340 -40 340 -283c0 -179 -133 -227 -294 -227c-106 0 -201 23 -278 66v209c87 -57 180 -82 255 -82c61 0 79 11 79 34c0 72 -340 44 -340 288zM527 923
l-132 -171h-185l-132 171h175l49 -61l50 61h175z" />
    <glyph glyph-name="Scedilla" unicode="&#x15e;" horiz-adv-x="635" 
d="M272 494c0 -73 340 -40 340 -283c0 -151 -95 -209 -222 -223l-10 -31c57 -8 92 -36 92 -90c0 -75 -79 -104 -158 -104c-44 0 -82 5 -118 19v105c24 -10 54 -15 79 -15c32 0 57 7 57 25c0 25 -50 28 -89 24l19 65c-83 7 -159 28 -222 64v209c87 -57 180 -82 255 -82
c61 0 79 11 79 34c0 72 -340 44 -340 288c0 147 123 217 275 217c91 0 188 -21 257 -58v-200c-68 43 -154 68 -232 67c-47 0 -62 -12 -62 -31z" />
    <glyph glyph-name="Scommaaccent" unicode="&#x218;" horiz-adv-x="635" 
d="M34 499c0 147 123 217 275 217c91 0 188 -21 257 -58v-200c-68 43 -154 68 -232 67c-47 0 -62 -12 -62 -31c0 -73 340 -40 340 -283c0 -179 -133 -227 -294 -227c-106 0 -201 23 -278 66v209c87 -57 180 -82 255 -82c61 0 79 11 79 34c0 72 -340 44 -340 288zM353 -308
h-162l40 254h191z" />
    <glyph glyph-name="T" unicode="T" horiz-adv-x="630" 
d="M12 700h606v-202h-188v-498h-230v498h-188v202z" />
    <glyph glyph-name="Tbar" unicode="&#x166;" horiz-adv-x="642" 
d="M436 0h-230v238h-112l1 137h111v123h-188v202h606v-202h-188v-123h112v-137h-112v-238z" />
    <glyph glyph-name="Tcaron" unicode="&#x164;" horiz-adv-x="630" 
d="M12 700h606v-202h-188v-498h-230v498h-188v202zM541 923l-132 -171h-185l-132 171h175l49 -61l50 61h175z" />
    <glyph glyph-name="Tcommaaccent" unicode="&#x162;" horiz-adv-x="630" 
d="M12 700h606v-202h-188v-498h-230v498h-188v202zM348 -308h-162l40 254h191z" />
    <glyph glyph-name="uni021A" unicode="&#x21a;" horiz-adv-x="630" 
d="M12 700h606v-202h-188v-498h-230v498h-188v202zM348 -308h-162l40 254h191z" />
    <glyph glyph-name="U" unicode="U" horiz-adv-x="740" 
d="M465 700h230v-428c0 -216 -159 -288 -325 -288s-325 72 -325 288v428h231v-417c0 -65 34 -92 94 -92c61 0 95 27 95 92v417z" />
    <glyph glyph-name="Uacute" unicode="&#xda;" horiz-adv-x="740" 
d="M465 700h230v-428c0 -216 -159 -288 -325 -288s-325 72 -325 288v428h231v-417c0 -65 34 -92 94 -92c61 0 95 27 95 92v417zM440 752h-183l98 164h207z" />
    <glyph glyph-name="Ucircumflex" unicode="&#xdb;" horiz-adv-x="740" 
d="M465 700h230v-428c0 -216 -159 -288 -325 -288s-325 72 -325 288v428h231v-417c0 -65 34 -92 94 -92c61 0 95 27 95 92v417zM277 918h185l128 -171h-175l-45 57l-45 -57h-176z" />
    <glyph glyph-name="Udieresis" unicode="&#xdc;" horiz-adv-x="740" 
d="M465 700h230v-428c0 -216 -159 -288 -325 -288s-325 72 -325 288v428h231v-417c0 -65 34 -92 94 -92c61 0 95 27 95 92v417zM583 834c0 -58 -42 -96 -97 -96c-54 0 -96 38 -96 96s42 96 96 96c55 0 97 -38 97 -96zM352 834c0 -58 -42 -96 -97 -96c-54 0 -96 38 -96 96
s42 96 96 96c55 0 97 -38 97 -96z" />
    <glyph glyph-name="Ugrave" unicode="&#xd9;" horiz-adv-x="740" 
d="M465 700h230v-428c0 -216 -159 -288 -325 -288s-325 72 -325 288v428h231v-417c0 -65 34 -92 94 -92c61 0 95 27 95 92v417zM483 752h-183l-122 164h206z" />
    <glyph glyph-name="Uhungarumlaut" unicode="&#x170;" horiz-adv-x="740" 
d="M465 700h230v-428c0 -216 -159 -288 -325 -288s-325 72 -325 288v428h231v-417c0 -65 34 -92 94 -92c61 0 95 27 95 92v417zM549 753h-170l85 168h183zM331 753h-170l77 168h182z" />
    <glyph glyph-name="Umacron" unicode="&#x16a;" horiz-adv-x="740" 
d="M465 700h230v-428c0 -216 -159 -288 -325 -288s-325 72 -325 288v428h231v-417c0 -65 34 -92 94 -92c61 0 95 27 95 92v417zM190 898h363v-145h-363v145z" />
    <glyph glyph-name="Uogonek" unicode="&#x172;" horiz-adv-x="741" 
d="M573 -213c-28 -16 -64 -23 -97 -23c-88 0 -133 48 -133 108c1 36 18 76 49 112h-21c-166 0 -325 72 -325 288v428h231v-417c0 -65 34 -92 94 -92c61 0 95 27 95 92v417h230v-428c0 -104 -36 -175 -94 -220c-69 -54 -86 -100 -86 -121c0 -18 13 -26 29 -26c9 0 19 2 28 6
v-124z" />
    <glyph glyph-name="Uring" unicode="&#x16e;" horiz-adv-x="740" 
d="M465 700h230v-428c0 -216 -159 -288 -325 -288s-325 72 -325 288v428h231v-417c0 -65 34 -92 94 -92c61 0 95 27 95 92v417zM514 857c0 -87 -64 -132 -142 -132c-75 0 -141 45 -141 132c0 82 66 129 141 129c78 0 142 -47 142 -129zM339 856c0 -19 11 -35 34 -35
s34 16 34 35s-11 34 -34 34s-34 -15 -34 -34z" />
    <glyph glyph-name="V" unicode="V" horiz-adv-x="745" 
d="M491 0h-236l-257 700h245l130 -429l129 429h245z" />
    <glyph glyph-name="W" unicode="W" horiz-adv-x="1112" 
d="M859 700h249l-211 -700h-248l-93 353l-92 -353h-249l-211 700h248l100 -422l109 422h190l108 -422z" />
    <glyph glyph-name="Wacute" unicode="&#x1e82;" horiz-adv-x="1112" 
d="M859 700h249l-211 -700h-248l-93 353l-92 -353h-249l-211 700h248l100 -422l109 422h190l108 -422zM624 752h-183l98 164h207z" />
    <glyph glyph-name="Wcircumflex" unicode="&#x174;" horiz-adv-x="1112" 
d="M859 700h249l-211 -700h-248l-93 353l-92 -353h-249l-211 700h248l100 -422l109 422h190l108 -422zM461 918h185l128 -171h-175l-45 57l-45 -57h-176z" />
    <glyph glyph-name="Wdieresis" unicode="&#x1e84;" horiz-adv-x="1112" 
d="M859 700h249l-211 -700h-248l-93 353l-92 -353h-249l-211 700h248l100 -422l109 422h190l108 -422zM767 834c0 -58 -42 -96 -97 -96c-54 0 -96 38 -96 96s42 96 96 96c55 0 97 -38 97 -96zM536 834c0 -58 -42 -96 -97 -96c-54 0 -96 38 -96 96s42 96 96 96
c55 0 97 -38 97 -96z" />
    <glyph glyph-name="Wgrave" unicode="&#x1e80;" horiz-adv-x="1112" 
d="M859 700h249l-211 -700h-248l-93 353l-92 -353h-249l-211 700h248l100 -422l109 422h190l108 -422zM667 752h-183l-122 164h206z" />
    <glyph glyph-name="X" unicode="X" horiz-adv-x="731" 
d="M250 0h-269l240 361l-228 339h269l104 -181l103 181h269l-228 -339l240 -361h-269l-115 197z" />
    <glyph glyph-name="Y" unicode="Y" horiz-adv-x="753" 
d="M491 0h-229v239l-266 461h261l120 -265l120 265h261l-267 -461v-239z" />
    <glyph glyph-name="Yacute" unicode="&#xdd;" horiz-adv-x="753" 
d="M491 0h-229v239l-266 461h261l120 -265l120 265h261l-267 -461v-239zM442 752h-183l98 164h207z" />
    <glyph glyph-name="Ycircumflex" unicode="&#x176;" horiz-adv-x="753" 
d="M491 0h-229v239l-266 461h261l120 -265l120 265h261l-267 -461v-239zM279 918h185l128 -171h-175l-45 57l-45 -57h-176z" />
    <glyph glyph-name="Ydieresis" unicode="&#x178;" horiz-adv-x="753" 
d="M491 0h-229v239l-266 461h261l120 -265l120 265h261l-267 -461v-239zM585 834c0 -58 -42 -96 -97 -96c-54 0 -96 38 -96 96s42 96 96 96c55 0 97 -38 97 -96zM354 834c0 -58 -42 -96 -97 -96c-54 0 -96 38 -96 96s42 96 96 96c55 0 97 -38 97 -96z" />
    <glyph glyph-name="Ygrave" unicode="&#x1ef2;" horiz-adv-x="753" 
d="M491 0h-229v239l-266 461h261l120 -265l120 265h261l-267 -461v-239zM485 752h-183l-122 164h206z" />
    <glyph glyph-name="Z" unicode="Z" horiz-adv-x="646" 
d="M616 0h-589v147l260 351h-244v202h561v-147l-260 -351h272v-202z" />
    <glyph glyph-name="Zacute" unicode="&#x179;" horiz-adv-x="646" 
d="M616 0h-589v147l260 351h-244v202h561v-147l-260 -351h272v-202zM395 752h-183l98 164h207z" />
    <glyph glyph-name="Zcaron" unicode="&#x17d;" horiz-adv-x="646" 
d="M616 0h-589v147l260 351h-244v202h561v-147l-260 -351h272v-202zM548 923l-132 -171h-185l-132 171h175l49 -61l50 61h175z" />
    <glyph glyph-name="Zdotaccent" unicode="&#x17b;" horiz-adv-x="646" 
d="M616 0h-589v147l260 351h-244v202h561v-147l-260 -351h272v-202zM225 839c0 68 48 98 102 98c55 0 102 -30 102 -98c0 -69 -47 -99 -102 -99c-54 0 -102 30 -102 99z" />
    <glyph glyph-name="a" unicode="a" horiz-adv-x="575" 
d="M524 152c0 -19 12 -26 28 -26c6 0 13 1 19 2v-123c-26 -11 -71 -18 -106 -18c-52 0 -95 16 -120 51c-43 -35 -94 -54 -160 -54c-90 0 -167 49 -167 145c0 122 112 156 211 156c27 0 67 -3 95 -9v11c0 34 -29 53 -95 53c-60 0 -118 -14 -173 -34v158c47 14 127 32 197 32
c165 0 271 -47 271 -233v-111zM282 189c-29 0 -60 -11 -60 -43c0 -24 21 -38 47 -38c20 0 38 5 55 16v59c-11 4 -26 6 -42 6z" />
    <glyph glyph-name="aacute" unicode="&#xe1;" horiz-adv-x="575" 
d="M524 152c0 -19 12 -26 28 -26c6 0 13 1 19 2v-123c-26 -11 -71 -18 -106 -18c-52 0 -95 16 -120 51c-43 -35 -94 -54 -160 -54c-90 0 -167 49 -167 145c0 122 112 156 211 156c27 0 67 -3 95 -9v11c0 34 -29 53 -95 53c-60 0 -118 -14 -173 -34v158c47 14 127 32 197 32
c165 0 271 -47 271 -233v-111zM282 189c-29 0 -60 -11 -60 -43c0 -24 21 -38 47 -38c20 0 38 5 55 16v59c-11 4 -26 6 -42 6zM341 542h-183l98 164h207z" />
    <glyph glyph-name="abreve" unicode="&#x103;" horiz-adv-x="575" 
d="M524 152c0 -19 12 -26 28 -26c6 0 13 1 19 2v-123c-26 -11 -71 -18 -106 -18c-52 0 -95 16 -120 51c-43 -35 -94 -54 -160 -54c-90 0 -167 49 -167 145c0 122 112 156 211 156c27 0 67 -3 95 -9v11c0 34 -29 53 -95 53c-60 0 -118 -14 -173 -34v158c47 14 127 32 197 32
c165 0 271 -47 271 -233v-111zM282 189c-29 0 -60 -11 -60 -43c0 -24 21 -38 47 -38c20 0 38 5 55 16v59c-11 4 -26 6 -42 6zM453 582c-50 -33 -110 -51 -181 -51s-131 18 -181 51v143c54 -33 116 -46 181 -46c64 0 127 13 181 46v-143z" />
    <glyph glyph-name="acircumflex" unicode="&#xe2;" horiz-adv-x="575" 
d="M524 152c0 -19 12 -26 28 -26c6 0 13 1 19 2v-123c-26 -11 -71 -18 -106 -18c-52 0 -95 16 -120 51c-43 -35 -94 -54 -160 -54c-90 0 -167 49 -167 145c0 122 112 156 211 156c27 0 67 -3 95 -9v11c0 34 -29 53 -95 53c-60 0 -118 -14 -173 -34v158c47 14 127 32 197 32
c165 0 271 -47 271 -233v-111zM282 189c-29 0 -60 -11 -60 -43c0 -24 21 -38 47 -38c20 0 38 5 55 16v59c-11 4 -26 6 -42 6zM178 708h185l128 -171h-175l-45 57l-45 -57h-176z" />
    <glyph glyph-name="adieresis" unicode="&#xe4;" horiz-adv-x="575" 
d="M524 152c0 -19 12 -26 28 -26c6 0 13 1 19 2v-123c-26 -11 -71 -18 -106 -18c-52 0 -95 16 -120 51c-43 -35 -94 -54 -160 -54c-90 0 -167 49 -167 145c0 122 112 156 211 156c27 0 67 -3 95 -9v11c0 34 -29 53 -95 53c-60 0 -118 -14 -173 -34v158c47 14 127 32 197 32
c165 0 271 -47 271 -233v-111zM282 189c-29 0 -60 -11 -60 -43c0 -24 21 -38 47 -38c20 0 38 5 55 16v59c-11 4 -26 6 -42 6zM484 624c0 -58 -42 -96 -97 -96c-54 0 -96 38 -96 96s42 96 96 96c55 0 97 -38 97 -96zM253 624c0 -58 -42 -96 -97 -96c-54 0 -96 38 -96 96
s42 96 96 96c55 0 97 -38 97 -96z" />
    <glyph glyph-name="agrave" unicode="&#xe0;" horiz-adv-x="575" 
d="M524 152c0 -19 12 -26 28 -26c6 0 13 1 19 2v-123c-26 -11 -71 -18 -106 -18c-52 0 -95 16 -120 51c-43 -35 -94 -54 -160 -54c-90 0 -167 49 -167 145c0 122 112 156 211 156c27 0 67 -3 95 -9v11c0 34 -29 53 -95 53c-60 0 -118 -14 -173 -34v158c47 14 127 32 197 32
c165 0 271 -47 271 -233v-111zM282 189c-29 0 -60 -11 -60 -43c0 -24 21 -38 47 -38c20 0 38 5 55 16v59c-11 4 -26 6 -42 6zM384 542h-183l-122 164h206z" />
    <glyph glyph-name="amacron" unicode="&#x101;" horiz-adv-x="575" 
d="M524 152c0 -19 12 -26 28 -26c6 0 13 1 19 2v-123c-26 -11 -71 -18 -106 -18c-52 0 -95 16 -120 51c-43 -35 -94 -54 -160 -54c-90 0 -167 49 -167 145c0 122 112 156 211 156c27 0 67 -3 95 -9v11c0 34 -29 53 -95 53c-60 0 -118 -14 -173 -34v158c47 14 127 32 197 32
c165 0 271 -47 271 -233v-111zM282 189c-29 0 -60 -11 -60 -43c0 -24 21 -38 47 -38c20 0 38 5 55 16v59c-11 4 -26 6 -42 6zM91 688h363v-145h-363v145z" />
    <glyph glyph-name="aogonek" unicode="&#x105;" horiz-adv-x="575" 
d="M571 128v-123c-37 -27 -55 -57 -55 -76c0 -16 10 -23 26 -23c8 0 17 2 24 5v-124c-28 -12 -64 -18 -97 -18c-87 0 -128 48 -127 105c0 41 27 87 67 121c-27 7 -49 22 -64 43c-43 -35 -94 -54 -160 -54c-90 0 -167 49 -167 145c0 122 112 156 211 156c27 0 67 -3 95 -9v11
c0 34 -29 53 -95 53c-60 0 -118 -14 -173 -34v158c47 14 127 32 197 32c165 0 271 -47 271 -233v-111c0 -19 12 -26 28 -26c6 0 13 1 19 2zM269 108c20 0 38 5 55 16v59c-11 4 -26 6 -42 6c-29 0 -60 -11 -60 -43c0 -24 21 -38 47 -38z" />
    <glyph glyph-name="aring" unicode="&#xe5;" horiz-adv-x="575" 
d="M524 152c0 -19 12 -26 28 -26c6 0 13 1 19 2v-123c-26 -11 -71 -18 -106 -18c-52 0 -95 16 -120 51c-43 -35 -94 -54 -160 -54c-90 0 -167 49 -167 145c0 122 112 156 211 156c27 0 67 -3 95 -9v11c0 34 -29 53 -95 53c-60 0 -118 -14 -173 -34v158c47 14 127 32 197 32
c165 0 271 -47 271 -233v-111zM282 189c-29 0 -60 -11 -60 -43c0 -24 21 -38 47 -38c20 0 38 5 55 16v59c-11 4 -26 6 -42 6zM415 647c0 -87 -64 -132 -142 -132c-75 0 -141 45 -141 132c0 82 66 129 141 129c78 0 142 -47 142 -129zM240 646c0 -19 11 -35 34 -35
s34 16 34 35s-11 34 -34 34s-34 -15 -34 -34z" />
    <glyph glyph-name="atilde" unicode="&#xe3;" horiz-adv-x="575" 
d="M524 152c0 -19 12 -26 28 -26c6 0 13 1 19 2v-123c-26 -11 -71 -18 -106 -18c-52 0 -95 16 -120 51c-43 -35 -94 -54 -160 -54c-90 0 -167 49 -167 145c0 122 112 156 211 156c27 0 67 -3 95 -9v11c0 34 -29 53 -95 53c-60 0 -118 -14 -173 -34v158c47 14 127 32 197 32
c165 0 271 -47 271 -233v-111zM282 189c-29 0 -60 -11 -60 -43c0 -24 21 -38 47 -38c20 0 38 5 55 16v59c-11 4 -26 6 -42 6zM471 704c26 -98 -26 -180 -114 -180c-67 0 -107 42 -136 42c-21 0 -23 -23 -19 -36h-133c-26 98 25 180 114 180c66 0 107 -42 135 -42
c22 0 23 23 20 36h133z" />
    <glyph glyph-name="ae" unicode="&#xe6;" horiz-adv-x="835" 
d="M411 51c-59 -43 -121 -67 -218 -67c-92 0 -176 49 -176 145c0 124 110 157 217 157c32 0 72 -4 100 -10v11c0 34 -35 52 -100 52c-61 0 -121 -14 -176 -34v159c46 14 127 32 198 32c76 0 135 -16 169 -54c46 37 104 54 159 54c195 0 254 -168 224 -304h-296
c17 -41 75 -60 137 -60c54 0 100 6 137 18v-142c-47 -15 -101 -24 -173 -24c-79 0 -153 21 -202 67zM227 146c0 -26 22 -37 46 -37c27 0 50 6 81 27c-5 16 -9 31 -12 48c-19 4 -34 6 -50 6c-30 0 -65 -10 -65 -44zM578 358c-42 0 -69 -30 -69 -68h127c5 27 -9 68 -58 68z
" />
    <glyph glyph-name="b" unicode="b" horiz-adv-x="625" 
d="M41 700h211v-249c28 26 73 45 131 45c153 0 220 -124 220 -256s-67 -256 -220 -256c-72 0 -125 34 -157 74v-58h-185v700zM386 240c0 43 -22 87 -73 87c-29 0 -53 -17 -62 -34v-106c10 -17 33 -34 62 -34c51 0 73 44 73 87z" />
    <glyph glyph-name="c" unicode="c" horiz-adv-x="489" 
d="M21 227c0 194 142 271 285 271c51 0 102 -11 148 -29v-173c-30 15 -72 27 -110 27c-56 0 -106 -22 -106 -83c0 -59 48 -81 102 -81c46 0 89 10 119 24v-172c-50 -17 -106 -27 -167 -27c-138 0 -271 70 -271 243z" />
    <glyph glyph-name="cacute" unicode="&#x107;" horiz-adv-x="489" 
d="M21 227c0 194 142 271 285 271c51 0 102 -11 148 -29v-173c-30 15 -72 27 -110 27c-56 0 -106 -22 -106 -83c0 -59 48 -81 102 -81c46 0 89 10 119 24v-172c-50 -17 -106 -27 -167 -27c-138 0 -271 70 -271 243zM346 532h-183l98 164h207z" />
    <glyph glyph-name="ccaron" unicode="&#x10d;" horiz-adv-x="489" 
d="M21 227c0 194 142 271 285 271c51 0 102 -11 148 -29v-173c-30 15 -72 27 -110 27c-56 0 -106 -22 -106 -83c0 -59 48 -81 102 -81c46 0 89 10 119 24v-172c-50 -17 -106 -27 -167 -27c-138 0 -271 70 -271 243zM499 703l-132 -171h-185l-132 171h175l49 -61l50 61h175z
" />
    <glyph glyph-name="ccedilla" unicode="&#xe7;" horiz-adv-x="489" 
d="M459 183v-172c-30 -9 -61 -18 -94 -22l-10 -32c58 -8 93 -36 93 -90c0 -75 -79 -104 -158 -104c-45 0 -82 5 -118 19v105c24 -10 54 -15 79 -15c31 0 56 7 56 25c0 25 -49 28 -88 24l20 66c-118 17 -218 90 -218 240c0 194 142 271 285 271c51 0 102 -11 148 -29v-173
c-30 15 -72 27 -110 27c-56 0 -106 -22 -106 -83c0 -59 48 -81 102 -81c46 0 89 10 119 24z" />
    <glyph glyph-name="cdotaccent" unicode="&#x10b;" horiz-adv-x="489" 
d="M21 227c0 194 142 271 285 271c51 0 102 -11 148 -29v-173c-30 15 -72 27 -110 27c-56 0 -106 -22 -106 -83c0 -59 48 -81 102 -81c46 0 89 10 119 24v-172c-50 -17 -106 -27 -167 -27c-138 0 -271 70 -271 243zM176 619c0 68 48 98 102 98c55 0 102 -30 102 -98
c0 -69 -47 -99 -102 -99c-54 0 -102 30 -102 99z" />
    <glyph glyph-name="d" unicode="d" horiz-adv-x="625" 
d="M374 700h210v-700h-185v58c-31 -40 -84 -74 -156 -74c-154 0 -221 124 -221 256s67 256 221 256c58 0 102 -19 131 -45v249zM375 293c-10 17 -33 34 -62 34c-52 0 -73 -44 -73 -87s21 -87 73 -87c29 0 52 17 62 34v106z" />
    <glyph glyph-name="eth" unicode="&#xf0;" horiz-adv-x="576" 
d="M550 290c0 -229 -122 -306 -264 -306c-146 0 -265 71 -265 231c0 142 95 212 199 212c55 0 106 -17 136 -54c0 12 -2 25 -6 38c-10 39 -37 76 -78 104l-67 -67l-67 69l39 38c-27 7 -57 10 -90 10v162c81 0 156 -14 219 -43l66 66l67 -68l-47 -47
c99 -75 158 -193 158 -345zM223 212c0 -34 17 -68 63 -68c45 0 62 34 62 68s-17 67 -62 67c-46 0 -63 -33 -63 -67z" />
    <glyph glyph-name="dcaron" unicode="&#x10f;" horiz-adv-x="625" 
d="M634 700h167l-39 -215h-144zM374 700h210v-700h-185v58c-31 -40 -84 -74 -156 -74c-154 0 -221 124 -221 256s67 256 221 256c58 0 102 -19 131 -45v249zM375 293c-10 17 -33 34 -62 34c-52 0 -73 -44 -73 -87s21 -87 73 -87c29 0 52 17 62 34v106z" />
    <glyph glyph-name="dcroat" unicode="&#x111;" horiz-adv-x="625" 
d="M584 638h65v-103h-65v-535h-185v58c-31 -40 -84 -74 -156 -74c-154 0 -221 124 -221 256s67 256 221 256c58 0 102 -19 131 -45v84h-120v103h120v62h210v-62zM313 153c29 0 52 17 62 34v106c-10 17 -33 34 -62 34c-52 0 -73 -44 -73 -87s21 -87 73 -87z" />
    <glyph glyph-name="e" unicode="e" horiz-adv-x="547" 
d="M21 243c0 188 151 253 258 253c216 0 270 -165 240 -304h-296c17 -41 75 -60 137 -60c51 0 97 6 138 19v-142c-47 -16 -100 -25 -175 -25c-154 0 -302 74 -302 259zM348 289c5 28 -9 68 -58 68c-42 0 -69 -29 -69 -68h127z" />
    <glyph glyph-name="eacute" unicode="&#xe9;" horiz-adv-x="547" 
d="M21 243c0 188 151 253 258 253c216 0 270 -165 240 -304h-296c17 -41 75 -60 137 -60c51 0 97 6 138 19v-142c-47 -16 -100 -25 -175 -25c-154 0 -302 74 -302 259zM348 289c5 28 -9 68 -58 68c-42 0 -69 -29 -69 -68h127zM346 532h-183l98 164h207z" />
    <glyph glyph-name="ecaron" unicode="&#x11b;" horiz-adv-x="547" 
d="M21 243c0 188 151 253 258 253c216 0 270 -165 240 -304h-296c17 -41 75 -60 137 -60c51 0 97 6 138 19v-142c-47 -16 -100 -25 -175 -25c-154 0 -302 74 -302 259zM348 289c5 28 -9 68 -58 68c-42 0 -69 -29 -69 -68h127zM499 703l-132 -171h-185l-132 171h175l49 -61
l50 61h175z" />
    <glyph glyph-name="ecircumflex" unicode="&#xea;" horiz-adv-x="547" 
d="M21 243c0 188 151 253 258 253c216 0 270 -165 240 -304h-296c17 -41 75 -60 137 -60c51 0 97 6 138 19v-142c-47 -16 -100 -25 -175 -25c-154 0 -302 74 -302 259zM348 289c5 28 -9 68 -58 68c-42 0 -69 -29 -69 -68h127zM183 698h185l128 -171h-175l-45 57l-45 -57
h-176z" />
    <glyph glyph-name="edieresis" unicode="&#xeb;" horiz-adv-x="547" 
d="M21 243c0 188 151 253 258 253c216 0 270 -165 240 -304h-296c17 -41 75 -60 137 -60c51 0 97 6 138 19v-142c-47 -16 -100 -25 -175 -25c-154 0 -302 74 -302 259zM348 289c5 28 -9 68 -58 68c-42 0 -69 -29 -69 -68h127zM489 614c0 -58 -42 -96 -97 -96
c-54 0 -96 38 -96 96s42 96 96 96c55 0 97 -38 97 -96zM258 614c0 -58 -42 -96 -97 -96c-54 0 -96 38 -96 96s42 96 96 96c55 0 97 -38 97 -96z" />
    <glyph glyph-name="edotaccent" unicode="&#x117;" horiz-adv-x="547" 
d="M21 243c0 188 151 253 258 253c216 0 270 -165 240 -304h-296c17 -41 75 -60 137 -60c51 0 97 6 138 19v-142c-47 -16 -100 -25 -175 -25c-154 0 -302 74 -302 259zM348 289c5 28 -9 68 -58 68c-42 0 -69 -29 -69 -68h127zM176 619c0 68 48 98 102 98
c55 0 102 -30 102 -98c0 -69 -47 -99 -102 -99c-54 0 -102 30 -102 99z" />
    <glyph glyph-name="egrave" unicode="&#xe8;" horiz-adv-x="547" 
d="M21 243c0 188 151 253 258 253c216 0 270 -165 240 -304h-296c17 -41 75 -60 137 -60c51 0 97 6 138 19v-142c-47 -16 -100 -25 -175 -25c-154 0 -302 74 -302 259zM348 289c5 28 -9 68 -58 68c-42 0 -69 -29 -69 -68h127zM389 532h-183l-122 164h206z" />
    <glyph glyph-name="emacron" unicode="&#x113;" horiz-adv-x="547" 
d="M21 243c0 188 151 253 258 253c216 0 270 -165 240 -304h-296c17 -41 75 -60 137 -60c51 0 97 6 138 19v-142c-47 -16 -100 -25 -175 -25c-154 0 -302 74 -302 259zM348 289c5 28 -9 68 -58 68c-42 0 -69 -29 -69 -68h127zM96 678h363v-145h-363v145z" />
    <glyph glyph-name="eogonek" unicode="&#x119;" horiz-adv-x="548" 
d="M479 -218c-28 -12 -63 -18 -97 -18c-86 0 -128 48 -127 105c0 39 24 83 67 115c-13 0 -26 1 -40 3c-140 10 -261 89 -261 256c0 188 151 253 258 253c216 0 270 -165 240 -304h-296c17 -41 75 -60 137 -60c51 0 97 6 138 19v-142c-49 -27 -70 -61 -70 -84
c0 -16 10 -24 27 -24c8 0 17 2 24 5v-124zM290 357c-42 0 -69 -29 -69 -68h127c5 28 -9 68 -58 68z" />
    <glyph glyph-name="f" unicode="f" horiz-adv-x="420" 
d="M303 0h-211v312h-68v168h68v40c0 152 113 196 208 196c50 0 92 -8 122 -19v-161c-17 10 -39 16 -60 16c-31 0 -59 -13 -59 -49v-23h105v-168h-105v-312z" />
    <glyph glyph-name="g" unicode="g" horiz-adv-x="625" 
d="M22 246c0 132 67 250 221 250c72 0 125 -34 156 -74v58h185v-449c0 -198 -142 -267 -293 -267c-88 0 -151 13 -218 41v174c53 -29 112 -44 180 -44s121 19 121 82v24c-29 -27 -73 -46 -131 -46c-154 0 -221 119 -221 251zM375 296c-10 17 -33 34 -62 34
c-52 0 -73 -44 -73 -87s21 -87 73 -87c29 0 52 17 62 34v106z" />
    <glyph glyph-name="gbreve" unicode="&#x11f;" horiz-adv-x="625" 
d="M22 246c0 132 67 250 221 250c72 0 125 -34 156 -74v58h185v-449c0 -198 -142 -267 -293 -267c-88 0 -151 13 -218 41v174c53 -29 112 -44 180 -44s121 19 121 82v24c-29 -27 -73 -46 -131 -46c-154 0 -221 119 -221 251zM375 296c-10 17 -33 34 -62 34
c-52 0 -73 -44 -73 -87s21 -87 73 -87c29 0 52 17 62 34v106zM483 572c-50 -33 -110 -51 -181 -51s-131 18 -181 51v143c54 -33 116 -46 181 -46c64 0 127 13 181 46v-143z" />
    <glyph glyph-name="gcommaaccent" unicode="&#x123;" horiz-adv-x="625" 
d="M393 532h-173l53 216h150zM22 246c0 132 67 250 221 250c72 0 125 -34 156 -74v58h185v-449c0 -198 -142 -267 -293 -267c-88 0 -151 13 -218 41v174c53 -29 112 -44 180 -44s121 19 121 82v24c-29 -27 -73 -46 -131 -46c-154 0 -221 119 -221 251zM375 296
c-10 17 -33 34 -62 34c-52 0 -73 -44 -73 -87s21 -87 73 -87c29 0 52 17 62 34v106z" />
    <glyph glyph-name="gdotaccent" unicode="&#x121;" horiz-adv-x="625" 
d="M22 246c0 132 67 250 221 250c72 0 125 -34 156 -74v58h185v-449c0 -198 -142 -267 -293 -267c-88 0 -151 13 -218 41v174c53 -29 112 -44 180 -44s121 19 121 82v24c-29 -27 -73 -46 -131 -46c-154 0 -221 119 -221 251zM375 296c-10 17 -33 34 -62 34
c-52 0 -73 -44 -73 -87s21 -87 73 -87c29 0 52 17 62 34v106zM201 619c0 68 48 98 102 98c55 0 102 -30 102 -98c0 -69 -47 -99 -102 -99c-54 0 -102 30 -102 99z" />
    <glyph glyph-name="h" unicode="h" 
d="M41 700h211v-246c35 27 75 42 121 42c132 0 186 -93 186 -186v-310h-211v274c0 32 -20 46 -46 46c-23 0 -41 -13 -50 -24v-296h-211v700z" />
    <glyph glyph-name="hbar" unicode="&#x127;" horiz-adv-x="594" 
d="M251 454c36 28 76 42 122 42c132 0 185 -93 185 -186v-310h-210v274c0 32 -20 46 -46 46c-23 0 -41 -13 -51 -24v-296h-210v535h-59v103h59v62h210v-62h122v-103h-122v-81z" />
    <glyph glyph-name="i" unicode="i" horiz-adv-x="293" 
d="M252 0h-211v480h211v-480zM256 635c0 -73 -51 -106 -110 -106c-58 0 -110 33 -110 106c0 72 52 105 110 105c59 0 110 -33 110 -105z" />
    <glyph glyph-name="dotlessi" unicode="&#x131;" horiz-adv-x="293" 
d="M41 480h211v-480h-211v480z" />
    <glyph glyph-name="iacute" unicode="&#xed;" horiz-adv-x="293" 
d="M41 480h211v-480h-211v480zM215 532h-183l98 164h207z" />
    <glyph glyph-name="icircumflex" unicode="&#xee;" horiz-adv-x="293" 
d="M54 698h185l107 -171h-165l-35 62l-35 -62h-165zM41 480h211v-480h-211v480z" />
    <glyph glyph-name="idieresis" unicode="&#xef;" horiz-adv-x="293" 
d="M339 614c0 -55 -40 -91 -92 -91c-51 0 -91 36 -91 91s40 91 91 91c52 0 92 -36 92 -91zM128 614c0 -55 -40 -91 -91 -91s-91 36 -91 91s40 91 91 91s91 -36 91 -91zM41 480h211v-480h-211v480z" />
    <glyph glyph-name="i.loclTRK" horiz-adv-x="293" 
d="M41 480h211v-480h-211v480zM45 619c0 68 48 98 102 98c55 0 102 -30 102 -98c0 -69 -47 -99 -102 -99c-54 0 -102 30 -102 99z" />
    <glyph glyph-name="igrave" unicode="&#xec;" horiz-adv-x="293" 
d="M252 0h-211v480h211v-480zM249 532h-183l-81 164h206z" />
    <glyph glyph-name="ij" unicode="&#x133;" horiz-adv-x="586" 
d="M252 0h-211v480h211v-480zM256 635c0 -73 -51 -106 -110 -106c-58 0 -110 33 -110 106c0 72 52 105 110 105c59 0 110 -33 110 -105zM545 -51c0 -135 -95 -185 -203 -185c-38 0 -73 5 -100 15v171c12 -3 26 -5 41 -5c30 0 51 15 51 53v482h211v-531zM550 635
c0 -73 -51 -106 -110 -106c-58 0 -110 33 -110 106c0 72 52 105 110 105c59 0 110 -33 110 -105z" />
    <glyph glyph-name="imacron" unicode="&#x12b;" horiz-adv-x="293" 
d="M-1 683h294v-132h-294v132zM41 480h211v-480h-211v480z" />
    <glyph glyph-name="iogonek" unicode="&#x12f;" horiz-adv-x="293" 
d="M256 635c0 -73 -51 -106 -110 -106c-58 0 -110 33 -110 106c0 72 52 105 110 105c59 0 110 -33 110 -105zM107 0h-66v480h211v-480h-1c-37 -27 -55 -57 -55 -76c0 -16 10 -23 26 -23c9 0 17 2 24 5v-119c-29 -16 -65 -23 -97 -23c-87 0 -127 48 -127 105
c0 46 33 97 85 131z" />
    <glyph glyph-name="j" unicode="j" horiz-adv-x="293" 
d="M252 -51c0 -135 -95 -185 -203 -185c-38 0 -73 5 -100 15v171c12 -3 26 -5 41 -5c30 0 51 15 51 53v482h211v-531zM257 635c0 -73 -51 -106 -110 -106c-58 0 -110 33 -110 106c0 72 52 105 110 105c59 0 110 -33 110 -105z" />
    <glyph glyph-name="k" unicode="k" horiz-adv-x="596" 
d="M602 0h-229l-91 162h-30v-162h-211v700h211v-374h31l85 154h229l-148 -237z" />
    <glyph glyph-name="kcommaaccent" unicode="&#x137;" horiz-adv-x="596" 
d="M602 0h-229l-91 162h-30v-162h-211v700h211v-374h31l85 154h229l-148 -237zM344 -308h-162l40 254h191z" />
    <glyph glyph-name="l" unicode="l" horiz-adv-x="293" 
d="M41 730h211v-730h-211v730z" />
    <glyph glyph-name="lacute" unicode="&#x13a;" horiz-adv-x="293" 
d="M41 730h211v-730h-211v730zM222 780h-183l98 164h207z" />
    <glyph glyph-name="lcaron" unicode="&#x13e;" horiz-adv-x="293" 
d="M302 730h167l-39 -232h-144zM41 730h211v-730h-211v730z" />
    <glyph glyph-name="lcommaaccent" unicode="&#x13c;" horiz-adv-x="293" 
d="M41 730h211v-730h-211v730zM170 -308h-162l40 254h191z" />
    <glyph glyph-name="ldot" unicode="&#x140;" horiz-adv-x="513" 
d="M41 730h211v-730h-211v730zM520 350c0 -77 -54 -113 -117 -113c-62 0 -117 36 -117 113s55 113 117 113c63 0 117 -36 117 -113z" />
    <glyph glyph-name="lslash" unicode="&#x142;" horiz-adv-x="401" 
d="M95 730h211v-277l71 27v-157l-71 -26v-297h-211v214l-71 -27v157l71 27v359z" />
    <glyph glyph-name="m" unicode="m" horiz-adv-x="865" 
d="M249 0h-208v480h185v-45c28 31 86 61 147 61c68 0 111 -25 137 -64c38 38 93 64 150 64c127 0 169 -92 169 -194v-302h-208v285c0 24 -16 35 -36 35c-16 0 -31 -7 -44 -18v-14v-288h-208v285c0 24 -16 35 -35 35c-18 0 -36 -9 -49 -23v-297z" />
    <glyph glyph-name="n" unicode="n" 
d="M226 432c42 42 89 64 147 64c132 0 186 -93 186 -186v-310h-211v274c0 32 -20 46 -46 46c-23 0 -41 -13 -50 -24v-296h-211v480h185v-48z" />
    <glyph glyph-name="nacute" unicode="&#x144;" 
d="M226 432c42 42 89 64 147 64c132 0 186 -93 186 -186v-310h-211v274c0 32 -20 46 -46 46c-23 0 -41 -13 -50 -24v-296h-211v480h185v-48zM356 532h-183l98 164h207z" />
    <glyph glyph-name="ncaron" unicode="&#x148;" 
d="M226 432c42 42 89 64 147 64c132 0 186 -93 186 -186v-310h-211v274c0 32 -20 46 -46 46c-23 0 -41 -13 -50 -24v-296h-211v480h185v-48zM509 703l-132 -171h-185l-132 171h175l49 -61l50 61h175z" />
    <glyph glyph-name="ncommaaccent" unicode="&#x146;" 
d="M226 432c42 42 89 64 147 64c132 0 186 -93 186 -186v-310h-211v274c0 32 -20 46 -46 46c-23 0 -41 -13 -50 -24v-296h-211v480h185v-48zM333 -308h-162l40 254h191z" />
    <glyph glyph-name="eng" unicode="&#x14b;" 
d="M559 -51c0 -145 -105 -185 -191 -185c-34 0 -67 6 -87 15v158c8 -2 16 -3 25 -3c22 0 42 11 42 50v290c0 32 -20 46 -46 46c-23 0 -41 -13 -50 -24v-296h-211v480h185v-48c42 42 89 64 147 64c132 0 186 -93 186 -186v-361z" />
    <glyph glyph-name="ntilde" unicode="&#xf1;" 
d="M226 432c42 42 89 64 147 64c132 0 186 -93 186 -186v-310h-211v274c0 32 -20 46 -46 46c-23 0 -41 -13 -50 -24v-296h-211v480h185v-48zM486 694c26 -98 -26 -180 -114 -180c-67 0 -107 42 -136 42c-21 0 -23 -23 -19 -36h-133c-26 98 25 180 114 180
c66 0 107 -42 135 -42c22 0 23 23 20 36h133z" />
    <glyph glyph-name="o" unicode="o" 
d="M21 240c0 173 126 256 276 256s277 -83 277 -256s-127 -256 -277 -256s-276 83 -276 256zM368 240c0 45 -18 82 -71 82c-52 0 -70 -37 -70 -82s18 -82 70 -82c53 0 71 37 71 82z" />
    <glyph glyph-name="oacute" unicode="&#xf3;" 
d="M21 240c0 173 126 256 276 256s277 -83 277 -256s-127 -256 -277 -256s-276 83 -276 256zM368 240c0 45 -18 82 -71 82c-52 0 -70 -37 -70 -82s18 -82 70 -82c53 0 71 37 71 82zM367 528h-183l98 164h207z" />
    <glyph glyph-name="ocircumflex" unicode="&#xf4;" 
d="M21 240c0 173 126 256 276 256s277 -83 277 -256s-127 -256 -277 -256s-276 83 -276 256zM368 240c0 45 -18 82 -71 82c-52 0 -70 -37 -70 -82s18 -82 70 -82c53 0 71 37 71 82zM204 694h185l128 -171h-175l-45 57l-45 -57h-176z" />
    <glyph glyph-name="odieresis" unicode="&#xf6;" 
d="M21 240c0 173 126 256 276 256s277 -83 277 -256s-127 -256 -277 -256s-276 83 -276 256zM368 240c0 45 -18 82 -71 82c-52 0 -70 -37 -70 -82s18 -82 70 -82c53 0 71 37 71 82zM510 610c0 -58 -42 -96 -97 -96c-54 0 -96 38 -96 96s42 96 96 96c55 0 97 -38 97 -96z
M279 610c0 -58 -42 -96 -97 -96c-54 0 -96 38 -96 96s42 96 96 96c55 0 97 -38 97 -96z" />
    <glyph glyph-name="ograve" unicode="&#xf2;" 
d="M21 240c0 173 126 256 276 256s277 -83 277 -256s-127 -256 -277 -256s-276 83 -276 256zM368 240c0 45 -18 82 -71 82c-52 0 -70 -37 -70 -82s18 -82 70 -82c53 0 71 37 71 82zM410 528h-183l-122 164h206z" />
    <glyph glyph-name="ohungarumlaut" unicode="&#x151;" 
d="M21 240c0 173 126 256 276 256s277 -83 277 -256s-127 -256 -277 -256s-276 83 -276 256zM368 240c0 45 -18 82 -71 82c-52 0 -70 -37 -70 -82s18 -82 70 -82c53 0 71 37 71 82zM476 529h-170l85 168h183zM258 529h-170l77 168h182z" />
    <glyph glyph-name="omacron" unicode="&#x14d;" 
d="M21 240c0 173 126 256 276 256s277 -83 277 -256s-127 -256 -277 -256s-276 83 -276 256zM368 240c0 45 -18 82 -71 82c-52 0 -70 -37 -70 -82s18 -82 70 -82c53 0 71 37 71 82zM117 674h363v-145h-363v145z" />
    <glyph glyph-name="oslash" unicode="&#xf8;" 
d="M515 543l-56 -87c69 -41 115 -112 115 -216c0 -173 -127 -256 -277 -256c-44 0 -87 7 -124 22l-44 -70h-49l56 88c-69 40 -115 112 -115 216c0 173 126 256 276 256c45 0 88 -7 126 -22l44 69h48zM297 322c-52 0 -70 -37 -70 -82c0 -20 4 -39 13 -54l83 132
c-7 3 -16 4 -26 4zM273 161c7 -1 15 -3 25 -3c53 0 71 37 71 82c0 20 -5 38 -13 53z" />
    <glyph glyph-name="otilde" unicode="&#xf5;" 
d="M21 240c0 173 126 256 276 256s277 -83 277 -256s-127 -256 -277 -256s-276 83 -276 256zM368 240c0 45 -18 82 -71 82c-52 0 -70 -37 -70 -82s18 -82 70 -82c53 0 71 37 71 82zM497 690c26 -98 -26 -180 -114 -180c-67 0 -107 42 -136 42c-21 0 -23 -23 -19 -36h-133
c-26 98 25 180 114 180c66 0 107 -42 135 -42c22 0 23 23 20 36h133z" />
    <glyph glyph-name="oe" unicode="&#x153;" horiz-adv-x="900" 
d="M469 64c-40 -55 -108 -80 -185 -80c-144 0 -262 83 -262 256s118 256 262 256c75 0 140 -26 182 -77c49 56 117 77 181 77c201 0 255 -168 224 -304h-295c17 -41 75 -60 136 -60c58 0 104 7 138 19v-142c-45 -15 -98 -25 -168 -25c-84 0 -162 22 -213 80zM228 240
c0 -45 18 -82 70 -82c53 0 71 37 71 82s-18 82 -71 82c-52 0 -70 -37 -70 -82zM642 357c-42 0 -69 -30 -69 -69h127c5 28 -9 69 -58 69z" />
    <glyph glyph-name="p" unicode="p" horiz-adv-x="625" 
d="M226 422c32 40 85 74 157 74c153 0 220 -124 220 -256s-67 -256 -220 -256c-58 0 -102 19 -131 45v-249h-211v700h185v-58zM386 240c0 43 -22 87 -73 87c-29 0 -52 -17 -62 -34v-106c9 -17 33 -34 62 -34c51 0 73 44 73 87z" />
    <glyph glyph-name="thorn" unicode="&#xfe;" horiz-adv-x="625" 
d="M41 700h211v-254c31 30 77 50 133 50c154 0 218 -126 218 -256c0 -134 -69 -256 -218 -256c-58 0 -104 21 -133 48v-252h-211v920zM386 240c0 43 -21 87 -72 87c-30 0 -54 -17 -63 -36v-102c12 -17 35 -33 63 -34c49 -1 72 42 72 85z" />
    <glyph glyph-name="q" unicode="q" horiz-adv-x="625" 
d="M22 240c0 132 67 256 221 256c72 0 125 -34 156 -74v58h185v-700h-210v249c-29 -26 -73 -45 -131 -45c-154 0 -221 124 -221 256zM375 293c-10 17 -33 34 -62 34c-52 0 -73 -44 -73 -87s21 -87 73 -87c29 0 52 17 62 34v106z" />
    <glyph glyph-name="r" unicode="r" horiz-adv-x="419" 
d="M226 424c31 41 81 77 179 66v-198c-54 17 -123 7 -153 -25v-267h-211v480h185v-56z" />
    <glyph glyph-name="racute" unicode="&#x155;" horiz-adv-x="419" 
d="M226 424c31 41 81 77 179 66v-198c-54 17 -123 7 -153 -25v-267h-211v480h185v-56zM286 532h-183l98 164h207z" />
    <glyph glyph-name="rcaron" unicode="&#x159;" horiz-adv-x="419" 
d="M226 424c31 41 81 77 179 66v-198c-54 17 -123 7 -153 -25v-267h-211v480h185v-56zM439 703l-132 -171h-185l-132 171h175l49 -61l50 61h175z" />
    <glyph glyph-name="rcommaaccent" unicode="&#x157;" horiz-adv-x="419" 
d="M226 424c31 41 81 77 179 66v-198c-54 17 -123 7 -153 -25v-267h-211v480h185v-56zM168 -308h-162l40 254h191z" />
    <glyph glyph-name="s" unicode="s" horiz-adv-x="491" 
d="M28 342c0 118 106 154 217 154c78 0 136 -16 189 -41v-148c-41 25 -104 44 -152 44c-19 0 -35 -4 -35 -17c0 -52 225 -23 225 -192c0 -124 -114 -158 -237 -158c-83 0 -148 13 -201 42v161c54 -39 127 -53 173 -53c35 0 47 6 47 18c0 48 -226 27 -226 190z" />
    <glyph glyph-name="sacute" unicode="&#x15b;" horiz-adv-x="491" 
d="M28 342c0 118 106 154 217 154c78 0 136 -16 189 -41v-148c-41 25 -104 44 -152 44c-19 0 -35 -4 -35 -17c0 -52 225 -23 225 -192c0 -124 -114 -158 -237 -158c-83 0 -148 13 -201 42v161c54 -39 127 -53 173 -53c35 0 47 6 47 18c0 48 -226 27 -226 190zM311 532h-183
l98 164h207z" />
    <glyph glyph-name="scaron" unicode="&#x161;" horiz-adv-x="491" 
d="M28 342c0 118 106 154 217 154c78 0 136 -16 189 -41v-148c-41 25 -104 44 -152 44c-19 0 -35 -4 -35 -17c0 -52 225 -23 225 -192c0 -124 -114 -158 -237 -158c-83 0 -148 13 -201 42v161c54 -39 127 -53 173 -53c35 0 47 6 47 18c0 48 -226 27 -226 190zM464 703
l-132 -171h-185l-132 171h175l49 -61l50 61h175z" />
    <glyph glyph-name="scedilla" unicode="&#x15f;" horiz-adv-x="491" 
d="M247 334c0 -52 225 -23 225 -192c0 -94 -65 -136 -149 -151l-11 -34c58 -8 92 -36 92 -90c0 -75 -78 -104 -157 -104c-45 0 -83 5 -118 19v105c24 -10 53 -15 78 -15c32 0 57 7 57 25c0 25 -49 28 -88 24l19 64c-64 3 -117 17 -161 41v161c54 -39 127 -53 173 -53
c35 0 47 6 47 18c0 48 -226 27 -226 190c0 118 106 154 217 154c78 0 136 -16 189 -41v-148c-41 25 -104 44 -152 44c-19 0 -35 -4 -35 -17z" />
    <glyph glyph-name="scommaaccent" unicode="&#x219;" horiz-adv-x="491" 
d="M28 342c0 118 106 154 217 154c78 0 136 -16 189 -41v-148c-41 25 -104 44 -152 44c-19 0 -35 -4 -35 -17c0 -52 225 -23 225 -192c0 -124 -114 -158 -237 -158c-83 0 -148 13 -201 42v161c54 -39 127 -53 173 -53c35 0 47 6 47 18c0 48 -226 27 -226 190zM284 -308h-162
l40 254h191z" />
    <glyph glyph-name="germandbls" unicode="&#xdf;" horiz-adv-x="618" 
d="M606 138c0 -108 -84 -154 -182 -154c-41 0 -85 9 -127 24v163c18 -10 39 -15 57 -15c26 0 46 11 46 34c0 45 -110 101 -110 174c0 63 51 80 51 140c0 26 -17 43 -43 43c-29 0 -46 -18 -46 -47v-500h-211v475c0 146 89 240 255 241c172 1 238 -97 238 -168
c0 -78 -70 -115 -70 -164c0 -61 142 -122 142 -246z" />
    <glyph glyph-name="t" unicode="t" horiz-adv-x="435" 
d="M84 609l211 49v-178h107v-168h-107v-111c0 -33 23 -45 57 -45c21 0 40 2 57 8v-162c-45 -12 -89 -19 -135 -19c-93 0 -190 36 -190 184v145h-67v168h67v129z" />
    <glyph glyph-name="tbar" unicode="&#x167;" horiz-adv-x="435" 
d="M295 197c0 -30 23 -42 57 -42c21 0 40 3 57 8v-161c-45 -11 -91 -19 -135 -19c-93 0 -190 36 -190 184v41h-44v73h44v41h-67v158h67v129l211 49v-178h107v-158h-107v-41h86v-73h-86v-11z" />
    <glyph glyph-name="tcaron" unicode="&#x165;" horiz-adv-x="435" 
d="M362 765h167l-39 -233h-144zM84 609l211 49v-178h107v-168h-107v-111c0 -33 23 -45 57 -45c21 0 40 2 57 8v-162c-45 -12 -89 -19 -135 -19c-93 0 -190 36 -190 184v145h-67v168h67v129z" />
    <glyph glyph-name="tcommaaccent" unicode="&#x163;" horiz-adv-x="435" 
d="M84 609l211 49v-178h107v-168h-107v-111c0 -33 23 -45 57 -45c21 0 40 2 57 8v-162c-45 -12 -89 -19 -135 -19c-93 0 -190 36 -190 184v145h-67v168h67v129zM288 -308h-162l40 254h191z" />
    <glyph glyph-name="uni021B" unicode="&#x21b;" horiz-adv-x="435" 
d="M84 609l211 49v-178h107v-168h-107v-111c0 -33 23 -45 57 -45c21 0 40 2 57 8v-162c-45 -12 -89 -19 -135 -19c-93 0 -190 36 -190 184v145h-67v168h67v129zM288 -308h-162l40 254h191z" />
    <glyph glyph-name="u" unicode="u" 
d="M343 480h211v-480h-185v48c-42 -42 -90 -64 -148 -64c-132 0 -185 93 -185 186v310h211v-274c0 -32 19 -46 46 -46c23 0 41 13 50 24v296z" />
    <glyph glyph-name="uacute" unicode="&#xfa;" 
d="M343 480h211v-480h-185v48c-42 -42 -90 -64 -148 -64c-132 0 -185 93 -185 186v310h211v-274c0 -32 19 -46 46 -46c23 0 41 13 50 24v296zM365 532h-183l98 164h207z" />
    <glyph glyph-name="ucircumflex" unicode="&#xfb;" 
d="M343 480h211v-480h-185v48c-42 -42 -90 -64 -148 -64c-132 0 -185 93 -185 186v310h211v-274c0 -32 19 -46 46 -46c23 0 41 13 50 24v296zM202 698h185l128 -171h-175l-45 57l-45 -57h-176z" />
    <glyph glyph-name="udieresis" unicode="&#xfc;" 
d="M343 480h211v-480h-185v48c-42 -42 -90 -64 -148 -64c-132 0 -185 93 -185 186v310h211v-274c0 -32 19 -46 46 -46c23 0 41 13 50 24v296zM508 614c0 -58 -42 -96 -97 -96c-54 0 -96 38 -96 96s42 96 96 96c55 0 97 -38 97 -96zM277 614c0 -58 -42 -96 -97 -96
c-54 0 -96 38 -96 96s42 96 96 96c55 0 97 -38 97 -96z" />
    <glyph glyph-name="ugrave" unicode="&#xf9;" 
d="M343 480h211v-480h-185v48c-42 -42 -90 -64 -148 -64c-132 0 -185 93 -185 186v310h211v-274c0 -32 19 -46 46 -46c23 0 41 13 50 24v296zM408 532h-183l-122 164h206z" />
    <glyph glyph-name="uhungarumlaut" unicode="&#x171;" 
d="M343 480h211v-480h-185v48c-42 -42 -90 -64 -148 -64c-132 0 -185 93 -185 186v310h211v-274c0 -32 19 -46 46 -46c23 0 41 13 50 24v296zM474 533h-170l85 168h183zM256 533h-170l77 168h182z" />
    <glyph glyph-name="umacron" unicode="&#x16b;" 
d="M343 480h211v-480h-185v48c-42 -42 -90 -64 -148 -64c-132 0 -185 93 -185 186v310h211v-274c0 -32 19 -46 46 -46c23 0 41 13 50 24v296zM115 678h363v-145h-363v145z" />
    <glyph glyph-name="uogonek" unicode="&#x173;" 
d="M554 480v-480c-37 -27 -55 -57 -55 -76c0 -16 10 -23 26 -23c8 0 17 1 24 3v-125c-28 -10 -60 -15 -97 -15c-87 0 -128 48 -127 105c0 46 33 97 80 131h-36v48c-42 -42 -90 -64 -148 -64c-132 0 -185 93 -185 186v310h211v-274c0 -32 19 -46 46 -46c23 0 41 13 50 24v296
h211z" />
    <glyph glyph-name="uring" unicode="&#x16f;" 
d="M343 480h211v-480h-185v48c-42 -42 -90 -64 -148 -64c-132 0 -185 93 -185 186v310h211v-274c0 -32 19 -46 46 -46c23 0 41 13 50 24v296zM439 637c0 -87 -64 -132 -142 -132c-75 0 -141 45 -141 132c0 82 66 129 141 129c78 0 142 -47 142 -129zM264 636
c0 -19 11 -35 34 -35s34 16 34 35s-11 34 -34 34s-34 -15 -34 -34z" />
    <glyph glyph-name="v" unicode="v" horiz-adv-x="599" 
d="M376 480h221l-186 -480h-223l-186 480h222l76 -279z" />
    <glyph glyph-name="w" unicode="w" horiz-adv-x="844" 
d="M622 480h215l-148 -480h-205l-62 237l-62 -237h-205l-148 480h215l55 -267l65 267h160l65 -267z" />
    <glyph glyph-name="wacute" unicode="&#x1e83;" horiz-adv-x="844" 
d="M622 480h215l-148 -480h-205l-62 237l-62 -237h-205l-148 480h215l55 -267l65 267h160l65 -267zM491 532h-183l98 164h207z" />
    <glyph glyph-name="wcircumflex" unicode="&#x175;" horiz-adv-x="844" 
d="M622 480h215l-148 -480h-205l-62 237l-62 -237h-205l-148 480h215l55 -267l65 267h160l65 -267zM328 698h185l128 -171h-175l-45 57l-45 -57h-176z" />
    <glyph glyph-name="wdieresis" unicode="&#x1e85;" horiz-adv-x="844" 
d="M622 480h215l-148 -480h-205l-62 237l-62 -237h-205l-148 480h215l55 -267l65 267h160l65 -267zM634 614c0 -58 -42 -96 -97 -96c-54 0 -96 38 -96 96s42 96 96 96c55 0 97 -38 97 -96zM403 614c0 -58 -42 -96 -97 -96c-54 0 -96 38 -96 96s42 96 96 96
c55 0 97 -38 97 -96z" />
    <glyph glyph-name="wgrave" unicode="&#x1e81;" horiz-adv-x="844" 
d="M622 480h215l-148 -480h-205l-62 237l-62 -237h-205l-148 480h215l55 -267l65 267h160l65 -267zM534 532h-183l-122 164h206z" />
    <glyph glyph-name="x" unicode="x" horiz-adv-x="571" 
d="M351 480h222l-160 -241l166 -239h-226l-67 110l-67 -110h-227l166 239l-159 241h221l66 -115z" />
    <glyph glyph-name="y" unicode="y" horiz-adv-x="604" 
d="M313 217l73 263h214l-183 -509c-57 -159 -158 -206 -256 -206c-38 0 -71 7 -105 17v170c23 -6 45 -10 71 -10c37 0 69 16 89 55l-220 483h218z" />
    <glyph glyph-name="yacute" unicode="&#xfd;" horiz-adv-x="604" 
d="M313 217l73 263h214l-183 -509c-57 -159 -158 -206 -256 -206c-38 0 -71 7 -105 17v170c23 -6 45 -10 71 -10c37 0 69 16 89 55l-220 483h218zM364 532h-183l98 164h207z" />
    <glyph glyph-name="ycircumflex" unicode="&#x177;" horiz-adv-x="604" 
d="M313 217l73 263h214l-183 -509c-57 -159 -158 -206 -256 -206c-38 0 -71 7 -105 17v170c23 -6 45 -10 71 -10c37 0 69 16 89 55l-220 483h218zM201 698h185l128 -171h-175l-45 57l-45 -57h-176z" />
    <glyph glyph-name="ydieresis" unicode="&#xff;" horiz-adv-x="604" 
d="M313 217l73 263h214l-183 -509c-57 -159 -158 -206 -256 -206c-38 0 -71 7 -105 17v170c23 -6 45 -10 71 -10c37 0 69 16 89 55l-220 483h218zM507 614c0 -58 -42 -96 -97 -96c-54 0 -96 38 -96 96s42 96 96 96c55 0 97 -38 97 -96zM276 614c0 -58 -42 -96 -97 -96
c-54 0 -96 38 -96 96s42 96 96 96c55 0 97 -38 97 -96z" />
    <glyph glyph-name="ygrave" unicode="&#x1ef3;" horiz-adv-x="604" 
d="M313 217l73 263h214l-183 -509c-57 -159 -158 -206 -256 -206c-38 0 -71 7 -105 17v170c23 -6 45 -10 71 -10c37 0 69 16 89 55l-220 483h218zM407 532h-183l-122 164h206z" />
    <glyph glyph-name="z" unicode="z" horiz-adv-x="505" 
d="M42 480h421v-124l-164 -188h178v-168h-450v124l165 188h-150v168z" />
    <glyph glyph-name="zacute" unicode="&#x17a;" horiz-adv-x="505" 
d="M42 480h421v-124l-164 -188h178v-168h-450v124l165 188h-150v168zM332 532h-183l98 164h207z" />
    <glyph glyph-name="zcaron" unicode="&#x17e;" horiz-adv-x="505" 
d="M42 480h421v-124l-164 -188h178v-168h-450v124l165 188h-150v168zM485 703l-132 -171h-185l-132 171h175l49 -61l50 61h175z" />
    <glyph glyph-name="zdotaccent" unicode="&#x17c;" horiz-adv-x="505" 
d="M42 480h421v-124l-164 -188h178v-168h-450v124l165 188h-150v168zM162 619c0 68 48 98 102 98c55 0 102 -30 102 -98c0 -69 -47 -99 -102 -99c-54 0 -102 30 -102 99z" />
    <glyph glyph-name="a.ss01" horiz-adv-x="625" 
d="M399 58c-31 -40 -84 -74 -156 -74c-154 0 -221 124 -221 256s67 256 221 256c72 0 125 -34 156 -74v58h185v-480h-185v58zM240 240c0 -43 21 -87 73 -87c29 0 52 17 62 34v106c-10 17 -33 34 -62 34c-52 0 -73 -44 -73 -87z" />
    <glyph glyph-name="aacute.ss01" horiz-adv-x="625" 
d="M399 58c-31 -40 -84 -74 -156 -74c-154 0 -221 124 -221 256s67 256 221 256c72 0 125 -34 156 -74v58h185v-480h-185v58zM240 240c0 -43 21 -87 73 -87c29 0 52 17 62 34v106c-10 17 -33 34 -62 34c-52 0 -73 -44 -73 -87zM384 532h-183l98 164h207z" />
    <glyph glyph-name="abreve.ss01" horiz-adv-x="625" 
d="M399 58c-31 -40 -84 -74 -156 -74c-154 0 -221 124 -221 256s67 256 221 256c72 0 125 -34 156 -74v58h185v-480h-185v58zM240 240c0 -43 21 -87 73 -87c29 0 52 17 62 34v106c-10 17 -33 34 -62 34c-52 0 -73 -44 -73 -87zM496 572c-50 -33 -110 -51 -181 -51
s-131 18 -181 51v143c54 -33 116 -46 181 -46c64 0 127 13 181 46v-143z" />
    <glyph glyph-name="acircumflex.ss01" horiz-adv-x="625" 
d="M399 58c-31 -40 -84 -74 -156 -74c-154 0 -221 124 -221 256s67 256 221 256c72 0 125 -34 156 -74v58h185v-480h-185v58zM240 240c0 -43 21 -87 73 -87c29 0 52 17 62 34v106c-10 17 -33 34 -62 34c-52 0 -73 -44 -73 -87zM221 698h185l128 -171h-175l-45 57l-45 -57
h-176z" />
    <glyph glyph-name="adieresis.ss01" horiz-adv-x="625" 
d="M399 58c-31 -40 -84 -74 -156 -74c-154 0 -221 124 -221 256s67 256 221 256c72 0 125 -34 156 -74v58h185v-480h-185v58zM240 240c0 -43 21 -87 73 -87c29 0 52 17 62 34v106c-10 17 -33 34 -62 34c-52 0 -73 -44 -73 -87zM527 614c0 -58 -42 -96 -97 -96
c-54 0 -96 38 -96 96s42 96 96 96c55 0 97 -38 97 -96zM296 614c0 -58 -42 -96 -97 -96c-54 0 -96 38 -96 96s42 96 96 96c55 0 97 -38 97 -96z" />
    <glyph glyph-name="agrave.ss01" horiz-adv-x="625" 
d="M399 58c-31 -40 -84 -74 -156 -74c-154 0 -221 124 -221 256s67 256 221 256c72 0 125 -34 156 -74v58h185v-480h-185v58zM240 240c0 -43 21 -87 73 -87c29 0 52 17 62 34v106c-10 17 -33 34 -62 34c-52 0 -73 -44 -73 -87zM427 532h-183l-122 164h206z" />
    <glyph glyph-name="amacron.ss01" horiz-adv-x="625" 
d="M399 58c-31 -40 -84 -74 -156 -74c-154 0 -221 124 -221 256s67 256 221 256c72 0 125 -34 156 -74v58h185v-480h-185v58zM240 240c0 -43 21 -87 73 -87c29 0 52 17 62 34v106c-10 17 -33 34 -62 34c-52 0 -73 -44 -73 -87zM134 678h363v-145h-363v145z" />
    <glyph glyph-name="aogonek.ss01" horiz-adv-x="625" 
d="M584 480v-480c-37 -27 -55 -57 -55 -76c0 -16 10 -23 26 -23c8 0 17 2 25 5v-126c-29 -11 -62 -16 -98 -16c-87 0 -128 48 -127 105c0 46 33 97 80 131h-36v58c-31 -40 -84 -74 -156 -74c-154 0 -221 124 -221 256s67 256 221 256c72 0 125 -34 156 -74v58h185zM313 153
c29 0 52 17 62 34v106c-10 17 -33 34 -62 34c-52 0 -73 -44 -73 -87s21 -87 73 -87z" />
    <glyph glyph-name="aring.ss01" horiz-adv-x="625" 
d="M399 58c-31 -40 -84 -74 -156 -74c-154 0 -221 124 -221 256s67 256 221 256c72 0 125 -34 156 -74v58h185v-480h-185v58zM240 240c0 -43 21 -87 73 -87c29 0 52 17 62 34v106c-10 17 -33 34 -62 34c-52 0 -73 -44 -73 -87zM458 637c0 -87 -64 -132 -142 -132
c-75 0 -141 45 -141 132c0 82 66 129 141 129c78 0 142 -47 142 -129zM283 636c0 -19 11 -35 34 -35s34 16 34 35s-11 34 -34 34s-34 -15 -34 -34z" />
    <glyph glyph-name="atilde.ss01" horiz-adv-x="625" 
d="M399 58c-31 -40 -84 -74 -156 -74c-154 0 -221 124 -221 256s67 256 221 256c72 0 125 -34 156 -74v58h185v-480h-185v58zM240 240c0 -43 21 -87 73 -87c29 0 52 17 62 34v106c-10 17 -33 34 -62 34c-52 0 -73 -44 -73 -87zM514 694c26 -98 -26 -180 -114 -180
c-67 0 -107 42 -136 42c-21 0 -23 -23 -19 -36h-133c-26 98 25 180 114 180c66 0 107 -42 135 -42c22 0 23 23 20 36h133z" />
    <glyph glyph-name="ae.ss01" horiz-adv-x="919" 
d="M399 58c-31 -40 -84 -74 -156 -74c-154 0 -221 124 -221 256s67 256 221 256c72 0 125 -34 156 -74v58h175v-53c33 45 82 69 139 69c173 0 207 -168 177 -306h-296c17 -39 75 -58 136 -58c50 0 94 7 123 18v-142c-32 -15 -70 -24 -117 -24c-58 0 -117 18 -162 75v-59
h-175v58zM240 240c0 -43 21 -87 73 -87c29 0 52 17 62 34v106c-10 17 -33 34 -62 34c-52 0 -73 -44 -73 -87zM660 357c-42 0 -69 -30 -69 -69h127c5 28 -9 69 -58 69z" />
    <glyph glyph-name="y.ss01" 
d="M554 22c0 -178 -133 -258 -286 -258c-74 0 -149 11 -208 34v177c41 -25 107 -40 164 -40c66 0 119 19 119 82v20c-35 -27 -75 -42 -122 -42c-132 0 -185 94 -185 186v299h211v-274c0 -32 19 -46 46 -46c23 0 41 13 50 24v296h211v-458z" />
    <glyph glyph-name="yacute.ss01" 
d="M554 22c0 -178 -133 -258 -286 -258c-74 0 -149 11 -208 34v177c41 -25 107 -40 164 -40c66 0 119 19 119 82v20c-35 -27 -75 -42 -122 -42c-132 0 -185 94 -185 186v299h211v-274c0 -32 19 -46 46 -46c23 0 41 13 50 24v296h211v-458zM365 532h-183l98 164h207z" />
    <glyph glyph-name="ycircumflex.ss01" 
d="M554 22c0 -178 -133 -258 -286 -258c-74 0 -149 11 -208 34v177c41 -25 107 -40 164 -40c66 0 119 19 119 82v20c-35 -27 -75 -42 -122 -42c-132 0 -185 94 -185 186v299h211v-274c0 -32 19 -46 46 -46c23 0 41 13 50 24v296h211v-458zM202 698h185l128 -171h-175l-45 57
l-45 -57h-176z" />
    <glyph glyph-name="ydieresis.ss01" 
d="M554 22c0 -178 -133 -258 -286 -258c-74 0 -149 11 -208 34v177c41 -25 107 -40 164 -40c66 0 119 19 119 82v20c-35 -27 -75 -42 -122 -42c-132 0 -185 94 -185 186v299h211v-274c0 -32 19 -46 46 -46c23 0 41 13 50 24v296h211v-458zM508 614c0 -58 -42 -96 -97 -96
c-54 0 -96 38 -96 96s42 96 96 96c55 0 97 -38 97 -96zM277 614c0 -58 -42 -96 -97 -96c-54 0 -96 38 -96 96s42 96 96 96c55 0 97 -38 97 -96z" />
    <glyph glyph-name="ygrave.ss01" 
d="M554 22c0 -178 -133 -258 -286 -258c-74 0 -149 11 -208 34v177c41 -25 107 -40 164 -40c66 0 119 19 119 82v20c-35 -27 -75 -42 -122 -42c-132 0 -185 94 -185 186v299h211v-274c0 -32 19 -46 46 -46c23 0 41 13 50 24v296h211v-458zM408 532h-183l-122 164h206z" />
    <glyph glyph-name="f_b" horiz-adv-x="1028" 
d="M655 451c29 26 73 45 131 45c153 0 220 -124 220 -256s-67 -256 -220 -256c-72 0 -125 34 -157 74v-58h-185v538c-22 8 -46 13 -68 12c-41 0 -73 -17 -73 -56v-14h89v-168h-89v-312h-211v312h-68v168h68v26c0 144 102 215 228 215c55 0 105 -10 153 -27l182 20v-263z
M655 187c10 -17 33 -34 62 -34c51 0 73 44 73 87s-22 87 -73 87c-29 0 -53 -17 -62 -34v-106z" />
    <glyph glyph-name="f_f_b" horiz-adv-x="1377" 
d="M1004 451c29 26 73 45 131 45c153 0 220 -124 220 -256s-67 -256 -220 -256c-72 0 -125 34 -157 74v-58h-185v548c-22 8 -46 13 -68 12c-41 0 -73 -17 -73 -61v-19h89v-168h-89v-312h-211v312h-138v-312h-211v312h-68v168h68v23c0 142 106 205 228 205
c55 0 116 -11 178 -40c41 42 103 63 171 63c55 0 105 -10 154 -27l181 20v-273zM442 480v30v23c-22 11 -47 16 -73 16c-39 0 -66 -20 -66 -55v-14h139zM1004 187c10 -17 33 -34 62 -34c51 0 73 44 73 87s-22 87 -73 87c-29 0 -53 -17 -62 -34v-106z" />
    <glyph glyph-name="f_f_h" horiz-adv-x="1347" 
d="M1004 454c35 28 75 42 121 42c132 0 186 -93 186 -186v-310h-211v274c0 32 -20 46 -46 46c-23 0 -41 -13 -50 -24v-296h-211v548c-22 8 -46 13 -68 12c-41 0 -73 -17 -73 -61v-19h89v-168h-89v-312h-211v312h-138v-312h-211v312h-68v168h68v23c0 142 106 205 228 205
c55 0 116 -11 178 -40c41 42 103 63 171 63c55 0 105 -10 154 -27l181 20v-270zM442 480v30v23c-22 11 -47 16 -73 16c-39 0 -66 -20 -66 -55v-14h139z" />
    <glyph glyph-name="f_f_j" horiz-adv-x="1031" 
d="M990 -57c0 -135 -99 -181 -192 -181c-35 0 -69 7 -96 17v170c7 -2 18 -4 28 -4c25 0 50 11 50 53v314h-128v-312h-211v312h-138v-312h-211v312h-68v168h68v23c0 142 106 205 228 205c56 0 117 -11 179 -40c47 46 120 68 204 68c60 0 127 -12 193 -33v-164
c-54 18 -106 27 -148 27c-57 0 -96 -20 -96 -65v-21h338v-537zM303 494v-14h139v30v23c-22 11 -47 16 -73 16c-39 0 -66 -20 -66 -55z" />
    <glyph glyph-name="f_f_k" horiz-adv-x="1348" 
d="M1349 480l-149 -238l154 -242h-227l-93 162h-30v-162h-211v548c-22 8 -46 13 -68 12c-41 0 -73 -17 -73 -61v-19h89v-168h-89v-312h-211v312h-138v-312h-211v312h-68v168h68v23c0 142 106 205 228 205c55 0 116 -11 178 -40c41 42 103 63 171 63c55 0 105 -10 154 -27
l181 20v-398h33l85 154h227zM442 480v30v23c-22 11 -47 16 -73 16c-39 0 -66 -20 -66 -55v-14h139z" />
    <glyph glyph-name="f_h" horiz-adv-x="998" 
d="M655 454c35 28 75 42 121 42c132 0 186 -93 186 -186v-310h-211v274c0 32 -20 46 -46 46c-23 0 -41 -13 -50 -24v-296h-211v538c-22 8 -46 13 -68 12c-41 0 -73 -17 -73 -56v-14h89v-168h-89v-312h-211v312h-68v168h68v26c0 144 102 215 228 215c55 0 105 -10 153 -27
l182 20v-260z" />
    <glyph glyph-name="f_i" horiz-adv-x="673" 
d="M303 480h329v-480h-210v312h-119v-312h-211v312h-68v168h68v27c0 154 114 220 262 220c60 0 127 -12 193 -33v-164c-54 18 -106 27 -148 27c-57 0 -96 -20 -96 -65v-12z" />
    <glyph glyph-name="f_j" horiz-adv-x="673" 
d="M303 480h329v-537c0 -135 -99 -181 -192 -181c-35 0 -69 7 -96 17v170c7 -2 18 -4 28 -4c26 0 50 11 50 53v314h-119v-312h-211v312h-68v168h68v27c0 154 114 220 262 220c60 0 127 -12 193 -33v-164c-54 18 -106 27 -148 27c-57 0 -96 -20 -96 -65v-12z" />
    <glyph glyph-name="f_k" horiz-adv-x="999" 
d="M1000 480l-149 -238l154 -242h-227l-93 162h-30v-162h-211v538c-22 8 -46 13 -68 12c-41 0 -73 -17 -73 -56v-14h89v-168h-89v-312h-211v312h-68v168h68v26c0 144 102 215 228 215c55 0 105 -10 153 -27l182 20v-388h33l85 154h227z" />
    <glyph glyph-name="f_l" horiz-adv-x="696" 
d="M320 727c55 0 105 -10 153 -27l182 20v-720h-211v543c-22 9 -46 13 -68 13c-41 -1 -73 -18 -73 -62v-14h89v-168h-89v-312h-211v312h-68v168h68v31c0 145 102 216 228 216z" />
    <glyph glyph-name="uni0410" unicode="&#x410;" horiz-adv-x="765" 
d="M231 0h-234l262 700h248l261 -700h-234l-30 93h-242zM364 409l-49 -149h137l-49 149c-8 26 -15 54 -20 90c-5 -36 -12 -64 -19 -90z" />
    <glyph glyph-name="uni0411" unicode="&#x411;" horiz-adv-x="683" 
d="M284 449h112c136 0 269 -43 269 -225c0 -181 -133 -224 -269 -224h-343v700h553v-185h-322v-66zM284 168h83c40 0 69 11 69 56s-29 57 -69 57h-83v-113z" />
    <glyph glyph-name="uni0412" unicode="&#x412;" horiz-adv-x="699" 
d="M53 700h350c158 0 248 -55 248 -177c0 -72 -28 -123 -100 -151c82 -25 128 -82 128 -172c0 -159 -138 -200 -285 -200h-341v700zM449 227c0 37 -23 57 -67 57h-98v-114h98c44 0 67 20 67 57zM429 478c0 29 -19 52 -58 52h-87v-103l87 -1c39 0 58 24 58 52z" />
    <glyph glyph-name="uni0413" unicode="&#x413;" horiz-adv-x="588" 
d="M284 0h-231v700h525v-202h-294v-498z" />
    <glyph glyph-name="uni0414" unicode="&#x414;" horiz-adv-x="850" 
d="M223 -136h-205v330h83c88 161 103 335 103 506h532v-506h91v-330h-205v136h-399v-136zM408 504c-10 -121 -25 -222 -70 -310h170v310h-100z" />
    <glyph glyph-name="uni0415" unicode="&#x415;" horiz-adv-x="622" 
d="M53 700h530v-182h-299v-81h263v-170h-263v-83h305v-184h-536v700z" />
    <glyph glyph-name="uni0401" unicode="&#x401;" horiz-adv-x="622" 
d="M533 834c0 -58 -42 -96 -97 -96c-54 0 -96 38 -96 96s42 96 96 96c55 0 97 -38 97 -96zM302 834c0 -58 -42 -96 -97 -96c-54 0 -96 38 -96 96s42 96 96 96c55 0 97 -38 97 -96zM53 700h530v-182h-299v-81h263v-170h-263v-83h305v-184h-536v700z" />
    <glyph glyph-name="uni0416" unicode="&#x416;" horiz-adv-x="1045" 
d="M249 0h-254l187 353l-183 347h254l115 -248h39v248h231v-248h39l114 248h254l-182 -347l187 -353h-254l-124 250h-34v-250h-231v250h-35z" />
    <glyph glyph-name="uni0417" unicode="&#x417;" horiz-adv-x="631" 
d="M607 192c0 -163 -154 -208 -304 -208c-69 0 -160 9 -272 46v205c88 -43 177 -55 244 -55c56 0 101 12 101 51c0 29 -23 40 -60 40h-167v168h148c36 0 52 13 52 35c0 30 -31 45 -87 45c-62 0 -151 -20 -219 -54v205c93 37 180 46 240 46c184 0 296 -64 296 -198
c0 -67 -35 -124 -108 -149c85 -29 136 -83 136 -177z" />
    <glyph glyph-name="uni0418" unicode="&#x418;" horiz-adv-x="763" 
d="M710 0h-231v210c0 37 1 76 6 118l-237 -328h-195v700h231v-209c0 -38 -1 -78 -6 -120l237 329h195v-700z" />
    <glyph glyph-name="uni0419" unicode="&#x419;" horiz-adv-x="763" 
d="M479 0h231v700h-195l-237 -329c5 42 6 82 6 120v209h-231v-700h195l237 328c-5 -42 -6 -81 -6 -118v-210zM567 792c-50 -33 -110 -51 -181 -51s-131 18 -181 51v143c54 -33 116 -46 181 -46c64 0 127 13 181 46v-143z" />
    <glyph glyph-name="uni041A" unicode="&#x41a;" horiz-adv-x="728" 
d="M284 0h-231v700h231v-248h58l140 248h254l-213 -347l217 -353h-254l-149 250h-53v-250z" />
    <glyph glyph-name="uni041B" unicode="&#x41b;" horiz-adv-x="760" 
d="M168 700h539v-700h-231v498h-97c-19 -252 -60 -511 -272 -511c-37 0 -72 5 -105 15v200c25 -8 50 -6 70 6c91 43 84 309 96 492z" />
    <glyph glyph-name="uni041C" unicode="&#x41c;" horiz-adv-x="907" 
d="M649 700h205v-700h-225v320l-115 -178h-121l-115 179v-321h-225v700h205l195 -306z" />
    <glyph glyph-name="uni041D" unicode="&#x41d;" horiz-adv-x="757" 
d="M474 700h230v-700h-230v249h-190v-249h-231v700h231v-249h190v249z" />
    <glyph glyph-name="uni041E" unicode="&#x41e;" horiz-adv-x="806" 
d="M24 350c0 201 127 366 379 366s379 -165 379 -366s-127 -366 -379 -366s-379 165 -379 366zM545 350c0 96 -52 157 -142 157s-142 -61 -142 -157s52 -157 142 -157s142 61 142 157z" />
    <glyph glyph-name="uni041F" unicode="&#x41f;" horiz-adv-x="762" 
d="M283 0h-230v700h656v-700h-230v498h-196v-498z" />
    <glyph glyph-name="uni0420" unicode="&#x420;" horiz-adv-x="691" 
d="M53 700h306c178 0 314 -62 314 -259c0 -196 -136 -258 -314 -258h-75v-183h-231v700zM444 441c0 49 -34 69 -87 69h-73v-137h73c53 0 87 20 87 68z" />
    <glyph glyph-name="uni0421" unicode="&#x421;" horiz-adv-x="650" 
d="M25 343c-1 266 191 373 383 373c72 0 144 -14 206 -42v-206c-39 27 -103 48 -165 48c-96 0 -187 -48 -187 -173c0 -110 90 -156 182 -156c72 0 139 18 175 50v-211c-62 -28 -131 -42 -205 -42c-198 0 -389 104 -389 359z" />
    <glyph glyph-name="uni0422" unicode="&#x422;" horiz-adv-x="630" 
d="M12 700h606v-202h-188v-498h-230v498h-188v202z" />
    <glyph glyph-name="uni0423" unicode="&#x423;" horiz-adv-x="713" 
d="M466 161c-60 -130 -137 -177 -253 -177c-39 0 -81 8 -127 21v186c25 -9 55 -14 82 -14c38 0 68 10 81 40l11 22l-266 461h247l128 -275l103 275h246z" />
    <glyph glyph-name="uni0424" unicode="&#x424;" horiz-adv-x="891" 
d="M551 -47h-209v90c-208 15 -335 126 -335 307s127 292 335 307v90h209v-90c207 -15 333 -126 333 -307s-126 -292 -333 -307v-90zM234 350c0 -55 23 -114 111 -125v250c-88 -11 -111 -70 -111 -125zM548 475v-250c86 12 108 70 108 125s-22 113 -108 125z" />
    <glyph glyph-name="uni0425" unicode="&#x425;" horiz-adv-x="731" 
d="M250 0h-269l240 361l-228 339h269l104 -181l103 181h269l-228 -339l240 -361h-269l-115 197z" />
    <glyph glyph-name="uni0427" unicode="&#x427;" horiz-adv-x="710" 
d="M657 0h-231v222c-44 -14 -93 -22 -142 -22c-149 0 -254 77 -254 238v262h231v-234c0 -47 39 -65 85 -65c27 0 56 6 80 17v282h231v-700z" />
    <glyph glyph-name="uni0426" unicode="&#x426;" horiz-adv-x="816" 
d="M791 -136h-205v136h-533v700h231v-498h191v498h231v-498h85v-338z" />
    <glyph glyph-name="uni0428" unicode="&#x428;" horiz-adv-x="1038" 
d="M985 0h-932v700h231v-498h120v498h231v-498h120v498h230v-700z" />
    <glyph glyph-name="uni0429" unicode="&#x429;" horiz-adv-x="1096" 
d="M1071 -136h-205v136h-813v700h231v-498h120v498h231v-498h120v498h230v-498h86v-338z" />
    <glyph glyph-name="uni042F" unicode="&#x42f;" horiz-adv-x="725" 
d="M259 0h-260l178 247c-78 38 -128 103 -128 204c0 186 145 249 298 249h325v-700h-230v207h-39zM282 446c0 -39 26 -66 78 -66h82v132h-82c-52 0 -78 -27 -78 -66z" />
    <glyph glyph-name="uni042C" unicode="&#x42c;" horiz-adv-x="677" 
d="M359 0h-306v700h231v-200h75c161 0 302 -53 302 -250c0 -196 -141 -250 -302 -250zM284 310v-120h73c41 0 76 17 76 60s-35 60 -76 60h-73z" />
    <glyph glyph-name="uni042A" unicode="&#x42a;" horiz-adv-x="791" 
d="M472 0h-306v498h-152v202h383v-200h75c161 0 303 -53 303 -250c0 -196 -142 -250 -303 -250zM397 310v-120h73c41 0 76 17 76 60s-35 60 -76 60h-73z" />
    <glyph glyph-name="uni042B" unicode="&#x42b;" horiz-adv-x="988" 
d="M359 0h-306v700h231v-200h75c161 0 302 -53 302 -250c0 -196 -141 -250 -302 -250zM284 310v-120h73c41 0 76 17 76 60s-35 60 -76 60h-73zM935 0h-231v700h231v-700z" />
    <glyph glyph-name="uni042D" unicode="&#x42d;" horiz-adv-x="650" 
d="M37 674c62 28 134 42 206 42c192 0 384 -107 383 -373c0 -255 -191 -359 -389 -359c-69 0 -138 14 -200 42v199c39 -33 107 -49 174 -49c84 0 156 19 183 87h-256v175h254c-30 69 -99 87 -182 88c-63 0 -131 -19 -173 -47v195z" />
    <glyph glyph-name="uni042E" unicode="&#x42e;" horiz-adv-x="1120" 
d="M1096 350c0 -201 -128 -366 -380 -366c-203 0 -324 115 -358 265h-74v-249h-231v700h231v-249h74c34 150 155 265 358 265c252 0 380 -165 380 -366zM575 350c0 -96 52 -157 142 -157s142 61 142 157s-52 157 -142 157s-142 -61 -142 -157z" />
    <glyph glyph-name="uni0414.loclBGR" horiz-adv-x="877" 
d="M229 -136h-205v330h85l205 506h249l205 -506h85v-330h-205v136h-419v-136zM439 467l-97 -273h194z" />
    <glyph glyph-name="uni041B.loclBGR" horiz-adv-x="744" 
d="M254 700h236l256 -700h-245l-129 429l-130 -429h-245z" />
    <glyph glyph-name="uni0424.loclBGR" horiz-adv-x="903" 
d="M557 -90h-209v95c-220 22 -341 168 -341 345s121 323 341 345v95h209v-95c218 -23 338 -169 338 -345s-120 -322 -338 -345v-95zM237 350c0 -59 18 -142 113 -154v308c-95 -12 -113 -95 -113 -154zM554 503v-306c94 12 111 95 111 153c0 59 -17 141 -111 153z" />
    <glyph glyph-name="uni0430" unicode="&#x430;" horiz-adv-x="584" 
d="M524 152c0 -19 12 -26 28 -26c6 0 13 1 19 2v-123c-26 -11 -71 -18 -106 -18c-52 0 -95 16 -120 51c-43 -35 -94 -54 -160 -54c-90 0 -167 49 -167 145c0 122 112 156 211 156c27 0 67 -3 95 -9v11c0 34 -29 53 -95 53c-60 0 -118 -14 -173 -34v158c47 14 127 32 197 32
c165 0 271 -47 271 -233v-111zM282 189c-29 0 -60 -11 -60 -43c0 -24 21 -38 47 -38c20 0 38 5 55 16v59c-11 4 -26 6 -42 6z" />
    <glyph glyph-name="uni0431" unicode="&#x431;" horiz-adv-x="587" 
d="M564 208c0 -154 -123 -224 -261 -224c-140 0 -276 66 -276 301c0 180 61 269 147 323c138 87 281 50 343 108v-185c-58 -51 -140 -30 -211 -60c-41 -17 -71 -60 -72 -101c30 32 74 57 138 57c104 0 192 -71 192 -219zM233 217c0 -31 12 -71 63 -71c50 0 62 40 62 71
s-12 70 -62 70c-51 0 -63 -39 -63 -70z" />
    <glyph glyph-name="uni0432" unicode="&#x432;" horiz-adv-x="559" 
d="M360 0h-319v480h308c147 0 176 -78 176 -127c0 -55 -25 -92 -73 -112c60 -21 89 -59 89 -115c0 -54 -34 -126 -181 -126zM239 188v-68h58c26 0 42 13 42 34c0 22 -15 34 -43 34h-57zM239 359v-68h51c26 0 42 12 42 34c0 21 -15 34 -42 34h-51z" />
    <glyph glyph-name="uni0433" unicode="&#x433;" horiz-adv-x="439" 
d="M252 0h-211v480h384v-168h-173v-312z" />
    <glyph glyph-name="uni0434" unicode="&#x434;" horiz-adv-x="673" 
d="M205 -123h-189v271h66c54 97 65 210 63 332h438v-332h68v-271h-189v123h-257v-123zM321 331c-2 -68 -12 -122 -40 -183h106v183h-66z" />
    <glyph glyph-name="uni0435" unicode="&#x435;" horiz-adv-x="547" 
d="M21 243c0 188 151 253 258 253c216 0 270 -165 240 -304h-296c17 -41 75 -60 137 -60c51 0 97 6 138 19v-142c-47 -16 -100 -25 -175 -25c-154 0 -302 74 -302 259zM348 289c5 28 -9 68 -58 68c-42 0 -69 -29 -69 -68h127z" />
    <glyph glyph-name="uni0451" unicode="&#x451;" horiz-adv-x="547" 
d="M489 614c0 -58 -42 -96 -97 -96c-54 0 -96 38 -96 96s42 96 96 96c55 0 97 -38 97 -96zM258 614c0 -58 -42 -96 -97 -96c-54 0 -96 38 -96 96s42 96 96 96c55 0 97 -38 97 -96zM21 243c0 188 151 253 258 253c216 0 270 -165 240 -304h-296c17 -41 75 -60 137 -60
c51 0 97 6 138 19v-142c-47 -16 -100 -25 -175 -25c-154 0 -302 74 -302 259zM348 289c5 28 -9 68 -58 68c-42 0 -69 -29 -69 -68h127z" />
    <glyph glyph-name="uni0436" unicode="&#x436;" horiz-adv-x="859" 
d="M855 0h-219l-74 153h-31v-153h-203v153h-31l-74 -153h-219l125 238l-120 242h219l74 -163h26v163h203v-163h26l74 163h219l-120 -242z" />
    <glyph glyph-name="uni0437" unicode="&#x437;" horiz-adv-x="498" 
d="M476 134c0 -71 -56 -150 -255 -150c-90 0 -152 18 -196 39v143c39 -19 109 -37 166 -37c40 0 67 8 67 31c0 22 -23 26 -54 26h-96v113h88c30 0 52 5 52 25c0 18 -19 28 -60 28c-48 0 -117 -17 -152 -35v144c41 19 124 36 201 36c192 -2 229 -83 229 -143
c0 -55 -33 -94 -78 -108c61 -19 88 -60 88 -112z" />
    <glyph glyph-name="uni0438" unicode="&#x438;" horiz-adv-x="605" 
d="M206 0h-165v480h198v-194l160 194h165v-480h-198v194z" />
    <glyph glyph-name="uni0439" unicode="&#x439;" horiz-adv-x="605" 
d="M470 567c-44 -26 -104 -41 -168 -41c-63 0 -123 15 -167 41v135c48 -26 111 -36 167 -36c57 0 119 10 168 36v-135zM206 0h-165v480h198v-194l160 194h165v-480h-198v194z" />
    <glyph glyph-name="uni043A" unicode="&#x43a;" horiz-adv-x="597" 
d="M252 0h-211v480h211v-154h31l85 154h229l-148 -237l153 -243h-229l-91 162h-30v-162z" />
    <glyph glyph-name="uni043B" unicode="&#x43b;" horiz-adv-x="614" 
d="M305 316c-19 -207 -64 -329 -201 -329c-31 0 -66 5 -97 15v170c16 -4 29 -5 41 -3c65 12 66 143 75 311h450v-480h-211v316h-57z" />
    <glyph glyph-name="uni043C" unicode="&#x43c;" horiz-adv-x="685" 
d="M232 0h-191v480h172l129 -206l130 206h172v-480h-191v202l-74 -118h-73l-74 118v-202z" />
    <glyph glyph-name="uni043D" unicode="&#x43d;" horiz-adv-x="601" 
d="M252 0h-211v480h211v-159h97v159h211v-480h-211v159h-97v-159z" />
    <glyph glyph-name="uni043E" unicode="&#x43e;" 
d="M21 240c0 173 126 256 276 256s277 -83 277 -256s-127 -256 -277 -256s-276 83 -276 256zM368 240c0 45 -18 82 -71 82c-52 0 -70 -37 -70 -82s18 -82 70 -82c53 0 71 37 71 82z" />
    <glyph glyph-name="uni043F" unicode="&#x43f;" horiz-adv-x="597" 
d="M252 0h-211v480h515v-480h-210v312h-94v-312z" />
    <glyph glyph-name="uni0440" unicode="&#x440;" horiz-adv-x="625" 
d="M226 422c32 40 85 74 157 74c153 0 220 -124 220 -256s-67 -256 -220 -256c-58 0 -102 19 -131 45v-249h-211v700h185v-58zM386 240c0 43 -22 87 -73 87c-29 0 -52 -17 -62 -34v-106c9 -17 33 -34 62 -34c51 0 73 44 73 87z" />
    <glyph glyph-name="uni0441" unicode="&#x441;" horiz-adv-x="490" 
d="M21 227c0 194 142 271 285 271c51 0 102 -11 148 -29v-173c-30 15 -72 27 -110 27c-56 0 -106 -22 -106 -83c0 -59 48 -81 102 -81c46 0 89 10 119 24v-172c-50 -17 -106 -27 -167 -27c-138 0 -271 70 -271 243z" />
    <glyph glyph-name="uni0442" unicode="&#x442;" horiz-adv-x="488" 
d="M349 0h-210v312h-124v168h458v-168h-124v-312z" />
    <glyph glyph-name="uni0443" unicode="&#x443;" horiz-adv-x="604" 
d="M313 217l73 263h214l-183 -509c-57 -159 -158 -206 -256 -206c-38 0 -71 7 -105 17v170c23 -6 45 -10 71 -10c37 0 69 16 89 55l-220 483h218z" />
    <glyph glyph-name="uni0444" unicode="&#x444;" horiz-adv-x="800" 
d="M497 -220h-195v204c-164 8 -282 102 -282 256s118 248 282 256v204h195v-204c165 -8 283 -102 283 -256s-118 -248 -283 -256v-204zM224 240c0 -45 23 -84 81 -90v180c-58 -6 -81 -44 -81 -90zM495 330v-180c57 6 81 45 81 90c0 46 -24 84 -81 90z" />
    <glyph glyph-name="uni0445" unicode="&#x445;" horiz-adv-x="571" 
d="M351 480h222l-160 -241l166 -239h-226l-67 110l-67 -110h-227l166 239l-159 241h221l66 -115z" />
    <glyph glyph-name="uni0447" unicode="&#x447;" horiz-adv-x="572" 
d="M531 0h-211v130c-32 -11 -68 -15 -109 -15c-89 0 -187 51 -187 179v186h211v-159c0 -28 19 -38 42 -38c15 0 30 3 43 8v189h211v-480z" />
    <glyph glyph-name="uni0446" unicode="&#x446;" horiz-adv-x="649" 
d="M625 -123h-189v123h-395v480h211v-312h94v312h210v-314h69v-289z" />
    <glyph glyph-name="uni0448" unicode="&#x448;" horiz-adv-x="857" 
d="M816 0h-775v480h211v-312h71v312h211v-312h72v312h210v-480z" />
    <glyph glyph-name="uni0449" unicode="&#x449;" horiz-adv-x="909" 
d="M885 -123h-189v123h-655v480h211v-312h71v312h211v-312h72v312h210v-314h69v-289z" />
    <glyph glyph-name="uni044F" unicode="&#x44f;" horiz-adv-x="580" 
d="M228 0h-220l111 153c-60 32 -87 90 -87 149c0 88 62 178 209 178h298v-480h-198v126h-29zM238 294c0 -27 17 -43 52 -43h51v87h-51c-35 0 -52 -17 -52 -44z" />
    <glyph glyph-name="uni044C" unicode="&#x44c;" horiz-adv-x="564" 
d="M345 0h-304v480h211v-123h93c136 0 204 -78 204 -178s-68 -179 -204 -179zM251 229v-95h35c36 0 55 19 55 47c0 29 -19 48 -55 48h-35z" />
    <glyph glyph-name="uni044A" unicode="&#x44a;" horiz-adv-x="652" 
d="M339 357h94c136 0 204 -78 204 -178s-68 -179 -204 -179h-304v323h-115v157h325v-123zM339 134h35c36 0 55 19 55 47c0 29 -19 48 -55 48h-35v-95z" />
    <glyph glyph-name="uni044B" unicode="&#x44b;" horiz-adv-x="852" 
d="M345 0h-304v480h211v-123h93c136 0 204 -78 204 -178s-68 -179 -204 -179zM251 229v-95h35c36 0 55 19 55 47c0 29 -19 48 -55 48h-35zM811 0h-211v480h211v-480z" />
    <glyph glyph-name="uni044D" unicode="&#x44d;" horiz-adv-x="516" 
d="M495 229c0 -173 -146 -245 -273 -245c-87 0 -132 11 -193 42v149c38 -27 93 -41 141 -41c56 0 104 12 121 47h-179v118h179c-17 34 -63 47 -118 47c-43 0 -99 -14 -139 -41v150c57 29 110 41 178 41c151 0 283 -82 283 -267z" />
    <glyph glyph-name="uni044E" unicode="&#x44e;" horiz-adv-x="852" 
d="M831 240c0 -173 -126 -256 -276 -256c-115 0 -221 58 -254 177h-51v-161h-209v480h209v-161h51c33 119 139 177 254 177c150 0 276 -83 276 -256zM484 240c0 -40 16 -81 70 -81c56 0 71 41 71 81s-15 81 -71 81c-54 0 -70 -41 -70 -81z" />
    <glyph glyph-name="uni0432.loclBGR" horiz-adv-x="609" 
d="M544 530c0 -58 -26 -107 -79 -139c70 -25 124 -87 124 -175c0 -144 -110 -232 -272 -232c-170 0 -287 77 -287 322v68c-1 227 105 342 287 342c136 0 227 -84 227 -186zM353 501c0 27 -13 48 -43 48c-39 0 -71 -28 -76 -127l57 10c43 9 62 41 62 69zM234 275
c2 -89 25 -119 78 -119c44 0 72 29 72 71c0 39 -33 68 -86 59z" />
    <glyph glyph-name="uni0433.loclBGR" horiz-adv-x="498" 
d="M463 26c-54 -29 -118 -42 -201 -42c-128 0 -242 37 -242 155c0 185 232 139 232 191c0 15 -16 21 -39 21c-53 0 -116 -19 -156 -43v147c52 25 118 41 196 41c112 0 218 -36 218 -154c0 -173 -233 -139 -233 -188c0 -13 13 -20 52 -20c47 0 119 14 173 54v-162z" />
    <glyph glyph-name="uni0434.loclBGR" horiz-adv-x="625" 
d="M22 246c0 132 67 250 221 250c72 0 125 -34 156 -74v58h185v-449c0 -198 -142 -267 -293 -267c-88 0 -151 13 -218 41v174c53 -29 112 -44 180 -44s121 19 121 82v24c-29 -27 -73 -46 -131 -46c-154 0 -221 119 -221 251zM375 296c-10 17 -33 34 -62 34
c-52 0 -73 -44 -73 -87s21 -87 73 -87c29 0 52 17 62 34v106z" />
    <glyph glyph-name="uni0436.loclBGR" horiz-adv-x="859" 
d="M223 0h-219l126 238l-121 242h219l71 -157h29v377h203v-377h29l71 157h219l-121 -242l126 -238h-219l-78 160h-27v-160h-203v160h-27z" />
    <glyph glyph-name="uni0438.loclBGR" 
d="M343 480h211v-480h-185v48c-42 -42 -90 -64 -148 -64c-132 0 -185 93 -185 186v310h211v-274c0 -32 19 -46 46 -46c23 0 41 13 50 24v296z" />
    <glyph glyph-name="uni0439.loclBGR" 
d="M463 567c-44 -26 -104 -41 -168 -41c-63 0 -123 15 -167 41v135c48 -26 111 -36 167 -36c57 0 119 10 168 36v-135zM343 480h211v-480h-185v48c-42 -42 -90 -64 -148 -64c-132 0 -185 93 -185 186v310h211v-274c0 -32 19 -46 46 -46c23 0 41 13 50 24v296z" />
    <glyph glyph-name="uni043A.loclBGR" horiz-adv-x="597" 
d="M602 0h-229l-91 162h-30v-162h-211v700h211v-374h31l85 154h229l-148 -237z" />
    <glyph glyph-name="uni043B.loclBGR" horiz-adv-x="599" 
d="M597 0h-221l-76 279l-76 -279h-222l186 480h223z" />
    <glyph glyph-name="uni043F.loclBGR" 
d="M226 432c42 42 89 64 147 64c132 0 186 -93 186 -186v-310h-211v274c0 32 -20 46 -46 46c-23 0 -41 -13 -50 -24v-296h-211v480h185v-48z" />
    <glyph glyph-name="uni0442.loclBGR" horiz-adv-x="865" 
d="M249 0h-208v480h185v-45c28 31 86 61 147 61c68 0 111 -25 137 -64c38 38 93 64 150 64c127 0 169 -92 169 -194v-302h-208v285c0 24 -16 35 -36 35c-16 0 -31 -7 -44 -18v-14v-288h-208v285c0 24 -16 35 -35 35c-18 0 -36 -9 -49 -23v-297z" />
    <glyph glyph-name="uni0446.loclBGR" horiz-adv-x="640" 
d="M554 152c0 -15 10 -25 25 -25h43v-250h-183v119c-30 6 -55 26 -69 52c-36 -41 -88 -64 -149 -64c-132 0 -185 93 -185 186v310h211v-274c0 -32 19 -46 46 -46c23 0 41 13 50 24v296h211v-328z" />
    <glyph glyph-name="uni0448.loclBGR" horiz-adv-x="865" 
d="M616 480h208v-480h-185v45c-28 -31 -86 -61 -147 -61c-68 0 -111 25 -137 64c-38 -38 -93 -64 -150 -64c-127 0 -169 92 -169 194v302h208v-285c0 -24 16 -35 36 -35c16 0 31 7 44 18v14v288h208v-285c0 -24 16 -35 35 -35c18 0 36 9 49 23v297z" />
    <glyph glyph-name="uni0449.loclBGR" horiz-adv-x="913" 
d="M826 152c0 -15 10 -25 25 -25h44v-250h-183v118c-30 7 -55 26 -70 52c-32 -36 -87 -63 -148 -63c-66 0 -110 25 -137 63c-37 -36 -92 -63 -150 -63c-127 0 -171 92 -171 194v302h211v-285c0 -23 16 -35 35 -35c15 0 30 7 41 18v302h211v-285c0 -23 16 -35 35 -35
c17 0 34 9 46 23v297h211v-328z" />
    <glyph glyph-name="uni044E.loclBGR" horiz-adv-x="852" 
d="M831 240c0 -173 -126 -256 -276 -256c-115 0 -221 58 -254 177h-51v-161h-209v700h209v-381h51c33 119 139 177 254 177c150 0 276 -83 276 -256zM484 240c0 -40 16 -81 70 -81c56 0 71 41 71 81s-15 81 -71 81c-54 0 -70 -41 -70 -81z" />
    <glyph glyph-name="uni0430.ss01" horiz-adv-x="625" 
d="M399 58c-31 -40 -84 -74 -156 -74c-154 0 -221 124 -221 256s67 256 221 256c72 0 125 -34 156 -74v58h185v-480h-185v58zM240 240c0 -43 21 -87 73 -87c29 0 52 17 62 34v106c-10 17 -33 34 -62 34c-52 0 -73 -44 -73 -87z" />
    <glyph glyph-name="uni0437.ss01" horiz-adv-x="483" 
d="M431 310c0 -59 -24 -107 -76 -139c69 -26 121 -88 121 -175c0 -157 -132 -232 -285 -232c-67 0 -126 11 -182 38v157c47 -26 96 -37 148 -37c63 0 118 22 118 84c0 43 -30 79 -103 62l-55 -12v142l62 14c47 11 63 38 63 67c0 44 -38 61 -88 61c-47 0 -93 -13 -135 -38
v154c57 28 118 40 178 40c129 0 234 -58 234 -186z" />
    <glyph glyph-name="uni0443.ss01" 
d="M554 22c0 -178 -133 -258 -286 -258c-74 0 -149 11 -208 34v177c41 -25 107 -40 164 -40c66 0 119 19 119 82v20c-35 -27 -75 -42 -122 -42c-132 0 -185 94 -185 186v299h211v-274c0 -32 19 -46 46 -46c23 0 41 13 50 24v296h211v-458z" />
    <glyph glyph-name="zero" unicode="0" horiz-adv-x="707" 
d="M32 340c0 191 92 356 322 356c229 0 321 -165 321 -356s-92 -356 -321 -356c-230 0 -322 165 -322 356zM445 340c0 111 -29 157 -91 157c-63 0 -92 -46 -92 -157s29 -157 92 -157c62 0 91 46 91 157z" />
    <glyph glyph-name="one" unicode="1" horiz-adv-x="505" 
d="M213 680h168v-491h105v-189h-444v189h116v273l-110 -41v196z" />
    <glyph glyph-name="two" unicode="2" horiz-adv-x="621" 
d="M55 623c74 47 165 73 255 73c141 0 269 -61 269 -220c0 -99 -62 -153 -127 -197c-52 -35 -100 -63 -121 -90h249v-188h-546v93c1 147 104 206 193 264c61 41 115 58 115 99c0 29 -25 43 -65 43c-67 0 -146 -29 -222 -86v209z" />
    <glyph glyph-name="three" unicode="3" horiz-adv-x="606" 
d="M548 501c0 -66 -37 -122 -107 -146c73 -19 135 -72 135 -167c0 -152 -142 -204 -289 -204c-93 0 -171 14 -247 43v198c71 -38 142 -52 222 -52c56 1 95 15 95 49c0 24 -22 38 -60 38h-121l1 171h99c33 -1 55 9 55 33c0 29 -30 41 -81 41c-57 0 -141 -24 -198 -61v193
c62 37 149 59 235 59c139 0 261 -56 261 -195z" />
    <glyph glyph-name="four" unicode="4" horiz-adv-x="677" 
d="M338 680h226v-410h85v-179h-85v-91h-208v91h-338v184zM356 270v159l-127 -159h127z" />
    <glyph glyph-name="five" unicode="5" horiz-adv-x="605" 
d="M84 680h462v-188l-261 1l-5 -69c20 3 40 5 60 5c122 0 234 -55 234 -212c0 -176 -158 -233 -312 -233c-79 0 -163 17 -225 46v188c45 -30 123 -49 188 -49c67 0 119 19 119 62c0 42 -49 62 -134 61c-48 0 -107 -7 -150 -20z" />
    <glyph glyph-name="six" unicode="6" horiz-adv-x="672" 
d="M257 404c48 27 100 40 156 40c122 0 232 -70 232 -218c0 -169 -132 -242 -280 -242c-235 0 -333 137 -333 359c0 251 164 353 345 353c78 0 150 -15 210 -45v-179c-49 29 -108 47 -163 47c-85 0 -147 -24 -167 -115zM256 258c13 -81 50 -105 97 -105c40 0 74 22 74 64
c0 48 -38 66 -84 66c-29 0 -58 -9 -87 -25z" />
    <glyph glyph-name="seven" unicode="7" horiz-adv-x="591" 
d="M22 680h555v-146l-254 -534h-249l234 492h-286v188z" />
    <glyph glyph-name="eight" unicode="8" horiz-adv-x="668" 
d="M55 493c0 98 81 203 280 203c192 0 279 -103 278 -195c-1 -71 -36 -108 -84 -140c62 -33 109 -82 109 -169c0 -108 -89 -208 -306 -208c-223 0 -302 100 -302 202c0 76 50 135 99 162c-41 32 -74 76 -74 145zM345 256c-22 7 -46 14 -69 22c-15 -19 -21 -42 -21 -62
c1 -33 26 -65 87 -65c46 0 70 21 70 46c0 33 -30 46 -67 59zM401 479c-1 28 -23 50 -72 50c-41 0 -62 -20 -62 -41c0 -32 33 -45 72 -57c15 -5 31 -10 44 -14c12 21 19 44 18 62z" />
    <glyph glyph-name="nine" unicode="9" horiz-adv-x="672" 
d="M27 454c0 169 133 242 280 242c235 0 333 -137 333 -359c0 -251 -163 -353 -345 -353c-78 0 -150 15 -209 45v179c48 -29 107 -47 162 -47c85 0 147 24 167 115c-48 -27 -99 -40 -156 -40c-122 0 -232 70 -232 218zM319 527c-40 0 -73 -22 -73 -64c0 -48 37 -66 83 -66
c29 0 58 9 87 25c-13 81 -49 105 -97 105z" />
    <glyph glyph-name="zero.osf" horiz-adv-x="679" 
d="M651 260c0 -142 -95 -276 -311 -276c-217 0 -312 134 -312 276s95 276 312 276c216 0 311 -134 311 -276zM258 260c0 -52 29 -88 82 -88c52 0 81 36 81 88s-29 88 -81 88c-53 0 -82 -36 -82 -88z" />
    <glyph glyph-name="one.osf" horiz-adv-x="506" 
d="M212 520h168v-337h105v-183h-444v183h116v130l-110 -41v185z" />
    <glyph glyph-name="two.osf" horiz-adv-x="570" 
d="M531 1h-501v78c0 94 75 126 160 166c68 31 102 45 102 74c0 20 -18 30 -50 30c-42 0 -115 -21 -185 -67v199c73 35 144 55 239 55c121 0 233 -57 233 -176c0 -60 -28 -96 -70 -124c-33 -23 -71 -39 -110 -52h182v-183z" />
    <glyph glyph-name="three.osf" horiz-adv-x="564" 
d="M511 341c0 -66 -37 -122 -107 -146c73 -19 135 -72 135 -167c0 -152 -142 -204 -285 -204c-77 0 -145 10 -221 38v193c71 -33 135 -42 202 -42c46 1 85 15 85 49c0 24 -22 38 -55 38h-106l1 171h84c28 0 50 9 50 33c0 29 -30 41 -76 41c-56 0 -116 -13 -173 -39v188
c62 29 137 42 209 42c135 0 257 -56 257 -195z" />
    <glyph glyph-name="four.osf" horiz-adv-x="640" 
d="M311 520h226v-410h79v-179h-79v-91h-203v91h-319v173zM334 110v153l-110 -153h110z" />
    <glyph glyph-name="five.osf" horiz-adv-x="564" 
d="M78 520h432v-188l-231 1l-5 -69c18 3 35 5 53 5c123 -2 211 -74 211 -212c0 -176 -158 -233 -303 -233c-79 0 -142 12 -204 39v186c45 -25 109 -40 172 -40c58 0 105 19 105 62c0 41 -43 61 -108 61c-50 0 -103 -6 -146 -20z" />
    <glyph glyph-name="six.osf" horiz-adv-x="645" 
d="M265 415c39 19 82 29 130 29c112 0 223 -72 223 -221c0 -168 -133 -239 -273 -239c-213 0 -313 131 -313 349c0 255 170 363 332 363c78 0 141 -15 201 -44v-175c-44 26 -96 42 -149 42c-65 0 -127 -22 -151 -104zM258 262c9 -81 39 -109 79 -109c33 0 62 22 62 64
c0 48 -35 66 -69 66c-25 0 -50 -7 -72 -21z" />
    <glyph glyph-name="seven.osf" horiz-adv-x="550" 
d="M19 520h521v-146l-240 -534h-249l221 492h-253v188z" />
    <glyph glyph-name="eight.osf" horiz-adv-x="638" 
d="M55 493c0 98 81 203 265 203c177 0 264 -103 263 -195c-1 -71 -36 -108 -84 -140c62 -33 109 -82 109 -169c0 -108 -89 -208 -291 -208c-208 0 -287 100 -287 202c0 76 50 135 99 162c-41 32 -74 76 -74 145zM325 260c-17 6 -35 11 -52 18c-14 -18 -21 -42 -21 -62
c1 -33 22 -63 70 -63c42 0 63 22 63 47c0 34 -24 47 -60 60zM374 480c0 28 -24 49 -56 49c-36 0 -54 -20 -54 -44s14 -40 47 -53c13 -6 28 -10 45 -15c12 21 19 45 18 63z" />
    <glyph glyph-name="nine.osf" horiz-adv-x="634" 
d="M20 297c0 168 133 239 272 239c213 0 314 -131 314 -349c0 -255 -171 -363 -332 -363c-79 0 -141 15 -201 44v175c43 -26 95 -42 148 -42c65 0 128 22 152 104c-39 -19 -82 -29 -131 -29c-112 0 -222 72 -222 221zM300 367c-32 0 -61 -22 -61 -64c0 -48 35 -66 69 -66
c25 0 50 7 72 21c-9 81 -39 109 -80 109z" />
    <glyph glyph-name="zero.sinf" horiz-adv-x="430" 
d="M408 104c0 -114 -56 -214 -193 -214c-138 0 -193 100 -193 214s55 214 193 214c137 0 193 -100 193 -214zM160 104c0 -67 18 -94 55 -94s55 27 55 94s-18 94 -55 94s-55 -27 -55 -94z" />
    <glyph glyph-name="one.sinf" horiz-adv-x="322" 
d="M139 308h101v-295h69v-113h-281v113h78v164l-74 -25v118z" />
    <glyph glyph-name="two.sinf" horiz-adv-x="378" 
d="M36 274c44 28 99 44 153 44c85 0 161 -37 161 -133c0 -59 -37 -91 -76 -118c-31 -21 -60 -37 -73 -54h149v-113h-327l1 56c0 88 61 126 115 160c37 24 69 34 69 58c0 17 -15 26 -39 26c-41 0 -87 -17 -133 -52v126z" />
    <glyph glyph-name="three.sinf" horiz-adv-x="370" 
d="M332 201c0 -40 -22 -74 -65 -88c44 -12 82 -43 82 -100c0 -91 -85 -123 -174 -123c-52 0 -102 11 -148 28v119c43 -23 95 -34 137 -33c29 0 53 9 53 29c0 15 -13 23 -36 23h-72l1 103l58 -1c20 0 33 6 33 20c0 18 -17 25 -48 25c-34 0 -85 -14 -119 -37v116
c37 22 90 36 141 36c83 0 157 -34 157 -117z" />
    <glyph glyph-name="four.sinf" horiz-adv-x="413" 
d="M206 308h136v-246h50v-107h-50v-55h-125v55h-203v110zM217 62v96l-76 -96h76z" />
    <glyph glyph-name="five.sinf" horiz-adv-x="370" 
d="M53 310h278v-114h-156l-4 -41c12 2 25 3 36 3c74 0 141 -33 141 -127c0 -106 -95 -141 -187 -141c-48 0 -98 10 -136 28v113c28 -18 74 -29 113 -29c41 0 72 11 72 37c0 25 -30 37 -81 37c-29 0 -64 -4 -90 -12z" />
    <glyph glyph-name="six.sinf" horiz-adv-x="410" 
d="M158 143c28 15 59 23 93 23c72 0 139 -41 139 -130c0 -102 -80 -146 -169 -146c-140 0 -199 83 -199 216c0 150 98 212 207 212c46 0 90 -10 126 -28v-107c-30 18 -65 28 -98 28c-51 0 -88 -14 -99 -68zM157 55c8 -49 29 -63 58 -63c24 0 43 13 43 39c0 28 -22 38 -50 38
c-16 0 -34 -5 -51 -14z" />
    <glyph glyph-name="seven.sinf" horiz-adv-x="353" 
d="M196 -100h-150l136 296h-167v114h328v-89z" />
    <glyph glyph-name="eight.sinf" horiz-adv-x="405" 
d="M35 198c0 58 48 122 168 122c115 0 167 -63 167 -117c-1 -43 -22 -65 -51 -84c37 -20 66 -50 66 -102c0 -65 -54 -125 -184 -125c-134 0 -181 60 -181 121c0 46 29 82 59 98c-24 19 -44 46 -44 87zM210 56c-14 4 -28 8 -42 13c-9 -11 -13 -25 -13 -37
c1 -20 16 -39 53 -39c27 0 42 12 42 28c0 19 -18 27 -40 35zM242 190c-1 17 -14 29 -43 29c-24 0 -37 -12 -37 -25c0 -18 20 -26 43 -33c9 -3 19 -7 26 -9c8 13 12 26 11 38z" />
    <glyph glyph-name="nine.sinf" horiz-adv-x="410" 
d="M20 172c0 102 80 146 168 146c141 0 200 -83 200 -216c0 -150 -98 -212 -207 -212c-47 0 -90 10 -126 28v107c29 -17 64 -28 98 -28c51 0 88 14 99 69c-28 -16 -59 -24 -93 -24c-73 0 -139 41 -139 130zM195 216c-24 0 -44 -13 -44 -39c0 -28 23 -38 50 -38
c17 0 35 5 52 14c-8 49 -29 63 -58 63z" />
    <glyph glyph-name="zero.sups" horiz-adv-x="430" 
d="M408 583c0 -114 -56 -214 -193 -214c-138 0 -193 100 -193 214s55 214 193 214c137 0 193 -100 193 -214zM160 583c0 -67 18 -94 55 -94s55 27 55 94s-18 94 -55 94s-55 -27 -55 -94z" />
    <glyph glyph-name="one.sups" horiz-adv-x="322" 
d="M139 780h101v-295h69v-113h-281v113h78v164l-74 -25v118z" />
    <glyph glyph-name="two.sups" horiz-adv-x="378" 
d="M36 753c44 28 99 44 153 44c85 0 161 -37 161 -133c0 -59 -37 -91 -76 -118c-31 -21 -60 -37 -73 -54h149v-113h-327l1 56c0 88 61 126 115 160c37 24 69 34 69 58c0 17 -15 26 -39 26c-41 0 -87 -17 -133 -52v126z" />
    <glyph glyph-name="three.sups" horiz-adv-x="370" 
d="M332 680c0 -40 -22 -74 -65 -88c44 -12 82 -43 82 -100c0 -91 -85 -123 -174 -123c-52 0 -102 11 -148 28v119c43 -23 95 -34 137 -33c29 0 53 9 53 29c0 15 -13 23 -36 23h-72l1 103l58 -1c20 0 33 6 33 20c0 18 -17 25 -48 25c-34 0 -85 -14 -119 -37v116
c37 22 90 36 141 36c83 0 157 -34 157 -117z" />
    <glyph glyph-name="four.sups" horiz-adv-x="413" 
d="M206 780h136v-246h50v-107h-50v-55h-125v55h-203v110zM217 534v96l-76 -96h76z" />
    <glyph glyph-name="five.sups" horiz-adv-x="370" 
d="M53 780h278v-114h-156l-4 -41c12 2 25 3 36 3c74 0 141 -33 141 -127c0 -106 -95 -141 -187 -141c-48 0 -98 10 -136 28v113c28 -18 74 -29 113 -29c41 0 72 11 72 37c0 25 -30 37 -81 37c-29 0 -64 -4 -90 -12z" />
    <glyph glyph-name="six.sups" horiz-adv-x="409" 
d="M158 622c28 15 59 23 93 23c72 0 139 -41 139 -130c0 -102 -80 -146 -169 -146c-140 0 -199 83 -199 216c0 150 98 212 207 212c46 0 90 -10 126 -28v-107c-30 18 -65 28 -98 28c-51 0 -88 -14 -99 -68zM157 534c8 -49 29 -63 58 -63c24 0 43 13 43 39
c0 28 -22 38 -50 38c-16 0 -34 -5 -51 -14z" />
    <glyph glyph-name="seven.sups" horiz-adv-x="353" 
d="M196 370h-150l136 296h-167v114h328v-89z" />
    <glyph glyph-name="eight.sups" horiz-adv-x="407" 
d="M36 677c0 58 48 122 168 122c115 0 167 -63 167 -117c-1 -43 -22 -65 -51 -84c37 -20 66 -50 66 -102c0 -65 -54 -125 -184 -125c-134 0 -181 60 -181 121c0 46 29 82 59 98c-24 19 -44 46 -44 87zM211 535c-14 4 -28 8 -42 13c-9 -11 -13 -25 -13 -37
c1 -20 16 -39 53 -39c27 0 42 12 42 28c0 19 -18 27 -40 35zM243 669c-1 17 -14 29 -43 29c-24 0 -37 -12 -37 -25c0 -18 20 -26 43 -33c9 -3 19 -7 26 -9c8 13 12 26 11 38z" />
    <glyph glyph-name="nine.sups" horiz-adv-x="410" 
d="M20 651c0 102 80 146 168 146c141 0 200 -83 200 -216c0 -150 -98 -212 -207 -212c-47 0 -90 10 -126 28v107c29 -17 64 -28 98 -28c51 0 88 14 99 69c-28 -16 -59 -24 -93 -24c-73 0 -139 41 -139 130zM195 695c-24 0 -44 -13 -44 -39c0 -28 23 -38 50 -38
c17 0 35 5 52 14c-8 49 -29 63 -58 63z" />
    <glyph glyph-name="zero.tf" horiz-adv-x="661" 
d="M645 340c0 -191 -92 -356 -314 -356c-223 0 -315 165 -315 356s92 356 315 356c222 0 314 -165 314 -356zM246 340c0 -111 29 -157 85 -157c55 0 84 46 84 157s-29 157 -84 157c-56 0 -85 -46 -85 -157z" />
    <glyph glyph-name="one.tf" horiz-adv-x="661" 
d="M290 680h168v-491h175v-189h-589v189h190v273l-155 -60v196z" />
    <glyph glyph-name="two.tf" horiz-adv-x="661" 
d="M68 623c78 47 165 73 264 73c141 0 269 -61 269 -220c0 -99 -62 -153 -127 -197c-52 -35 -104 -63 -130 -90h268v-188h-565v94c1 146 113 205 202 263c61 41 115 58 115 99c0 29 -25 43 -65 43c-77 0 -150 -29 -231 -86v209z" />
    <glyph glyph-name="three.tf" horiz-adv-x="661" 
d="M585 501c0 -66 -37 -122 -107 -146c73 -19 135 -72 135 -167c0 -152 -142 -204 -299 -204c-97 0 -181 17 -257 46v198c71 -38 159 -55 237 -55c61 1 100 15 100 49c0 24 -22 38 -60 38h-132v171h111c33 -1 55 9 55 33c0 29 -30 41 -91 41c-67 0 -151 -24 -208 -61v193
c62 37 149 59 245 59c149 0 271 -56 271 -195z" />
    <glyph glyph-name="four.tf" horiz-adv-x="661" 
d="M330 680h226v-410h85v-179h-85v-91h-208v91h-338v184zM351 270v159l-127 -159h127z" />
    <glyph glyph-name="five.tf" horiz-adv-x="661" 
d="M105 680h476v-188l-275 1l-5 -70c30 4 55 6 75 6c121 0 234 -55 234 -212c0 -176 -159 -233 -317 -233c-89 0 -173 17 -235 46v188c45 -30 123 -49 198 -49c71 0 124 19 124 62c0 42 -49 61 -139 61c-58 0 -117 -7 -160 -20z" />
    <glyph glyph-name="six.tf" horiz-adv-x="661" 
d="M251 404c48 27 100 40 156 40c122 0 232 -70 232 -218c0 -169 -132 -242 -280 -242c-235 0 -333 137 -333 354c0 256 164 358 345 358c78 0 150 -15 210 -45v-179c-49 29 -108 47 -163 47c-85 0 -147 -24 -167 -115zM250 258c13 -81 50 -105 97 -105c40 0 74 22 74 64
c0 48 -38 66 -84 66c-29 0 -58 -9 -87 -25z" />
    <glyph glyph-name="seven.tf" horiz-adv-x="661" 
d="M44 680h580v-146l-259 -534h-249l239 492h-311v188z" />
    <glyph glyph-name="eight.tf" horiz-adv-x="661" 
d="M51 493c0 98 81 203 280 203c192 0 279 -103 278 -195c-1 -71 -36 -108 -84 -140c62 -33 109 -82 109 -169c0 -108 -89 -208 -306 -208c-223 0 -302 100 -302 202c0 76 50 135 99 162c-41 32 -74 76 -74 145zM341 256c-22 7 -46 14 -69 22c-15 -19 -21 -42 -21 -62
c1 -33 26 -65 87 -65c46 0 70 21 70 46c0 33 -30 46 -67 59zM396 479c-1 28 -23 50 -72 50c-41 0 -62 -20 -62 -41c0 -32 33 -45 72 -57c15 -5 31 -10 44 -14c12 21 19 44 18 62z" />
    <glyph glyph-name="nine.tf" horiz-adv-x="661" 
d="M22 454c0 169 133 242 280 242c235 0 333 -137 333 -359c0 -251 -163 -353 -345 -353c-78 0 -150 15 -209 45v179c48 -29 107 -47 162 -47c85 0 147 24 167 115c-48 -27 -99 -40 -156 -40c-122 0 -232 70 -232 218zM314 527c-40 0 -73 -22 -73 -64c0 -48 37 -66 83 -66
c29 0 58 9 87 25c-13 81 -49 105 -97 105z" />
    <glyph glyph-name="zero.tosf" horiz-adv-x="661" 
d="M645 260c0 -142 -94 -276 -314 -276s-315 134 -315 276s95 276 315 276s314 -134 314 -276zM246 260c0 -52 29 -88 85 -88c55 0 84 36 84 88s-29 88 -84 88c-56 0 -85 -36 -85 -88z" />
    <glyph glyph-name="one.tosf" horiz-adv-x="661" 
d="M287 520h168v-337h175v-183h-589v183h190v136l-155 -60v179z" />
    <glyph glyph-name="two.tosf" horiz-adv-x="661" 
d="M608 1h-564v78c0 94 88 140 166 168c73 27 155 44 155 75c0 21 -28 27 -68 27c-67 0 -150 -25 -226 -73v198c74 39 165 62 265 62c159 0 271 -57 271 -180c0 -57 -26 -93 -64 -118c-34 -25 -78 -40 -138 -54h203v-183z" />
    <glyph glyph-name="three.tosf" horiz-adv-x="661" 
d="M585 341c0 -66 -37 -122 -107 -146c73 -19 135 -72 135 -167c0 -152 -142 -204 -299 -204c-97 0 -181 17 -257 46v198c71 -38 159 -55 237 -55c61 1 100 15 100 49c0 24 -22 38 -60 38h-132v171h111c33 -1 55 9 55 33c0 29 -30 41 -91 41c-67 0 -151 -24 -208 -61v193
c62 37 149 59 245 59c149 0 271 -56 271 -195z" />
    <glyph glyph-name="four.tosf" horiz-adv-x="661" 
d="M332 520h226v-410h85v-179h-85v-91h-208v91h-338v184zM353 110v159l-127 -159h127z" />
    <glyph glyph-name="five.tosf" horiz-adv-x="661" 
d="M105 520h476v-188l-275 1l-5 -70c30 4 55 6 75 6c121 0 234 -55 234 -212c0 -176 -159 -233 -317 -233c-89 0 -173 17 -235 46v188c45 -30 123 -49 198 -49c71 0 124 19 124 62c0 42 -49 61 -139 61c-58 0 -117 -7 -160 -20z" />
    <glyph glyph-name="six.tosf" horiz-adv-x="661" 
d="M251 404c48 27 100 40 156 40c122 0 232 -70 232 -218c0 -169 -132 -242 -280 -242c-235 0 -333 137 -333 359c0 251 164 353 345 353c78 0 150 -15 210 -45v-179c-49 29 -108 47 -163 47c-85 0 -147 -24 -167 -115zM250 258c13 -81 50 -105 97 -105c40 0 74 22 74 64
c0 48 -38 66 -84 66c-29 0 -58 -9 -87 -25z" />
    <glyph glyph-name="seven.tosf" horiz-adv-x="661" 
d="M43 520h580v-146l-259 -534h-249l239 492h-311v188z" />
    <glyph glyph-name="eight.tosf" horiz-adv-x="661" 
d="M51 493c0 98 81 203 280 203c192 0 279 -103 278 -195c-1 -71 -36 -108 -84 -140c62 -33 109 -82 109 -169c0 -108 -89 -208 -306 -208c-223 0 -302 100 -302 202c0 76 50 135 99 162c-41 32 -74 76 -74 145zM341 256c-22 7 -46 14 -69 22c-15 -19 -21 -42 -21 -62
c1 -33 26 -65 87 -65c46 0 70 21 70 46c0 33 -30 46 -67 59zM396 479c-1 28 -23 50 -72 50c-41 0 -62 -20 -62 -41c0 -32 33 -45 72 -57c15 -5 31 -10 44 -14c12 21 19 44 18 62z" />
    <glyph glyph-name="nine.tosf" horiz-adv-x="661" 
d="M20 294c0 169 133 242 280 242c235 0 333 -137 333 -359c0 -251 -163 -353 -345 -353c-78 0 -150 15 -209 45v179c48 -29 107 -47 162 -47c85 0 147 24 167 115c-48 -27 -99 -40 -156 -40c-122 0 -232 70 -232 218zM312 367c-40 0 -73 -22 -73 -64c0 -48 37 -66 83 -66
c29 0 58 9 87 25c-13 81 -49 105 -97 105z" />
    <glyph glyph-name="fraction" unicode="&#x2044;" horiz-adv-x="194" 
d="M-105 -16h-60l462 732h60z" />
    <glyph glyph-name="onehalf" unicode="&#xbd;" horiz-adv-x="884" 
d="M247 -16h-60l462 732h60zM542 374c44 28 99 44 153 44c85 0 161 -37 161 -133c0 -59 -37 -91 -76 -118c-31 -21 -60 -37 -73 -54h149v-113h-327l1 56c0 88 61 126 115 160c37 24 69 34 69 58c0 17 -15 26 -39 26c-41 0 -87 -17 -133 -52v126zM144 680h101v-295h69v-113
h-281v113h78v164l-74 -25v118z" />
    <glyph glyph-name="onequarter" unicode="&#xbc;" horiz-adv-x="915" 
d="M704 408h136v-246h50v-107h-50v-55h-125v55h-203v110zM715 162v96l-76 -96h76zM250 -16h-60l462 732h60zM147 680h101v-295h69v-113h-281v113h78v164l-74 -25v118z" />
    <glyph glyph-name="threequarters" unicode="&#xbe;" horiz-adv-x="965" 
d="M300 -16h-60l462 732h60zM754 408h136v-246h50v-107h-50v-55h-125v55h-203v110zM765 162v96l-76 -96h76zM338 580c0 -40 -22 -74 -65 -88c44 -12 82 -43 82 -100c0 -91 -85 -123 -174 -123c-52 0 -102 11 -148 28v119c43 -23 95 -34 137 -33c29 0 53 9 53 29
c0 15 -13 23 -36 23h-72l1 103l58 -1c20 0 33 6 33 20c0 18 -17 25 -48 25c-34 0 -85 -14 -119 -37v116c37 22 90 36 141 36c83 0 157 -34 157 -117z" />
    <glyph glyph-name="oneeighth" unicode="&#x215b;" horiz-adv-x="918" 
d="M543 296c0 58 48 122 168 122c115 0 167 -63 167 -117c-1 -43 -22 -65 -51 -84c37 -20 66 -50 66 -102c0 -65 -54 -125 -184 -125c-134 0 -181 60 -181 121c0 46 29 82 59 98c-24 19 -44 46 -44 87zM718 154c-14 4 -28 8 -42 13c-9 -11 -13 -25 -13 -37
c1 -20 16 -39 53 -39c27 0 42 12 42 28c0 19 -18 27 -40 35zM750 288c-1 17 -14 29 -43 29c-24 0 -37 -12 -37 -25c0 -18 20 -26 43 -33c9 -3 19 -7 26 -9c8 13 12 26 11 38zM245 -16h-60l462 732h60zM148 680h101v-295h69v-113h-281v113h78v164l-74 -25v118z" />
    <glyph glyph-name="threeeighths" unicode="&#x215c;" horiz-adv-x="927" 
d="M552 296c0 58 48 122 168 122c115 0 167 -63 167 -117c-1 -43 -22 -65 -51 -84c37 -20 66 -50 66 -102c0 -65 -54 -125 -184 -125c-134 0 -181 60 -181 121c0 46 29 82 59 98c-24 19 -44 46 -44 87zM727 154c-14 4 -28 8 -42 13c-9 -11 -13 -25 -13 -37
c1 -20 16 -39 53 -39c27 0 42 12 42 28c0 19 -18 27 -40 35zM759 288c-1 17 -14 29 -43 29c-24 0 -37 -12 -37 -25c0 -18 20 -26 43 -33c9 -3 19 -7 26 -9c8 13 12 26 11 38zM258 -16h-60l462 732h60zM339 580c0 -40 -22 -74 -65 -88c44 -12 82 -43 82 -100
c0 -91 -85 -123 -174 -123c-52 0 -102 11 -148 28v119c43 -23 95 -34 137 -33c29 0 53 9 53 29c0 15 -13 23 -36 23h-72l1 103l58 -1c20 0 33 6 33 20c0 18 -17 25 -48 25c-34 0 -85 -14 -119 -37v116c37 22 90 36 141 36c83 0 157 -34 157 -117z" />
    <glyph glyph-name="fiveeighths" unicode="&#x215d;" horiz-adv-x="926" 
d="M551 296c0 58 48 122 168 122c115 0 167 -63 167 -117c-1 -43 -22 -65 -51 -84c37 -20 66 -50 66 -102c0 -65 -54 -125 -184 -125c-134 0 -181 60 -181 121c0 46 29 82 59 98c-24 19 -44 46 -44 87zM726 154c-14 4 -28 8 -42 13c-9 -11 -13 -25 -13 -37
c1 -20 16 -39 53 -39c27 0 42 12 42 28c0 19 -18 27 -40 35zM758 288c-1 17 -14 29 -43 29c-24 0 -37 -12 -37 -25c0 -18 20 -26 43 -33c9 -3 19 -7 26 -9c8 13 12 26 11 38zM257 -16h-60l462 732h60zM60 680h278v-114h-156l-4 -41c12 2 25 3 36 3c74 0 141 -33 141 -127
c0 -106 -95 -141 -187 -141c-48 0 -98 10 -136 28v113c28 -18 74 -29 113 -29c41 0 72 11 72 37c0 25 -30 37 -81 37c-29 0 -64 -4 -90 -12z" />
    <glyph glyph-name="seveneighths" unicode="&#x215e;" horiz-adv-x="865" 
d="M186 -16h-60l462 732h60zM490 296c0 58 48 122 168 122c115 0 167 -63 167 -117c-1 -43 -22 -65 -51 -84c37 -20 66 -50 66 -102c0 -65 -54 -125 -184 -125c-134 0 -181 60 -181 121c0 46 29 82 59 98c-24 19 -44 46 -44 87zM665 154c-14 4 -28 8 -42 13
c-9 -11 -13 -25 -13 -37c1 -20 16 -39 53 -39c27 0 42 12 42 28c0 19 -18 27 -40 35zM697 288c-1 17 -14 29 -43 29c-24 0 -37 -12 -37 -25c0 -18 20 -26 43 -33c9 -3 19 -7 26 -9c8 13 12 26 11 38zM209 270h-150l136 296h-167v114h328v-89z" />
    <glyph glyph-name="zero.dnom" horiz-adv-x="430" 
d="M408 204c0 -114 -56 -214 -193 -214c-138 0 -193 100 -193 214s55 214 193 214c137 0 193 -100 193 -214zM160 204c0 -67 18 -94 55 -94s55 27 55 94s-18 94 -55 94s-55 -27 -55 -94z" />
    <glyph glyph-name="one.dnom" horiz-adv-x="322" 
d="M139 408h101v-295h69v-113h-281v113h78v164l-74 -25v118z" />
    <glyph glyph-name="two.dnom" horiz-adv-x="378" 
d="M36 374c44 28 99 44 153 44c85 0 161 -37 161 -133c0 -59 -37 -91 -76 -118c-31 -21 -60 -37 -73 -54h149v-113h-327l1 56c0 88 61 126 115 160c37 24 69 34 69 58c0 17 -15 26 -39 26c-41 0 -87 -17 -133 -52v126z" />
    <glyph glyph-name="three.dnom" horiz-adv-x="370" 
d="M332 301c0 -40 -22 -74 -65 -88c44 -12 82 -43 82 -100c0 -91 -85 -123 -174 -123c-52 0 -102 11 -148 28v119c43 -23 95 -34 137 -33c29 0 53 9 53 29c0 15 -13 23 -36 23h-72l1 103l58 -1c20 0 33 6 33 20c0 18 -17 25 -48 25c-34 0 -85 -14 -119 -37v116
c37 22 90 36 141 36c83 0 157 -34 157 -117z" />
    <glyph glyph-name="four.dnom" horiz-adv-x="413" 
d="M206 408h136v-246h50v-107h-50v-55h-125v55h-203v110zM217 162v96l-76 -96h76z" />
    <glyph glyph-name="five.dnom" horiz-adv-x="370" 
d="M53 410h278v-114h-156l-4 -41c12 2 25 3 36 3c74 0 141 -33 141 -127c0 -106 -95 -141 -187 -141c-48 0 -98 10 -136 28v113c28 -18 74 -29 113 -29c41 0 72 11 72 37c0 25 -30 37 -81 37c-29 0 -64 -4 -90 -12z" />
    <glyph glyph-name="six.dnom" horiz-adv-x="410" 
d="M158 243c28 15 59 23 93 23c72 0 139 -41 139 -130c0 -102 -80 -146 -169 -146c-140 0 -199 83 -199 216c0 150 98 212 207 212c46 0 90 -10 126 -28v-107c-30 18 -65 28 -98 28c-51 0 -88 -14 -99 -68zM157 155c8 -49 29 -63 58 -63c24 0 43 13 43 39
c0 28 -22 38 -50 38c-16 0 -34 -5 -51 -14z" />
    <glyph glyph-name="seven.dnom" horiz-adv-x="353" 
d="M196 0h-150l136 296h-167v114h328v-89z" />
    <glyph glyph-name="eight.dnom" horiz-adv-x="407" 
d="M36 296c0 58 48 122 168 122c115 0 167 -63 167 -117c-1 -43 -22 -65 -51 -84c37 -20 66 -50 66 -102c0 -65 -54 -125 -184 -125c-134 0 -181 60 -181 121c0 46 29 82 59 98c-24 19 -44 46 -44 87zM211 154c-14 4 -28 8 -42 13c-9 -11 -13 -25 -13 -37
c1 -20 16 -39 53 -39c27 0 42 12 42 28c0 19 -18 27 -40 35zM243 288c-1 17 -14 29 -43 29c-24 0 -37 -12 -37 -25c0 -18 20 -26 43 -33c9 -3 19 -7 26 -9c8 13 12 26 11 38z" />
    <glyph glyph-name="nine.dnom" horiz-adv-x="410" 
d="M20 272c0 102 80 146 168 146c141 0 200 -83 200 -216c0 -150 -98 -212 -207 -212c-47 0 -90 10 -126 28v107c29 -17 64 -28 98 -28c51 0 88 14 99 69c-28 -16 -59 -24 -93 -24c-73 0 -139 41 -139 130zM195 316c-24 0 -44 -13 -44 -39c0 -28 23 -38 50 -38
c17 0 35 5 52 14c-8 49 -29 63 -58 63z" />
    <glyph glyph-name="zero.numr" horiz-adv-x="430" 
d="M408 483c0 -114 -56 -214 -193 -214c-138 0 -193 100 -193 214s55 214 193 214c137 0 193 -100 193 -214zM160 483c0 -67 18 -94 55 -94s55 27 55 94s-18 94 -55 94s-55 -27 -55 -94z" />
    <glyph glyph-name="one.numr" horiz-adv-x="322" 
d="M139 680h101v-295h69v-113h-281v113h78v164l-74 -25v118z" />
    <glyph glyph-name="two.numr" horiz-adv-x="378" 
d="M36 653c44 28 99 44 153 44c85 0 161 -37 161 -133c0 -59 -37 -91 -76 -118c-31 -21 -60 -37 -73 -54h149v-113h-327l1 56c0 88 61 126 115 160c37 24 69 34 69 58c0 17 -15 26 -39 26c-41 0 -87 -17 -133 -52v126z" />
    <glyph glyph-name="three.numr" horiz-adv-x="370" 
d="M332 580c0 -40 -22 -74 -65 -88c44 -12 82 -43 82 -100c0 -91 -85 -123 -174 -123c-52 0 -102 11 -148 28v119c43 -23 95 -34 137 -33c29 0 53 9 53 29c0 15 -13 23 -36 23h-72l1 103l58 -1c20 0 33 6 33 20c0 18 -17 25 -48 25c-34 0 -85 -14 -119 -37v116
c37 22 90 36 141 36c83 0 157 -34 157 -117z" />
    <glyph glyph-name="four.numr" horiz-adv-x="413" 
d="M206 680h136v-246h50v-107h-50v-55h-125v55h-203v110zM217 434v96l-76 -96h76z" />
    <glyph glyph-name="five.numr" horiz-adv-x="370" 
d="M53 680h278v-114h-156l-4 -41c12 2 25 3 36 3c74 0 141 -33 141 -127c0 -106 -95 -141 -187 -141c-48 0 -98 10 -136 28v113c28 -18 74 -29 113 -29c41 0 72 11 72 37c0 25 -30 37 -81 37c-29 0 -64 -4 -90 -12z" />
    <glyph glyph-name="six.numr" horiz-adv-x="409" 
d="M158 522c28 15 59 23 93 23c72 0 139 -41 139 -130c0 -102 -80 -146 -169 -146c-140 0 -199 83 -199 216c0 150 98 212 207 212c46 0 90 -10 126 -28v-107c-30 18 -65 28 -98 28c-51 0 -88 -14 -99 -68zM157 434c8 -49 29 -63 58 -63c24 0 43 13 43 39
c0 28 -22 38 -50 38c-16 0 -34 -5 -51 -14z" />
    <glyph glyph-name="seven.numr" horiz-adv-x="353" 
d="M196 270h-150l136 296h-167v114h328v-89z" />
    <glyph glyph-name="eight.numr" horiz-adv-x="407" 
d="M36 575c0 58 48 122 168 122c115 0 167 -63 167 -117c-1 -43 -22 -65 -51 -84c37 -20 66 -50 66 -102c0 -65 -54 -125 -184 -125c-134 0 -181 60 -181 121c0 46 29 82 59 98c-24 19 -44 46 -44 87zM211 433c-14 4 -28 8 -42 13c-9 -11 -13 -25 -13 -37
c1 -20 16 -39 53 -39c27 0 42 12 42 28c0 19 -18 27 -40 35zM243 567c-1 17 -14 29 -43 29c-24 0 -37 -12 -37 -25c0 -18 20 -26 43 -33c9 -3 19 -7 26 -9c8 13 12 26 11 38z" />
    <glyph glyph-name="nine.numr" horiz-adv-x="410" 
d="M20 551c0 102 80 146 168 146c141 0 200 -83 200 -216c0 -150 -98 -212 -207 -212c-47 0 -90 10 -126 28v107c29 -17 64 -28 98 -28c51 0 88 14 99 69c-28 -16 -59 -24 -93 -24c-73 0 -139 41 -139 130zM195 595c-24 0 -44 -13 -44 -39c0 -28 23 -38 50 -38
c17 0 35 5 52 14c-8 49 -29 63 -58 63z" />
    <glyph glyph-name="asterisk" unicode="*" horiz-adv-x="533" 
d="M267 386l-58 -120l-151 103l83 75l-116 23l67 174l101 -61l-20 120h187l-19 -120l100 61l67 -174l-115 -23l82 -75l-151 -103z" />
    <glyph glyph-name="backslash" unicode="\" horiz-adv-x="498" 
d="M480 -61h-147l-316 822h147z" />
    <glyph glyph-name="periodcentered" unicode="&#xb7;" horiz-adv-x="290" 
d="M262 238c0 -77 -54 -113 -117 -113c-62 0 -117 36 -117 113s55 113 117 113c63 0 117 -36 117 -113z" />
    <glyph glyph-name="bullet" unicode="&#x2022;" horiz-adv-x="437" 
d="M48 350c0 114 81 163 170 163c92 0 170 -49 170 -163c0 -115 -78 -165 -170 -165c-89 0 -170 50 -170 165z" />
    <glyph glyph-name="colon" unicode=":" horiz-adv-x="295" 
d="M260 371c0 -74 -52 -109 -113 -109c-59 0 -112 35 -112 109c0 75 53 109 112 109c61 0 113 -34 113 -109zM260 93c0 -75 -52 -109 -113 -109c-59 0 -112 34 -112 109c0 74 53 109 112 109c61 0 113 -35 113 -109z" />
    <glyph glyph-name="comma" unicode="," horiz-adv-x="286" 
d="M146 -143h-158l71 307h202z" />
    <glyph glyph-name="ellipsis" unicode="&#x2026;" horiz-adv-x="886" 
d="M861 97c0 -77 -54 -113 -117 -113c-62 0 -117 36 -117 113s55 113 117 113c63 0 117 -36 117 -113zM259 97c0 -77 -54 -113 -117 -113c-62 0 -117 36 -117 113s55 113 117 113c63 0 117 -36 117 -113zM560 97c0 -77 -54 -113 -117 -113c-62 0 -117 36 -117 113
s55 113 117 113c63 0 117 -36 117 -113z" />
    <glyph glyph-name="exclam" unicode="!" horiz-adv-x="309" 
d="M243 275h-177l-24 425h225zM272 97c0 -77 -54 -113 -117 -113c-62 0 -117 36 -117 113s55 113 117 113c63 0 117 -36 117 -113z" />
    <glyph glyph-name="exclamdown" unicode="&#xa1;" horiz-adv-x="300" 
d="M262 -220h-225l24 425h177zM267 383c0 -77 -54 -113 -117 -113c-62 0 -117 36 -117 113c0 78 55 113 117 113c63 0 117 -35 117 -113z" />
    <glyph glyph-name="numbersign" unicode="#" horiz-adv-x="730" 
d="M244 0h-184l29 126h-61v142h95l34 145h-79v142h113l30 126h184l-29 -126h81l29 126h185l-30 -126h61v-142h-94l-35 -145h79v-142h-112l-30 -126h-185l30 126h-81zM342 413l-35 -145h81l34 145h-80z" />
    <glyph glyph-name="period" unicode="." horiz-adv-x="284" 
d="M259 97c0 -77 -54 -113 -117 -113c-62 0 -117 36 -117 113s55 113 117 113c63 0 117 -36 117 -113z" />
    <glyph glyph-name="question" unicode="?" horiz-adv-x="508" 
d="M321 257h-196c0 121 129 172 129 222c0 30 -27 41 -65 41c-50 0 -115 -21 -155 -44v196c54 26 127 44 200 44c126 0 250 -38 250 -182c0 -135 -163 -206 -163 -277zM341 97c0 -77 -54 -113 -117 -113c-62 0 -117 36 -117 113s55 113 117 113c63 0 117 -36 117 -113z" />
    <glyph glyph-name="questiondown" unicode="&#xbf;" horiz-adv-x="501" 
d="M471 -192c-55 -26 -127 -44 -201 -44c-125 0 -249 38 -249 182c0 135 163 206 163 277h196c0 -121 -129 -172 -129 -221c0 -31 27 -42 64 -42c51 0 115 21 156 44v-196zM398 383c0 -77 -55 -113 -117 -113c-63 0 -117 36 -117 113c0 78 54 113 117 113
c62 0 117 -35 117 -113z" />
    <glyph glyph-name="quotedbl" unicode="&#x22;" horiz-adv-x="486" 
d="M428 433h-149v267h183zM190 433h-149v267h183z" />
    <glyph glyph-name="quotesingle" unicode="'" horiz-adv-x="248" 
d="M190 433h-149v267h183z" />
    <glyph glyph-name="semicolon" unicode=";" horiz-adv-x="306" 
d="M153 -143h-158l71 307h202zM275 377c0 -77 -54 -113 -117 -113c-62 0 -117 36 -117 113s55 113 117 113c63 0 117 -36 117 -113z" />
    <glyph glyph-name="slash" unicode="/" horiz-adv-x="499" 
d="M166 -61h-147l316 822h147z" />
    <glyph glyph-name="underscore" unicode="_" horiz-adv-x="521" 
d="M521 -203h-521v169h521v-169z" />
    <glyph glyph-name="braceleft" unicode="{" horiz-adv-x="411" 
d="M383 56v-166c-180 -42 -291 31 -291 173v142c0 51 -35 57 -74 57v177c37 0 74 4 74 56v142c0 142 111 215 291 173v-166c-63 12 -82 -19 -82 -80v-98c0 -72 -46 -114 -102 -116c56 -2 102 -44 102 -116v-98c0 -61 19 -92 82 -80z" />
    <glyph glyph-name="braceright" unicode="}" horiz-adv-x="411" 
d="M319 63c0 -142 -111 -215 -291 -173v166c63 -12 82 19 82 80v98c0 72 46 114 102 116c-56 2 -102 44 -102 116v98c0 61 -19 92 -82 80v166c180 42 291 -31 291 -173v-142c0 -52 37 -56 74 -56v-177c-39 0 -74 -6 -74 -57v-142z" />
    <glyph glyph-name="bracketleft" unicode="[" horiz-adv-x="385" 
d="M358 -110h-308v920h308v-181h-99v-557h99v-182z" />
    <glyph glyph-name="bracketright" unicode="]" horiz-adv-x="385" 
d="M335 -110h-308v182h99v557h-99v181h308v-920z" />
    <glyph glyph-name="parenleft" unicode="(" horiz-adv-x="349" 
d="M183 812h153c-57 -128 -104 -292 -104 -462s47 -334 104 -462h-153c-94 127 -157 299 -157 462s63 335 157 462z" />
    <glyph glyph-name="parenright" unicode=")" horiz-adv-x="349" 
d="M13 812h154c93 -127 156 -299 156 -462s-63 -335 -156 -462h-154c58 128 104 292 104 462s-46 334 -104 462z" />
    <glyph glyph-name="emdash" unicode="&#x2014;" horiz-adv-x="791" 
d="M746 159h-701v163h701v-163z" />
    <glyph glyph-name="endash" unicode="&#x2013;" horiz-adv-x="585" 
d="M540 159h-495v163h495v-163z" />
    <glyph glyph-name="hyphen" unicode="-" horiz-adv-x="480" 
d="M45 322h390v-163h-390v163z" />
    <glyph glyph-name="emdash.case" horiz-adv-x="797" 
d="M749 269h-701v162h701v-162z" />
    <glyph glyph-name="endash.case" horiz-adv-x="591" 
d="M543 269h-495v162h495v-162z" />
    <glyph glyph-name="hyphen.case" horiz-adv-x="486" 
d="M48 431h390v-162h-390v162z" />
    <glyph glyph-name="guillemotleft" unicode="&#xab;" horiz-adv-x="672" 
d="M650 32h-210l-137 190v36l137 190h210l-147 -208zM370 32h-210l-136 190v36l136 190h210l-146 -208z" />
    <glyph glyph-name="guillemotright" unicode="&#xbb;" horiz-adv-x="670" 
d="M511 32h-211l147 208l-147 208h211l135 -190v-36zM233 32h-211l147 208l-147 208h211l135 -190v-36z" />
    <glyph glyph-name="guilsinglleft" unicode="&#x2039;" horiz-adv-x="392" 
d="M370 32h-210l-136 190v36l136 190h210l-146 -208z" />
    <glyph glyph-name="guilsinglright" unicode="&#x203a;" horiz-adv-x="392" 
d="M233 32h-211l147 208l-147 208h211l135 -190v-36z" />
    <glyph glyph-name="quotedblbase" unicode="&#x201e;" horiz-adv-x="523" 
d="M383 -143h-158l71 307h202zM146 -143h-158l71 307h202z" />
    <glyph glyph-name="quotedblleft" unicode="&#x201c;" horiz-adv-x="534" 
d="M451 393h-203l116 307h157zM214 393h-203l116 307h157z" />
    <glyph glyph-name="quotedblright" unicode="&#x201d;" horiz-adv-x="529" 
d="M415 393h-158l71 307h202zM178 393h-158l71 307h202z" />
    <glyph glyph-name="quoteleft" unicode="&#x2018;" horiz-adv-x="297" 
d="M214 393h-203l116 307h157z" />
    <glyph glyph-name="quoteright" unicode="&#x2019;" horiz-adv-x="292" 
d="M178 393h-158l71 307h202z" />
    <glyph glyph-name="quotesinglbase" unicode="&#x201a;" horiz-adv-x="286" 
d="M146 -143h-158l71 307h202z" />
    <glyph glyph-name="guillemotleft.case" horiz-adv-x="691" 
d="M655 142h-210l-137 190v36l137 190h210l-147 -208zM376 142h-210l-136 190v36l136 190h210l-146 -208z" />
    <glyph glyph-name="guillemotright.case" horiz-adv-x="690" 
d="M525 142h-211l147 208l-147 208h211l135 -190v-36zM247 142h-211l147 208l-147 208h211l135 -190v-36z" />
    <glyph glyph-name="guilsinglleft.case" horiz-adv-x="412" 
d="M376 142h-210l-136 190v36l136 190h210l-146 -208z" />
    <glyph glyph-name="guilsinglright.case" horiz-adv-x="412" 
d="M247 142h-211l147 208l-147 208h211l135 -190v-36z" />
    <glyph glyph-name="space" unicode=" " horiz-adv-x="182" 
 />
    <glyph glyph-name="cent" unicode="&#xa2;" horiz-adv-x="510" 
d="M395 163c26 4 49 11 68 20v-172c-22 -7 -44 -13 -68 -18v-113h-93v104h-6c-138 0 -271 70 -271 243c0 190 137 268 277 271v102h93v-112c22 -5 43 -11 63 -19v-173c-18 9 -40 17 -63 22v-155zM302 317c-35 -10 -60 -34 -60 -77s25 -66 60 -76v153z" />
    <glyph glyph-name="currency" unicode="&#xa4;" horiz-adv-x="560" 
d="M180 166l-60 -60l-85 85l54 54c-17 29 -27 64 -27 105c0 42 10 77 27 106l-54 55l84 85l62 -62c30 13 64 20 99 20s69 -7 100 -20l61 63l84 -86l-55 -56c17 -29 27 -64 27 -105s-9 -75 -26 -105l54 -54l-85 -85l-60 60c-30 -13 -65 -20 -100 -20s-70 7 -100 20zM229 350
c0 -24 15 -49 51 -49c35 0 50 25 50 49s-15 50 -50 50c-36 0 -51 -26 -51 -50z" />
    <glyph glyph-name="dollar" unicode="$" horiz-adv-x="636" 
d="M395 -119h-158v107c-74 9 -141 30 -198 62v209c87 -57 180 -82 254 -82c62 0 80 11 80 34c0 72 -336 29 -336 268c0 123 84 193 200 211v109h158v-109c64 -9 127 -27 174 -52v-200c-68 43 -154 68 -232 67c-47 0 -62 -12 -62 -31c0 -73 335 -26 335 -263
c0 -149 -91 -207 -215 -222v-108z" />
    <glyph glyph-name="Euro" unicode="&#x20ac;" horiz-adv-x="722" 
d="M673 26c-62 -28 -131 -42 -200 -42c-168 0 -323 75 -367 250h-79v89h66v17v17h-66v89h79c44 174 199 250 361 250c71 0 144 -14 206 -42v-200c-39 27 -103 48 -166 48c-57 0 -109 -18 -142 -56h189v-89h-222c-1 -5 -1 -11 -1 -17s0 -12 1 -17h222v-89h-188
c32 -36 83 -53 137 -53c67 0 134 18 170 50v-205z" />
    <glyph glyph-name="sterling" unicode="&#xa3;" horiz-adv-x="609" 
d="M577 0h-544v180h21c39 0 61 26 61 66v22h-67v150h68v32c0 172 118 246 262 246c58 0 119 -11 175 -35v-174c-35 24 -81 37 -123 37c-57 0 -95 -28 -95 -83v-23h165v-150h-165v-19c0 -31 -9 -52 -29 -69h271v-180z" />
    <glyph glyph-name="yen" unicode="&#xa5;" horiz-adv-x="761" 
d="M494 680h246l-185 -320h93v-110h-153v-39h153v-110h-153v-101h-229v101h-152v110h152v39h-152v110h92l-185 320h246l113 -249z" />
    <glyph glyph-name="cent.tf" horiz-adv-x="661" 
d="M470 163c26 4 49 11 68 20v-172c-22 -7 -44 -13 -68 -18v-113h-93v104h-6c-138 0 -271 70 -271 243c0 190 137 268 277 271v102h93v-112c22 -5 43 -11 63 -19v-173c-18 9 -40 17 -63 22v-155zM377 317c-35 -10 -60 -34 -60 -77s25 -66 60 -76v153z" />
    <glyph glyph-name="currency.tf" horiz-adv-x="661" 
d="M230 166l-80 -80l-85 85l74 74c-17 29 -26 64 -26 105s10 76 27 106l-75 75l84 85l81 -82c31 14 65 20 100 20s70 -6 100 -20l81 82l84 -85l-74 -75c16 -30 27 -65 27 -106s-10 -76 -27 -105l74 -74l-85 -85l-79 80c-31 -13 -65 -20 -101 -20c-35 0 -70 7 -100 20z
M280 350c0 -24 15 -49 51 -49c35 0 50 25 50 49s-15 50 -50 50c-36 0 -51 -26 -51 -50z" />
    <glyph glyph-name="dollar.tf" horiz-adv-x="661" 
d="M406 -119h-149v107c-76 8 -145 29 -203 62v209c87 -57 180 -82 255 -82c61 0 79 11 79 34c0 72 -345 29 -345 268c0 126 91 196 214 213v107h149v-109c62 -9 122 -27 169 -52v-200c-68 43 -154 68 -232 67c-47 0 -62 -12 -62 -31c0 -73 345 -26 345 -263
c0 -150 -94 -208 -220 -223v-107z" />
    <glyph glyph-name="Euro.tf" horiz-adv-x="661" 
d="M359 234c34 -36 89 -53 143 -53c45 0 90 8 125 23v-195c-50 -17 -102 -25 -155 -25c-168 0 -331 75 -377 250h-79v89h66v17v17h-66v89h80c46 174 207 250 365 250c55 0 110 -8 161 -25v-193c-35 14 -78 24 -121 24c-54 0 -108 -18 -144 -56h187v-89h-223
c-1 -5 -1 -11 -1 -17s0 -12 1 -17h223v-89h-185z" />
    <glyph glyph-name="sterling.tf" horiz-adv-x="661" 
d="M620 0h-574v180h21c39 0 61 26 61 66v22h-67v150h68v32c0 172 114 246 266 246c70 0 130 -11 186 -35v-174c-38 24 -86 37 -138 37c-62 0 -95 -30 -95 -83v-23h165v-150h-165v-19c0 -31 -9 -52 -29 -69h301v-180z" />
    <glyph glyph-name="yen.tf" horiz-adv-x="661" 
d="M423 680h244l-174 -320h104v-110h-152v-39h152v-110h-152v-101h-230v101h-152v110h152v39h-152v110h105l-175 320h245l92 -222z" />
    <glyph glyph-name="approxequal" unicode="&#x2248;" horiz-adv-x="620" 
d="M571 576c19 -142 -47 -205 -142 -205c-73 0 -160 49 -192 48c-18 0 -25 -12 -21 -41h-166c-19 145 49 206 140 206c77 0 158 -48 194 -48c17 0 25 11 21 40h166zM571 341c19 -143 -47 -205 -142 -205c-73 0 -160 49 -192 48c-18 0 -25 -13 -21 -41h-166
c-19 145 49 206 140 206c77 0 158 -48 194 -48c17 0 25 11 21 40h166z" />
    <glyph glyph-name="asciitilde" unicode="~" horiz-adv-x="605" 
d="M566 432c19 -142 -47 -205 -142 -205c-73 0 -160 49 -192 48c-18 0 -25 -12 -21 -41h-166c-19 145 49 206 140 206c77 0 158 -48 194 -48c17 0 25 11 21 40h166z" />
    <glyph glyph-name="divide" unicode="&#xf7;" horiz-adv-x="557" 
d="M530 269h-503v163h503v-163zM396 116c0 -78 -54 -113 -117 -113c-62 0 -117 35 -117 113c0 77 55 112 117 112c63 0 117 -35 117 -112zM396 586c0 -78 -54 -113 -117 -113c-62 0 -117 35 -117 113c0 77 55 112 117 112c63 0 117 -35 117 -112z" />
    <glyph glyph-name="emptyset" unicode="&#x2205;" horiz-adv-x="796" 
d="M754 700l-86 -101c59 -65 96 -153 96 -249c0 -203 -163 -366 -366 -366c-76 0 -146 23 -204 62l-40 -46h-111l86 101c-60 65 -97 153 -97 249c0 203 163 366 366 366c76 0 146 -23 205 -62l40 46h111zM398 612c-145 0 -262 -117 -262 -262c0 -65 23 -123 61 -169l337 393
c-39 24 -86 38 -136 38zM262 126c40 -24 86 -38 136 -38c145 0 262 117 262 262c0 64 -23 123 -61 169z" />
    <glyph glyph-name="equal" unicode="=" horiz-adv-x="627" 
d="M565 382h-503v162h503v-162zM565 156h-503v162h503v-162z" />
    <glyph glyph-name="greater" unicode="&#x3e;" horiz-adv-x="512" 
d="M480 245l-425 -135v183l255 57l-255 57v183l425 -135v-210z" />
    <glyph glyph-name="greaterequal" unicode="&#x2265;" horiz-adv-x="524" 
d="M479 314l-425 -129v183l260 51l-260 51v183l425 -129v-210zM479 0h-425v163h425v-163z" />
    <glyph glyph-name="infinity" unicode="&#x221e;" horiz-adv-x="894" 
d="M446 479c50 56 113 101 199 101c118 0 214 -81 214 -222s-96 -222 -214 -222c-86 0 -148 45 -197 101c-50 -56 -113 -101 -199 -101c-118 0 -214 81 -214 222s96 222 214 222c86 0 149 -45 197 -101zM356 359c-30 39 -54 52 -81 52c-24 0 -50 -17 -50 -53s26 -53 50 -53
c27 0 51 13 81 54zM669 358c0 36 -26 53 -50 53c-26 0 -51 -13 -81 -54c30 -39 55 -52 81 -52c24 0 50 17 50 53z" />
    <glyph glyph-name="integral" unicode="&#x222b;" horiz-adv-x="503" 
d="M146 584c0 167 115 212 222 212c48 0 95 -8 129 -21v-176c-15 5 -46 14 -75 14c-34 0 -65 -18 -65 -67v-570c0 -167 -115 -212 -223 -212c-49 0 -94 8 -128 21v176c15 -5 45 -14 75 -14c33 0 65 19 65 67v570z" />
    <glyph glyph-name="less" unicode="&#x3c;" horiz-adv-x="512" 
d="M457 293v-183l-425 135v210l425 135v-183l-254 -57z" />
    <glyph glyph-name="lessequal" unicode="&#x2264;" horiz-adv-x="522" 
d="M469 363v-182l-425 128v211l425 129v-183l-260 -51zM469 0h-425v163h425v-163z" />
    <glyph glyph-name="logicalnot" unicode="&#xac;" horiz-adv-x="579" 
d="M531 197h-174v114h-321v169h495v-283z" />
    <glyph glyph-name="minus" unicode="&#x2212;" horiz-adv-x="519" 
d="M471 267h-423v168h423v-168z" />
    <glyph glyph-name="multiply" unicode="&#xd7;" horiz-adv-x="526" 
d="M263 239l-123 -122l-110 110l122 122l-122 123l110 110l123 -122l122 122l111 -110l-123 -123l123 -122l-111 -110z" />
    <glyph glyph-name="notequal" unicode="&#x2260;" horiz-adv-x="627" 
d="M217 56h-120l53 100h-88v162h174l34 64h-208v162h294l53 100h120l-53 -100h89v-162h-175l-34 -64h209v-162h-295z" />
    <glyph glyph-name="partialdiff" unicode="&#x2202;" horiz-adv-x="577" 
d="M551 302c0 -206 -98 -318 -278 -318c-152 0 -251 96 -251 235c0 150 93 224 196 224c54 0 105 -20 135 -54c0 12 -4 26 -11 39c-26 66 -106 116 -243 104v184c292 6 452 -149 452 -414zM224 217c0 -31 12 -70 63 -70c50 0 62 39 62 70s-12 71 -62 71
c-51 0 -63 -40 -63 -71z" />
    <glyph glyph-name="percent" unicode="%" horiz-adv-x="961" 
d="M341 -60h-127l409 820h127zM428 526c0 -128 -93 -190 -202 -190c-110 0 -203 62 -203 190s93 190 203 190c109 0 202 -62 202 -190zM176 526c0 -24 10 -52 49 -52s49 28 49 52s-10 52 -49 52s-49 -28 -49 -52zM938 174c0 -128 -93 -190 -203 -190
c-109 0 -202 62 -202 190s93 191 202 191c110 0 203 -63 203 -191zM686 174c0 -24 10 -52 49 -52s49 28 49 52s-10 53 -49 53s-49 -29 -49 -53z" />
    <glyph glyph-name="perthousand" unicode="&#x2030;" horiz-adv-x="1401" 
d="M341 -60h-127l409 820h127zM428 526c0 -128 -93 -190 -202 -190c-110 0 -203 62 -203 190s93 190 203 190c109 0 202 -62 202 -190zM176 526c0 -24 10 -52 49 -52s49 28 49 52s-10 52 -49 52s-49 -28 -49 -52zM938 174c0 -128 -93 -190 -203 -190
c-109 0 -202 62 -202 190s93 191 202 191c110 0 203 -63 203 -191zM686 174c0 -24 10 -52 49 -52s49 28 49 52s-10 53 -49 53s-49 -29 -49 -53zM1378 174c0 -126 -93 -190 -203 -190c-109 0 -202 64 -202 190s93 191 202 191c110 0 203 -65 203 -191zM1125 174
c0 -24 10 -52 49 -52s49 28 49 52s-10 53 -49 53s-49 -29 -49 -53z" />
    <glyph glyph-name="plus" unicode="+" horiz-adv-x="552" 
d="M360 435h164v-168h-164v-164h-168v164h-164v168h164v163h168v-163z" />
    <glyph glyph-name="plusminus" unicode="&#xb1;" horiz-adv-x="582" 
d="M375 687v-152h164v-168h-164v-153h-168v153h-164v168h164v152h168zM539 0h-496v168h496v-168z" />
    <glyph glyph-name="product" unicode="&#x220f;" horiz-adv-x="824" 
d="M339 -220h-230v727h-81v193h767v-193h-80v-727h-231v727h-145v-727z" />
    <glyph glyph-name="radical" unicode="&#x221a;" horiz-adv-x="808" 
d="M447 0h-185l-132 277h-112v203h242l93 -227l233 527h240z" />
    <glyph glyph-name="summation" unicode="&#x2211;" horiz-adv-x="597" 
d="M558 0h-525v124l200 226l-200 226v124h516v-202h-206l113 -128v-40l-113 -128h215v-202z" />
    <glyph glyph-name="lozenge" unicode="&#x25ca;" horiz-adv-x="626" 
d="M431 0h-236l-170 350l170 350h236l170 -350zM231 350l82 -165l82 165l-82 165z" />
    <glyph glyph-name="bar" unicode="|" horiz-adv-x="309" 
d="M259 -100h-209v910h209v-910z" />
    <glyph glyph-name="brokenbar" unicode="&#xa6;" horiz-adv-x="317" 
d="M263 420h-209v390h209v-390zM263 -100h-209v390h209v-390z" />
    <glyph glyph-name="at" unicode="@" horiz-adv-x="1044" 
d="M27 240c0 245 171 476 501 476c337 0 482 -241 482 -435c0 -183 -103 -274 -236 -274c-99 0 -151 37 -180 90c-22 -33 -64 -64 -130 -64c-132 0 -184 114 -184 206s49 204 177 204c62 0 98 -25 124 -57v45h153v-230c0 -31 9 -57 46 -57c52 0 56 71 56 137
c0 124 -92 275 -308 275c-206 0 -322 -152 -322 -316c0 -230 175 -314 373 -314c67 0 142 13 213 35v-160c-73 -26 -149 -36 -219 -36c-292 0 -546 157 -546 475zM575 281c-12 20 -33 32 -55 32c-49 0 -64 -41 -64 -75c0 -32 15 -74 64 -74c22 0 43 13 55 32v85z" />
    <glyph glyph-name="ampersand" unicode="&#x26;" horiz-adv-x="749" 
d="M625 134l134 -134h-219l-39 37c-63 -33 -139 -53 -225 -53c-154 0 -248 78 -248 187c0 97 67 153 137 191c-38 41 -76 93 -76 157c0 115 100 197 252 197c143 0 234 -82 234 -187c0 -91 -79 -150 -153 -191l83 -83c18 31 29 67 29 105h184c0 -76 -33 -158 -93 -226z
M390 525c0 28 -18 48 -52 48c-39 0 -62 -26 -62 -55c0 -25 17 -48 44 -78c40 24 70 51 70 85zM229 193c0 -36 28 -56 79 -56c25 0 50 5 75 15l-110 106c-27 -18 -44 -38 -44 -65z" />
    <glyph glyph-name="paragraph" unicode="&#xb6;" horiz-adv-x="831" 
d="M479 -220h-216v469c-150 0 -240 84 -240 225c0 142 90 226 240 226h505v-920h-216v718h-73v-718z" />
    <glyph glyph-name="copyright" unicode="&#xa9;" horiz-adv-x="829" 
d="M799 350c0 -244 -180 -366 -385 -366c-204 0 -384 122 -384 366s180 366 384 366c205 0 385 -122 385 -366zM578 178c-48 -25 -81 -34 -150 -34c-100 0 -216 57 -216 198c0 152 109 214 228 214c54 0 97 -9 138 -34v-123c-27 16 -65 27 -102 27c-46 0 -91 -19 -91 -74
c0 -60 47 -78 93 -78c38 0 74 11 100 28v-124zM103 350c0 -199 149 -300 311 -300c163 0 312 101 312 300s-149 300 -312 300c-162 0 -311 -101 -311 -300z" />
    <glyph glyph-name="registered" unicode="&#xae;" horiz-adv-x="825" 
d="M795 350c0 -241 -178 -366 -383 -366c-204 0 -382 125 -382 366s178 366 382 366c205 0 383 -125 383 -366zM103 350c0 -199 145 -299 309 -299c165 0 309 100 309 299s-144 299 -309 299c-164 0 -309 -100 -309 -299zM382 158h-134v390h196c84 0 166 -37 166 -141
c0 -62 -28 -100 -69 -119l99 -130h-148l-80 111h-7h-23v-111zM382 435v-67h51c23 0 39 11 39 34c0 22 -16 33 -39 33h-51z" />
    <glyph glyph-name="section" unicode="&#xa7;" horiz-adv-x="530" 
d="M491 122c0 -119 -114 -158 -243 -158c-77 0 -137 13 -191 42v159c55 -38 122 -52 169 -52c35 0 47 5 47 18c0 20 -46 29 -98 45c-66 22 -137 57 -137 146c0 61 31 98 73 122c-40 28 -69 65 -69 118c0 113 106 154 225 154c72 0 133 -16 186 -41v-146
c-41 23 -104 42 -158 42c-17 0 -33 -4 -33 -17c0 -24 58 -32 116 -54c60 -21 118 -57 118 -138c0 -54 -25 -96 -66 -126c36 -26 61 -62 61 -114zM249 311c13 -6 31 -11 49 -16c13 10 23 21 24 34c1 15 -10 26 -32 36c-15 7 -35 14 -56 21c-16 -10 -24 -23 -25 -37
c-1 -16 13 -29 40 -38z" />
    <glyph glyph-name="trademark" unicode="&#x2122;" horiz-adv-x="699" 
d="M408 437h-109v263h100l75 -108l74 108h101v-263h-110v112l-37 -55h-57l-37 55v-112zM210 437h-115v161h-66v102h247v-102h-66v-161z" />
    <glyph glyph-name="degree" unicode="&#xb0;" horiz-adv-x="445" 
d="M425 529c0 -128 -86 -192 -202 -192c-115 0 -203 64 -203 192c0 120 88 187 203 187c116 0 202 -67 202 -187zM171 527c0 -31 18 -52 52 -52s51 21 51 52c0 30 -17 51 -51 51s-52 -21 -52 -51z" />
    <glyph glyph-name="asciicircum" unicode="^" horiz-adv-x="662" 
d="M238 322h-215l215 378h186l215 -378h-215l-93 179z" />
    <glyph glyph-name="dagger" unicode="&#x2020;" horiz-adv-x="573" 
d="M402 -220h-230v497h-147v203h147v220h230v-220h146v-203h-146v-497z" />
    <glyph glyph-name="daggerdbl" unicode="&#x2021;" horiz-adv-x="625" 
d="M428 -220h-231v187h-157v196h157v121h-157v196h157v220h231v-220h157v-196h-157v-121h157v-196h-157v-187z" />
    <glyph glyph-name="acute" unicode="&#xb4;" horiz-adv-x="347" 
d="M205 752h-183l98 164h207z" />
    <glyph glyph-name="breve" unicode="&#x2d8;" horiz-adv-x="427" 
d="M394 790c-50 -33 -110 -51 -181 -51s-131 18 -181 51v143c54 -33 116 -46 181 -46c64 0 127 13 181 46v-143z" />
    <glyph glyph-name="caron" unicode="&#x2c7;" horiz-adv-x="418" 
d="M434 923l-132 -171h-185l-132 171h175l49 -61l50 61h175z" />
    <glyph glyph-name="cedilla" unicode="&#xb8;" horiz-adv-x="230" 
d="M50 0h127l-14 -43c58 -8 92 -36 92 -90c0 -75 -78 -104 -157 -104c-45 0 -83 5 -118 19v105c24 -10 53 -15 78 -15c32 0 57 7 57 25c0 25 -49 28 -88 24z" />
    <glyph glyph-name="circumflex" unicode="&#x2c6;" horiz-adv-x="418" 
d="M116 918h185l128 -171h-175l-45 57l-45 -57h-176z" />
    <glyph glyph-name="dieresis" unicode="&#xa8;" horiz-adv-x="437" 
d="M431 834c0 -58 -42 -96 -97 -96c-54 0 -96 38 -96 96s42 96 96 96c55 0 97 -38 97 -96zM200 834c0 -58 -42 -96 -97 -96c-54 0 -96 38 -96 96s42 96 96 96c55 0 97 -38 97 -96z" />
    <glyph glyph-name="dotaccent" unicode="&#x2d9;" horiz-adv-x="211" 
d="M5 841c0 68 48 98 102 98c55 0 102 -30 102 -98c0 -69 -47 -99 -102 -99c-54 0 -102 30 -102 99z" />
    <glyph glyph-name="grave" unicode="`" horiz-adv-x="356" 
d="M329 752h-183l-122 164h206z" />
    <glyph glyph-name="hungarumlaut" unicode="&#x2dd;" horiz-adv-x="504" 
d="M411 753h-170l85 168h183zM193 753h-170l77 168h182z" />
    <glyph glyph-name="macron" unicode="&#xaf;" horiz-adv-x="360" 
d="M-3 892h363v-145h-363v145z" />
    <glyph glyph-name="ogonek" unicode="&#x2db;" horiz-adv-x="237" 
d="M82 0h149c-37 -27 -55 -57 -55 -76c0 -16 10 -23 26 -23c8 0 17 2 24 5v-124c-28 -12 -64 -18 -97 -18c-87 0 -128 48 -127 105c0 46 33 97 80 131z" />
    <glyph glyph-name="ring" unicode="&#x2da;" horiz-adv-x="277" 
d="M280 857c0 -87 -64 -132 -142 -132c-75 0 -141 45 -141 132c0 82 66 129 141 129c78 0 142 -47 142 -129zM105 856c0 -19 11 -35 34 -35s34 16 34 35s-11 34 -34 34s-34 -15 -34 -34z" />
    <glyph glyph-name="tilde" unicode="&#x2dc;" horiz-adv-x="450" 
d="M426 914c26 -98 -26 -180 -114 -180c-67 0 -107 42 -136 42c-21 0 -23 -23 -19 -36h-133c-26 98 25 180 114 180c66 0 107 -42 135 -42c22 0 23 23 20 36h133z" />
    <glyph glyph-name="uni0326" unicode="&#x326;" horiz-adv-x="250" 
d="M188 -308h-162l40 254h191z" />
    <glyph glyph-name="A" unicode="A" horiz-adv-x="765" 
d="M231 0h-234l262 700h248l261 -700h-234l-30 93h-242zM364 409l-49 -149h137l-49 149c-8 26 -15 54 -20 90c-5 -36 -12 -64 -19 -90z" />
    </font>
</defs>
</svg>
